<svg xmlns="http://www.w3.org/2000/svg" viewBox="0 0 53.61 53.61"><defs><style>.cls-1{fill:none;stroke:#e9e9e9;stroke-width:0.43px;}.cls-2{fill:#e9e9e9;}</style></defs><title>a106</title><g id="Layer_2" data-name="Layer 2"><g id="Layer_1-2" data-name="Layer 1"><g id="a106"><rect class="cls-1" x="35.67" y="35.67" width="17.73" height="17.73"/><rect class="cls-1" x="17.94" y="17.94" width="17.73" height="17.73"/><rect class="cls-1" x="0.22" y="17.94" width="17.73" height="17.73"/><rect class="cls-1" x="0.22" y="0.22" width="17.73" height="17.73"/><path class="cls-2" d="M11.15,8.45h-.8A1,1,0,0,0,10,7.73a1.1,1.1,0,0,0-.77-.25,1.14,1.14,0,0,0-1,.54,3.46,3.46,0,0,0-.41,1.64,1.82,1.82,0,0,1,.62-.49A1.92,1.92,0,0,1,9.28,9a1.82,1.82,0,0,1,1.39.55A1.94,1.94,0,0,1,11.2,11a2,2,0,0,1-.56,1.46A2,2,0,0,1,9.16,13a1.89,1.89,0,0,1-1.61-.73A3.43,3.43,0,0,1,7,10.17a4.46,4.46,0,0,1,.6-2.51,1.91,1.91,0,0,1,1.67-.88,2,2,0,0,1,1.35.43A1.73,1.73,0,0,1,11.15,8.45ZM10.36,11a1.35,1.35,0,0,0-.32-.94,1.12,1.12,0,0,0-.85-.35,1.19,1.19,0,0,0-.93.35,1.31,1.31,0,0,0-.34.95,1.33,1.33,0,0,0,.34,1,1.16,1.16,0,0,0,.9.36A1.12,1.12,0,0,0,10,12,1.4,1.4,0,0,0,10.36,11Z"/><path class="cls-2" d="M8,27.32a1.35,1.35,0,0,1-.6-.49,1.45,1.45,0,0,1-.2-.77,1.38,1.38,0,0,1,.52-1.12,2,2,0,0,1,1.34-.43,2,2,0,0,1,1.36.43A1.39,1.39,0,0,1,11,26.06a1.45,1.45,0,0,1-.2.77,1.47,1.47,0,0,1-.6.49,1.53,1.53,0,0,1,.75.58,1.61,1.61,0,0,1,.25.93,1.79,1.79,0,0,1-.56,1.38,2.14,2.14,0,0,1-1.52.52,2.09,2.09,0,0,1-1.5-.52A1.75,1.75,0,0,1,7,28.83a1.61,1.61,0,0,1,.25-.93A1.53,1.53,0,0,1,8,27.32Zm-.17,1.5a1.18,1.18,0,0,0,.33.87,1.25,1.25,0,0,0,.9.31,1.22,1.22,0,0,0,.91-.32,1.14,1.14,0,0,0,.33-.86A1,1,0,0,0,10,28a1.3,1.3,0,0,0-.91-.3,1.33,1.33,0,0,0-.9.29A1,1,0,0,0,7.84,28.82ZM8,26.12a.91.91,0,0,0,.28.7,1.11,1.11,0,0,0,.76.26,1.09,1.09,0,0,0,.76-.26.89.89,0,0,0,.29-.7.85.85,0,0,0-.28-.68,1.13,1.13,0,0,0-.77-.24,1.12,1.12,0,0,0-.76.24A.85.85,0,0,0,8,26.12Z"/><path class="cls-2" d="M24.26,30.56V26.28H22.87v-.61A2,2,0,0,0,24,25.38a1.15,1.15,0,0,0,.45-.87h.59v6Z"/><path class="cls-2" d="M27.1,27.62a4.22,4.22,0,0,1,.52-2.32,1.92,1.92,0,0,1,3.1,0,4.12,4.12,0,0,1,.54,2.32,4.21,4.21,0,0,1-.53,2.32,1.93,1.93,0,0,1-3.11,0A4.22,4.22,0,0,1,27.1,27.62Zm.82,0a4.15,4.15,0,0,0,.3,1.83,1.08,1.08,0,0,0,1.9,0,4.15,4.15,0,0,0,.3-1.83,4.15,4.15,0,0,0-.3-1.83,1.08,1.08,0,0,0-1.9,0A4.21,4.21,0,0,0,27.92,27.62Z"/><path class="cls-2" d="M42,48.28V44H40.6v-.61a1.92,1.92,0,0,0,1.14-.29,1.13,1.13,0,0,0,.45-.87h.59v6.05Z"/><path class="cls-2" d="M44.79,48.28v-.05a2.5,2.5,0,0,1,.43-1.47,4.41,4.41,0,0,1,1.48-1.18l.51-.28a1.92,1.92,0,0,0,.67-.56,1.28,1.28,0,0,0,.21-.73,1,1,0,0,0-.32-.77A1.29,1.29,0,0,0,46.9,43a1.07,1.07,0,0,0-.87.37,1.53,1.53,0,0,0-.31,1v.07h-.79v-.1a2.09,2.09,0,0,1,.54-1.52,2,2,0,0,1,1.46-.56,2,2,0,0,1,1.44.49,1.69,1.69,0,0,1,.54,1.3,1.89,1.89,0,0,1-.31,1.09,2.61,2.61,0,0,1-1,.81l-.51.26a4.15,4.15,0,0,0-1,.67,1.51,1.51,0,0,0-.43.69h3.25v.74Z"/></g></g></g></svg>