<svg xmlns="http://www.w3.org/2000/svg" viewBox="0 0 77.65 50.87"><defs><style>.cls-1{fill:none;stroke:#e9e9e9;stroke-width:0.4px;}.cls-2{fill:#191919;}.cls-3{fill:#e9e9e9;}</style></defs><title>a107</title><g id="Layer_2" data-name="Layer 2"><g id="Layer_1-2" data-name="Layer 1"><g id="a107"><line class="cls-1" x1="5.05" y1="24.03" x2="72.05" y2="31.87"/><polyline class="cls-1" points="29.3 45.27 5.05 24.03 31.36 6.64 72.05 31.88 64.84 5.61"/><path class="cls-2" d="M36.77,6.64a5.41,5.41,0,1,1-5.41-5.41,5.41,5.41,0,0,1,5.41,5.41"/><path class="cls-1" d="M36.77,6.64a5.41,5.41,0,1,1-5.41-5.41A5.41,5.41,0,0,1,36.77,6.64Z"/><path class="cls-3" d="M11,24.15a5.41,5.41,0,1,1-5.41-5.41A5.41,5.41,0,0,1,11,24.15"/><path class="cls-1" d="M11,24.15a5.41,5.41,0,1,1-5.41-5.41A5.41,5.41,0,0,1,11,24.15Z"/><path class="cls-2" d="M34.71,45.26a5.41,5.41,0,1,1-5.41-5.4,5.41,5.41,0,0,1,5.41,5.4"/><path class="cls-1" d="M34.71,45.26a5.41,5.41,0,1,1-5.41-5.4A5.41,5.41,0,0,1,34.71,45.26Z"/><path class="cls-2" d="M77.45,31.87a5.41,5.41,0,1,1-5.4-5.4,5.41,5.41,0,0,1,5.4,5.4"/><path class="cls-1" d="M77.45,31.87a5.41,5.41,0,1,1-5.4-5.4A5.41,5.41,0,0,1,77.45,31.87Z"/><path class="cls-2" d="M70.24,5.61A5.41,5.41,0,1,1,64.84.2a5.41,5.41,0,0,1,5.4,5.41"/><path class="cls-1" d="M70.24,5.61A5.41,5.41,0,1,1,64.84.2,5.41,5.41,0,0,1,70.24,5.61Z"/></g></g></g></svg>