<svg xmlns="http://www.w3.org/2000/svg" viewBox="0 0 40.53 40.53"><defs><style>.cls-1{fill:none;stroke:#e9e9e9;stroke-width:0.48px;}.cls-2{fill:#e9e9e9;}.cls-3{fill:#191919;}</style></defs><title>a115</title><g id="Layer_2" data-name="Layer 2"><g id="Layer_1-2" data-name="Layer 1"><g id="a115"><rect class="cls-1" x="0.24" y="0.24" width="40.04" height="40.04"/><path class="cls-2" d="M36.18,20.26A15.92,15.92,0,1,1,20.26,4.35,15.92,15.92,0,0,1,36.18,20.26"/><circle class="cls-1" cx="20.26" cy="20.26" r="15.92" transform="translate(-0.04 40.49) rotate(-89.89)"/><path class="cls-3" d="M31.29,20.26a11,11,0,1,1-11-11,11,11,0,0,1,11,11"/><path class="cls-1" d="M31.29,20.26a11,11,0,1,1-11-11A11,11,0,0,1,31.29,20.26Z"/><path class="cls-2" d="M26.74,20.26a6.48,6.48,0,1,1-6.48-6.47,6.48,6.48,0,0,1,6.48,6.47"/><circle class="cls-1" cx="20.26" cy="20.26" r="6.47" transform="translate(-0.04 40.49) rotate(-89.89)"/></g></g></g></svg>