<svg xmlns="http://www.w3.org/2000/svg" viewBox="0 0 36.44 36.44"><defs><style>.cls-1{fill:none;stroke:#e9e9e9;stroke-width:0.44px;}</style></defs><title>a121</title><g id="Layer_2" data-name="Layer 2"><g id="Layer_1-2" data-name="Layer 1"><g id="a121"><rect class="cls-1" x="0.22" y="0.22" width="36" height="36"/><path class="cls-1" d="M20.3,22.4V8H16.17V22.41a13.28,13.28,0,0,0-3.56-.73,17.63,17.63,0,0,1,5.62,6.86,16.86,16.86,0,0,1,5.62-6.86A11.06,11.06,0,0,0,20.3,22.4Z"/><path class="cls-1" d="M27.52,14.13V28.54h4.13V14.11a13,13,0,0,0,3.56.74A17.77,17.77,0,0,1,29.59,8,17,17,0,0,1,24,14.85,11.33,11.33,0,0,0,27.52,14.13Z"/><path class="cls-1" d="M4.82,14.13V28.54H8.94V14.11a13.07,13.07,0,0,0,3.56.74A18,18,0,0,1,6.88,8a16.91,16.91,0,0,1-5.62,6.86A11.45,11.45,0,0,0,4.82,14.13Z"/></g></g></g></svg>