<svg xmlns="http://www.w3.org/2000/svg" viewBox="0 0 41.48 61.96"><defs><style>.cls-1{fill:none;stroke:#e5e5e5;stroke-width:0.5px;}.cls-2{fill:#e5e5e5;}</style></defs><title>a203</title><g id="Layer_2" data-name="Layer 2"><g id="Layer_1-2" data-name="Layer 1"><g id="a203"><rect class="cls-1" x="20.74" y="41.22" width="20.49" height="20.49"/><rect class="cls-1" x="0.25" y="20.74" width="20.49" height="20.49"/><rect class="cls-1" x="20.74" y="0.25" width="20.49" height="20.49"/><path class="cls-2" d="M27.85,9.15h0l-1.13.61-.17-.67L28,8.33h.75v6.5h-.85Z"/><path class="cls-2" d="M31.58,14.21a3.67,3.67,0,0,0,.71,0,2.45,2.45,0,0,0,1.36-.63,2.85,2.85,0,0,0,.86-1.73h0a1.91,1.91,0,0,1-1.53.7,1.88,1.88,0,0,1-1.92-2,2.23,2.23,0,0,1,2.22-2.31c1.33,0,2.15,1.08,2.15,2.74a4.11,4.11,0,0,1-1.12,3,3.25,3.25,0,0,1-1.89.87,4.1,4.1,0,0,1-.81,0Zm.32-3.74a1.25,1.25,0,0,0,1.25,1.38,1.45,1.45,0,0,0,1.28-.68.58.58,0,0,0,.08-.32c0-1.11-.41-2-1.33-2C32.43,8.89,31.9,9.55,31.9,10.47Z"/><path class="cls-2" d="M7.36,29.64h0l-1.13.61L6,29.58l1.42-.76h.75v6.5H7.36Z"/><path class="cls-2" d="M10.5,33.67a1.86,1.86,0,0,1,1.29-1.74v0a1.61,1.61,0,0,1-1-1.46,1.82,1.82,0,0,1,2-1.73,1.68,1.68,0,0,1,1.89,1.6,1.65,1.65,0,0,1-1.07,1.52v0a1.8,1.8,0,0,1,1.31,1.68,2,2,0,0,1-2.21,1.89C11.32,35.43,10.5,34.62,10.5,33.67Zm3.5,0c0-.79-.55-1.17-1.43-1.42a1.41,1.41,0,0,0-1.17,1.34,1.2,1.2,0,0,0,1.3,1.24A1.18,1.18,0,0,0,14,33.63Zm-2.42-3.25c0,.65.49,1,1.24,1.2a1.28,1.28,0,0,0,1-1.18,1,1,0,0,0-1.1-1.06A1,1,0,0,0,11.58,30.38Z"/><path class="cls-2" d="M27.85,50.13h0l-1.13.61-.17-.67L28,49.31h.75V55.8h-.85Z"/><path class="cls-2" d="M31.58,55.18a3.67,3.67,0,0,0,.71,0,2.45,2.45,0,0,0,1.36-.63,2.85,2.85,0,0,0,.86-1.73h0a1.91,1.91,0,0,1-1.53.7,1.88,1.88,0,0,1-1.92-2,2.23,2.23,0,0,1,2.22-2.31c1.33,0,2.15,1.08,2.15,2.74a4.1,4.1,0,0,1-1.12,3,3.25,3.25,0,0,1-1.89.87,4.1,4.1,0,0,1-.81,0Zm.32-3.73a1.24,1.24,0,0,0,1.25,1.37,1.45,1.45,0,0,0,1.28-.68.56.56,0,0,0,.08-.32c0-1.1-.41-2-1.33-2C32.43,49.87,31.9,50.53,31.9,51.45Z"/></g></g></g></svg>