<svg xmlns="http://www.w3.org/2000/svg" viewBox="0 0 65.52 60.36"><defs><style>.cls-1{fill:none;stroke:#e5e5e5;stroke-width:0.41px;}.cls-2{fill:#e5e5e5;}</style></defs><title>a216</title><g id="Layer_2" data-name="Layer 2"><g id="Layer_1-2" data-name="Layer 1"><g id="a216"><polygon class="cls-1" points="37.1 60.02 0.59 51.28 0.59 14.77 37.1 23.5 37.1 60.02"/><path class="cls-2" d="M25.7,37.39a6.86,6.86,0,1,1-6.86-6.85,6.85,6.85,0,0,1,6.86,6.85"/><line class="cls-1" x1="52.06" y1="52.56" x2="52.06" y2="34.28"/><line class="cls-1" x1="64.88" y1="27.21" x2="37.43" y2="41.76"/><polygon class="cls-1" points="37.1 23.5 64.94 8.96 64.94 45.47 37.1 60.02 37.1 23.5"/><line class="cls-1" x1="51.22" y1="16.3" x2="36.42" y2="12.69"/><line class="cls-1" x1="27.01" y1="10.34" x2="14.71" y2="7.57"/><line class="cls-1" x1="21.97" y1="20.1" x2="49.81" y2="5.55"/><line class="cls-1" x1="12.63" y1="17.81" x2="40.47" y2="3.26"/><polygon class="cls-1" points="37.1 23.5 0.59 14.77 28.42 0.22 64.94 8.96 37.1 23.5"/></g></g></g></svg>