<svg xmlns="http://www.w3.org/2000/svg" viewBox="0 0 62.31 57.4"><defs><style>.cls-1{fill:#e5e5e5;}.cls-2{fill:none;stroke:#e5e5e5;stroke-width:0.4px;}.cls-3{fill:#191919;}</style></defs><title>a240</title><g id="Layer_2" data-name="Layer 2"><g id="Layer_1-2" data-name="Layer 1"><g id="a240"><path class="cls-1" d="M25.1,35.37a8.5,8.5,0,1,1-8.49-8.49,8.49,8.49,0,0,1,8.49,8.49"/><path class="cls-2" d="M25.1,35.37a8.5,8.5,0,1,1-8.49-8.49A8.49,8.49,0,0,1,25.1,35.37Z"/><path class="cls-3" d="M22.33,35.37a5.73,5.73,0,1,1-5.72-5.73,5.73,5.73,0,0,1,5.72,5.73"/><polygon class="cls-2" points="35.28 22.35 61.75 8.52 61.75 43.24 35.28 57.07 35.28 22.35"/><polygon class="cls-2" points="35.28 22.35 0.56 14.04 27.03 0.21 61.75 8.52 35.28 22.35"/><polygon class="cls-2" points="35.28 57.07 0.56 48.77 0.56 14.04 35.28 22.35 35.28 57.07"/><path class="cls-3" d="M37.67,11.28c-.63,2.22-4.06,4-7.66,4s-6-1.8-5.37-4,4.07-4,7.67-4,6,1.8,5.36,4"/><path class="cls-2" d="M37.67,11.28c-.63,2.22-4.06,4-7.66,4s-6-1.8-5.37-4,4.07-4,7.67-4S38.31,9.06,37.67,11.28Z"/><path class="cls-2" d="M37.84,37.29a10.7,10.7,0,0,0,14.48,6.57,12.7,12.7,0,0,0,7-15.56,10.7,10.7,0,0,0-14.47-6.57A12.72,12.72,0,0,0,37.84,37.29Z"/><path class="cls-2" d="M41.12,35.92a7.44,7.44,0,0,0,10.06,4.57,8.84,8.84,0,0,0,4.88-10.82A7.45,7.45,0,0,0,46,25.1,8.85,8.85,0,0,0,41.12,35.92Z"/><path class="cls-2" d="M44,34.7a4.54,4.54,0,0,0,6.13,2.79,5.4,5.4,0,0,0,3-6.6A4.53,4.53,0,0,0,47,28.11,5.39,5.39,0,0,0,44,34.7Z"/></g></g></g></svg>