<svg xmlns="http://www.w3.org/2000/svg" viewBox="0 0 53.61 53.61"><defs><style>.cls-1{fill:none;stroke:#e9e9e9;stroke-width:0.43px;}.cls-2{fill:#e9e9e9;}</style></defs><title>b106</title><g id="Layer_2" data-name="Layer 2"><g id="Layer_1-2" data-name="Layer 1"><g id="b106"><rect class="cls-1" x="35.67" y="35.67" width="17.72" height="17.73"/><rect class="cls-1" x="17.94" y="17.94" width="17.73" height="17.73"/><rect class="cls-1" x="0.22" y="17.94" width="17.73" height="17.73"/><rect class="cls-1" x="0.22" y="0.22" width="17.73" height="17.73"/><path class="cls-2" d="M6.93,11.26h.8a1.16,1.16,0,0,0,.39.74,1.29,1.29,0,0,0,.81.26,1.38,1.38,0,0,0,1-2.31,1.33,1.33,0,0,0-1-.36,1.33,1.33,0,0,0-.63.14,1.34,1.34,0,0,0-.51.41H7.11L7.58,7h3.21v.71H8.15L7.91,9.28A1.88,1.88,0,0,1,8.43,9a2.2,2.2,0,0,1,.64-.1,2,2,0,0,1,1.48.55,1.88,1.88,0,0,1,.56,1.44A2,2,0,0,1,9,13a2.12,2.12,0,0,1-1.41-.47A1.83,1.83,0,0,1,6.93,11.26Z"/><path class="cls-2" d="M7,29.07H7.8a.93.93,0,0,0,.3.7,1.13,1.13,0,0,0,.78.26,1.13,1.13,0,0,0,1-.54,3.46,3.46,0,0,0,.41-1.64,1.65,1.65,0,0,1-.62.49,1.8,1.8,0,0,1-.82.17A1.84,1.84,0,0,1,7.48,28,2,2,0,0,1,9,24.51a1.89,1.89,0,0,1,1.61.73,3.35,3.35,0,0,1,.57,2.1,4.41,4.41,0,0,1-.6,2.51,1.92,1.92,0,0,1-1.7.88,2,2,0,0,1-1.36-.45A1.55,1.55,0,0,1,7,29.07Zm.78-2.55a1.33,1.33,0,0,0,.32.93A1.11,1.11,0,0,0,9,27.8a1.26,1.26,0,0,0,.93-.35,1.3,1.3,0,0,0,.33-.94,1.37,1.37,0,0,0-.33-1A1.15,1.15,0,0,0,9,25.19a1.13,1.13,0,0,0-.88.36A1.41,1.41,0,0,0,7.79,26.52Z"/><path class="cls-2" d="M25.59,30.56a8.78,8.78,0,0,1,.79-2.7,9.84,9.84,0,0,1,1.67-2.39H24.77v-.79h4.12v.72a9.14,9.14,0,0,0-1.63,2.39,9.42,9.42,0,0,0-.79,2.77Z"/><path class="cls-2" d="M42,48.28V44h-1.4v-.61a1.93,1.93,0,0,0,1.15-.29,1.13,1.13,0,0,0,.45-.87h.59v6.05Z"/><path class="cls-2" d="M44.72,46.4h.79a1.42,1.42,0,0,0,.35,1,1.25,1.25,0,0,0,.94.35,1.34,1.34,0,0,0,.94-.32,1.15,1.15,0,0,0,.34-.87,1,1,0,0,0-.34-.79,1.44,1.44,0,0,0-.94-.28l-.4,0h0v-.69h.26a1.55,1.55,0,0,0,.94-.22.86.86,0,0,0,.29-.71.93.93,0,0,0-.28-.71,1.14,1.14,0,0,0-.78-.24,1.12,1.12,0,0,0-.87.32,1.38,1.38,0,0,0-.3,1h-.77v0a2,2,0,0,1,.52-1.42,1.81,1.81,0,0,1,1.37-.53,2.14,2.14,0,0,1,1.43.43,1.46,1.46,0,0,1,.51,1.19,1.43,1.43,0,0,1-.19.74,1.24,1.24,0,0,1-.56.47,1.4,1.4,0,0,1,.72.55,1.61,1.61,0,0,1,.25.93,1.74,1.74,0,0,1-.59,1.39,2.26,2.26,0,0,1-1.57.52,1.88,1.88,0,0,1-2-2Z"/></g></g></g></svg>