<svg xmlns="http://www.w3.org/2000/svg" viewBox="0 0 93.62 63.23"><defs><style>.cls-1{fill:none;stroke:#e9e9e9;stroke-width:0.4px;}.cls-2{fill:#191919;}.cls-3{fill:#e9e9e9;}</style></defs><title>b107</title><g id="Layer_2" data-name="Layer 2"><g id="Layer_1-2" data-name="Layer 1"><g id="b107"><line class="cls-1" x1="10.76" y1="25.18" x2="45.26" y2="47.84"/><polygon class="cls-1" points="5.61 54.02 10.76 25.18 64.83 5.61 88.01 57.63 45.26 47.84 5.61 54.02"/><path class="cls-2" d="M11,54a5.41,5.41,0,1,1-5.41-5.41A5.41,5.41,0,0,1,11,54"/><path class="cls-1" d="M11,54a5.41,5.41,0,1,1-5.41-5.41A5.41,5.41,0,0,1,11,54Z"/><path class="cls-2" d="M16.16,25.18a5.41,5.41,0,1,1-5.4-5.41,5.41,5.41,0,0,1,5.4,5.41"/><path class="cls-1" d="M16.16,25.18a5.41,5.41,0,1,1-5.4-5.41A5.41,5.41,0,0,1,16.16,25.18Z"/><path class="cls-3" d="M50.67,47.84a5.41,5.41,0,1,1-5.41-5.41,5.41,5.41,0,0,1,5.41,5.41"/><path class="cls-1" d="M50.67,47.84a5.41,5.41,0,1,1-5.41-5.41A5.41,5.41,0,0,1,50.67,47.84Z"/><path class="cls-2" d="M93.42,57.63A5.41,5.41,0,1,1,88,52.22a5.41,5.41,0,0,1,5.41,5.41"/><path class="cls-1" d="M93.42,57.63A5.41,5.41,0,1,1,88,52.22,5.41,5.41,0,0,1,93.42,57.63Z"/><path class="cls-2" d="M70.24,5.61A5.41,5.41,0,1,1,64.83.2a5.41,5.41,0,0,1,5.41,5.41"/><path class="cls-1" d="M70.24,5.61A5.41,5.41,0,1,1,64.83.2,5.41,5.41,0,0,1,70.24,5.61Z"/></g></g></g></svg>