<svg xmlns="http://www.w3.org/2000/svg" viewBox="0 0 86.9 86.89"><defs><style>.cls-1{fill:#191919;}.cls-2{fill:none;stroke:#e9e9e9;stroke-width:0.44px;}.cls-3{fill:#e9e9e9;}</style></defs><title>b140</title><g id="Layer_2" data-name="Layer 2"><g id="Layer_1-2" data-name="Layer 1"><g id="b140"><rect class="cls-1" x="0.22" y="0.22" width="43.23" height="43.23"/><rect class="cls-2" x="0.22" y="0.22" width="43.23" height="43.23"/><path class="cls-1" d="M31.9,21.84A10.07,10.07,0,1,1,21.83,11.77,10.07,10.07,0,0,1,31.9,21.84"/><circle class="cls-2" cx="21.83" cy="21.84" r="10.07"/><rect class="cls-1" x="43.45" y="0.22" width="43.23" height="43.23"/><rect class="cls-2" x="43.45" y="0.22" width="43.23" height="43.23"/><polyline class="cls-1" points="53.56 31.8 65.06 11.87 76.56 31.8 53.56 31.8"/><polygon class="cls-2" points="53.56 31.8 65.06 11.87 76.56 31.8 53.56 31.8"/><rect class="cls-1" x="0.22" y="43.45" width="43.23" height="43.23"/><rect class="cls-2" x="0.22" y="43.45" width="43.23" height="43.23"/><path class="cls-1" d="M31.9,65.06A10.07,10.07,0,1,1,21.83,55,10.07,10.07,0,0,1,31.9,65.06"/><circle class="cls-2" cx="21.83" cy="65.06" r="10.07"/><path class="cls-1" d="M28.79,65.06a7,7,0,1,1-7-7,7,7,0,0,1,7,7"/><path class="cls-2" d="M28.79,65.06a7,7,0,1,1-7-7A7,7,0,0,1,28.79,65.06Z"/><path class="cls-3" d="M26.13,65.06a4.3,4.3,0,1,1-4.3-4.29,4.29,4.29,0,0,1,4.3,4.29"/></g></g></g></svg>