<svg xmlns="http://www.w3.org/2000/svg" viewBox="0 0 65.52 60.36"><defs><style>.cls-1{fill:none;stroke:#e5e5e5;stroke-width:0.41px;}.cls-2{fill:#e5e5e5;}</style></defs><title>b216</title><g id="Layer_2" data-name="Layer 2"><g id="Layer_1-2" data-name="Layer 1"><g id="b216"><polygon class="cls-1" points="37.1 60.02 0.59 51.28 0.59 14.77 37.1 23.5 37.1 60.02"/><path class="cls-2" d="M25.7,37.39a6.86,6.86,0,1,1-6.86-6.85,6.85,6.85,0,0,1,6.86,6.85"/><line class="cls-1" x1="0.59" y1="14.77" x2="64.94" y2="8.95"/><line class="cls-1" x1="28.42" y1="0.22" x2="37.1" y2="23.5"/><line class="cls-1" x1="48.22" y1="54.33" x2="48.22" y2="17.59"/><line class="cls-1" x1="55.54" y1="50.31" x2="55.54" y2="14.06"/><polygon class="cls-1" points="37.1 23.5 64.94 8.96 64.94 45.47 37.1 60.02 37.1 23.5"/><polygon class="cls-1" points="37.1 23.5 0.59 14.77 28.42 0.22 64.94 8.96 37.1 23.5"/></g></g></g></svg>