<svg xmlns="http://www.w3.org/2000/svg" viewBox="0 0 31.97 31.97"><defs><style>.cls-1{fill:none;stroke:#e5e5e5;stroke-width:0.5px;}.cls-2{fill:#e5e5e5;}.cls-3{fill:#191919;}</style></defs><title>b220</title><g id="Layer_2" data-name="Layer 2"><g id="Layer_1-2" data-name="Layer 1"><g id="b220"><rect class="cls-1" x="0.25" y="0.25" width="31.47" height="31.47"/><path class="cls-2" d="M11.71,9.7A2.89,2.89,0,1,1,8.82,6.81,2.89,2.89,0,0,1,11.71,9.7"/><path class="cls-1" d="M11.71,9.7A2.89,2.89,0,1,1,8.82,6.81,2.89,2.89,0,0,1,11.71,9.7Z"/><path class="cls-3" d="M23,23a2.89,2.89,0,1,1-2.89-2.9A2.89,2.89,0,0,1,23,23"/><path class="cls-1" d="M23,23a2.89,2.89,0,1,1-2.89-2.9A2.89,2.89,0,0,1,23,23Z"/><path class="cls-2" d="M26.58,8.32a2.9,2.9,0,1,1-2.89-2.89,2.89,2.89,0,0,1,2.89,2.89"/><path class="cls-1" d="M26.58,8.32a2.9,2.9,0,1,1-2.89-2.89A2.89,2.89,0,0,1,26.58,8.32Z"/><path class="cls-3" d="M11.71,23.26a2.89,2.89,0,1,1-2.89-2.89,2.89,2.89,0,0,1,2.89,2.89"/><path class="cls-1" d="M11.71,23.26a2.89,2.89,0,1,1-2.89-2.89A2.89,2.89,0,0,1,11.71,23.26Z"/></g></g></g></svg>