<svg xmlns="http://www.w3.org/2000/svg" viewBox="0 0 23.53 9.52"><defs><style>.cls-1{fill:#191919;}.cls-2{fill:none;stroke:#e5e5e5;stroke-width:0.45px;}</style></defs><title>b221</title><g id="Layer_2" data-name="Layer 2"><g id="Layer_1-2" data-name="Layer 1"><g id="b221"><g id="b221-2" data-name="b221"><path class="cls-1" d="M23.31.81a3.85,3.85,0,0,1-2.86,1.26A3.88,3.88,0,0,1,17.54.76,3.89,3.89,0,0,1,14.68,2,3.86,3.86,0,0,1,11.77.7,3.86,3.86,0,0,1,8.91,2,3.84,3.84,0,0,1,6,.65,3.89,3.89,0,0,1,3.13,1.91,3.86,3.86,0,0,1,.22.59V8.92A3.87,3.87,0,0,1,6,8.87,3.84,3.84,0,0,1,8.91,7.55a3.89,3.89,0,0,1,2.86,1.26,3.88,3.88,0,0,1,5.77-.05,3.86,3.86,0,0,1,5.77,0V.81"/></g><path id="b221-3" data-name="b221" class="cls-2" d="M23.31.81a3.85,3.85,0,0,1-2.86,1.26A3.88,3.88,0,0,1,17.54.76,3.89,3.89,0,0,1,14.68,2,3.86,3.86,0,0,1,11.77.7,3.86,3.86,0,0,1,8.91,2,3.84,3.84,0,0,1,6,.65,3.89,3.89,0,0,1,3.13,1.91,3.86,3.86,0,0,1,.22.59V8.92A3.87,3.87,0,0,1,6,8.87,3.84,3.84,0,0,1,8.91,7.55a3.89,3.89,0,0,1,2.86,1.26,3.88,3.88,0,0,1,5.77-.05,3.86,3.86,0,0,1,5.77,0Z"/></g></g></g></svg>