<svg xmlns="http://www.w3.org/2000/svg" viewBox="0 0 40.9 43.9"><defs><style>.cls-1{fill:none;stroke:#e5e5e5;stroke-width:0.4px;}.cls-2{fill:#e5e5e5;}</style></defs><title>b226</title><g id="Layer_2" data-name="Layer 2"><g id="Layer_1-2" data-name="Layer 1"><g id="b226"><path class="cls-1" d="M31,13.4A1.44,1.44,0,1,1,29.52,12,1.43,1.43,0,0,1,31,13.4Z"/><path class="cls-1" d="M14.38,13.53A1.44,1.44,0,1,1,13,12.1,1.44,1.44,0,0,1,14.38,13.53Z"/><circle class="cls-1" cx="29.52" cy="13.4" r="6.22" transform="translate(2.61 31.47) rotate(-58.28)"/><path class="cls-1" d="M40.58.39a15.88,15.88,0,0,1-10,3.76A15.72,15.72,0,0,1,20.44.5a15.71,15.71,0,0,1-10,3.55A15.63,15.63,0,0,1,.33.39s-3,26.71,20.12,43.26C43.56,27.1,40.58.39,40.58.39Z"/><path class="cls-2" d="M22.8,32.87a1.44,1.44,0,1,1-1.43-1.44,1.43,1.43,0,0,1,1.43,1.44"/><rect class="cls-1" x="17.42" y="28.92" width="7.9" height="7.9"/><polygon class="cls-1" points="6.73 17.8 12.95 7.03 19.17 17.8 6.73 17.8"/><path class="cls-1" d="M22.8,32.87a1.44,1.44,0,1,1-1.43-1.44A1.43,1.43,0,0,1,22.8,32.87Z"/></g></g></g></svg>