<svg xmlns="http://www.w3.org/2000/svg" viewBox="0 0 67.88 62.53"><defs><style>.cls-1{fill:#191919;}.cls-2{fill:none;stroke:#fff;stroke-width:0.43px;}</style></defs><title>b311</title><g id="Layer_2" data-name="Layer 2"><g id="Layer_1-2" data-name="Layer 1"><g id="b311"><path class="cls-1" d="M19.52,33.36a5.38,5.38,0,1,1-5.38,5.38,5.38,5.38,0,0,1,5.38-5.38"/><polygon class="cls-2" points="38.44 24.35 67.28 9.28 67.28 47.1 38.44 62.18 38.44 24.35"/><line class="cls-2" x1="52.86" y1="16.81" x2="15.03" y2="7.76"/><polygon class="cls-2" points="38.44 24.35 0.61 15.3 29.45 0.23 67.28 9.28 38.44 24.35"/><polygon class="cls-2" points="38.44 62.18 0.61 53.13 0.61 15.3 38.44 24.35 38.44 62.18"/><path class="cls-2" d="M19.52,33.36a5.38,5.38,0,1,1-5.38,5.38A5.38,5.38,0,0,1,19.52,33.36Z"/><path class="cls-1" d="M41,12.29c-.69,2.42-4.43,4.38-8.35,4.38s-6.54-2-5.85-4.38,4.43-4.38,8.35-4.38,6.54,2,5.85,4.38"/><path class="cls-2" d="M41,12.29c-.69,2.42-4.43,4.38-8.35,4.38s-6.54-2-5.85-4.38,4.43-4.38,8.35-4.38S41.73,9.87,41,12.29Z"/><line class="cls-2" x1="28.02" y1="15.33" x2="39.84" y2="9.31"/><line class="cls-2" x1="38.44" y1="62.18" x2="67.27" y2="9.28"/></g></g></g></svg>