<svg xmlns="http://www.w3.org/2000/svg" viewBox="0 0 64.26 52.42"><defs><style>.cls-1{fill:none;stroke:#e9e9e9;stroke-width:0.4px;}.cls-2{fill:#191919;}.cls-3{fill:#e9e9e9;}</style></defs><title>c107</title><g id="Layer_2" data-name="Layer 2"><g id="Layer_1-2" data-name="Layer 1"><g id="c107"><line class="cls-1" x1="15.02" y1="47.39" x2="49.38" y2="32.9"/><polyline class="cls-1" points="5.61 13.33 15.39 46.81 22.09 5.61 49.38 32.91 58.66 13.85"/><path class="cls-2" d="M11,13.33a5.41,5.41,0,1,1-5.41-5.4A5.41,5.41,0,0,1,11,13.33"/><path class="cls-1" d="M11,13.33a5.41,5.41,0,1,1-5.41-5.4A5.41,5.41,0,0,1,11,13.33Z"/><path class="cls-3" d="M27.5,5.61A5.41,5.41,0,1,1,22.09.2,5.41,5.41,0,0,1,27.5,5.61"/><path class="cls-1" d="M27.5,5.61A5.41,5.41,0,1,1,22.09.2,5.41,5.41,0,0,1,27.5,5.61Z"/><path class="cls-2" d="M20.8,46.81a5.41,5.41,0,1,1-5.41-5.41,5.41,5.41,0,0,1,5.41,5.41"/><path class="cls-1" d="M20.8,46.81a5.41,5.41,0,1,1-5.41-5.41A5.41,5.41,0,0,1,20.8,46.81Z"/><path class="cls-2" d="M54.79,32.9a5.41,5.41,0,1,1-5.41-5.4,5.41,5.41,0,0,1,5.41,5.4"/><path class="cls-1" d="M54.79,32.9a5.41,5.41,0,1,1-5.41-5.4A5.41,5.41,0,0,1,54.79,32.9Z"/><path class="cls-2" d="M64.06,13.85a5.41,5.41,0,1,1-5.4-5.41,5.41,5.41,0,0,1,5.4,5.41"/><path class="cls-1" d="M64.06,13.85a5.41,5.41,0,1,1-5.4-5.41A5.41,5.41,0,0,1,64.06,13.85Z"/></g></g></g></svg>