<svg xmlns="http://www.w3.org/2000/svg" viewBox="0 0 36.44 36.44"><defs><style>.cls-1{fill:none;stroke:#e9e9e9;stroke-width:0.44px;}</style></defs><title>c121</title><g id="Layer_2" data-name="Layer 2"><g id="Layer_1-2" data-name="Layer 1"><g id="c121"><rect class="cls-1" x="0.22" y="0.22" width="36" height="36"/><path class="cls-1" d="M22.37,16.2H8v4.12H22.38a13.44,13.44,0,0,0-.73,3.56,17.88,17.88,0,0,1,6.86-5.62,16.85,16.85,0,0,1-6.86-5.62A11.45,11.45,0,0,0,22.37,16.2Z"/><path class="cls-1" d="M14.1,9H28.51V4.85H14.09a13.44,13.44,0,0,0,.73-3.56A17.88,17.88,0,0,1,8,6.91a16.85,16.85,0,0,1,6.86,5.62A11.45,11.45,0,0,0,14.1,9Z"/><path class="cls-1" d="M14.1,31.68H28.51V27.55H14.09A13.36,13.36,0,0,0,14.82,24,17.7,17.7,0,0,1,8,29.61a16.93,16.93,0,0,1,6.86,5.62A11.33,11.33,0,0,0,14.1,31.68Z"/></g></g></g></svg>