<svg xmlns="http://www.w3.org/2000/svg" viewBox="0 0 86.9 86.89"><defs><style>.cls-1{fill:#191919;}.cls-2{fill:none;stroke:#e9e9e9;stroke-width:0.44px;}.cls-3{fill:#e9e9e9;}</style></defs><title>c140</title><g id="Layer_2" data-name="Layer 2"><g id="Layer_1-2" data-name="Layer 1"><g id="c140"><rect class="cls-1" x="43.45" y="0.22" width="43.23" height="43.23"/><rect class="cls-2" x="43.45" y="0.22" width="43.23" height="43.23"/><path class="cls-1" d="M81.34,21.83A16.28,16.28,0,1,1,65.06,5.55,16.28,16.28,0,0,1,81.34,21.83"/><path class="cls-2" d="M81.34,21.83A16.28,16.28,0,1,1,65.06,5.55,16.28,16.28,0,0,1,81.34,21.83Z"/><line class="cls-1" x1="65.06" y1="5.55" x2="65.06" y2="38.12"/><line class="cls-2" x1="65.06" y1="5.55" x2="65.06" y2="38.12"/><line class="cls-1" x1="48.78" y1="21.83" x2="81.34" y2="21.83"/><line class="cls-2" x1="48.78" y1="21.83" x2="81.34" y2="21.83"/><rect class="cls-1" x="0.22" y="0.22" width="43.23" height="43.23"/><rect class="cls-2" x="0.22" y="0.22" width="43.23" height="43.23"/><polyline class="cls-1" points="10.33 31.79 21.84 11.87 33.34 31.79 10.33 31.79"/><polygon class="cls-2" points="10.33 31.79 21.84 11.87 33.34 31.79 10.33 31.79"/><rect class="cls-1" x="0.22" y="43.45" width="43.23" height="43.23"/><rect class="cls-2" x="0.22" y="43.45" width="43.23" height="43.23"/><path class="cls-1" d="M31.9,65.06A10.07,10.07,0,1,1,21.83,55,10.07,10.07,0,0,1,31.9,65.06"/><path class="cls-2" d="M31.9,65.06A10.07,10.07,0,1,1,21.83,55,10.07,10.07,0,0,1,31.9,65.06Z"/><path class="cls-3" d="M27.76,65.06a5.93,5.93,0,1,1-5.93-5.92,5.92,5.92,0,0,1,5.93,5.92"/></g></g></g></svg>