<svg xmlns="http://www.w3.org/2000/svg" viewBox="0 0 61.47 61.47"><defs><style>.cls-1{fill:none;stroke:#e5e5e5;stroke-width:0.5px;}.cls-2{fill:#191919;}.cls-3{fill:#e5e5e5;}</style></defs><title>c201</title><g id="Layer_2" data-name="Layer 2"><g id="Layer_1-2" data-name="Layer 1"><g id="c201"><polyline class="cls-1" points="5.21 5.21 5.21 56.25 56.25 56.25"/><path class="cls-2" d="M10.18,56.25a5,5,0,1,1-5-5,5,5,0,0,1,5,5"/><circle class="cls-1" cx="5.21" cy="56.25" r="4.97" transform="translate(-51.15 52.39) rotate(-80.78)"/><path class="cls-2" d="M27.2,56.25a5,5,0,1,1-5-5,5,5,0,0,1,5,5"/><path class="cls-1" d="M27.2,56.25a5,5,0,1,1-5-5A5,5,0,0,1,27.2,56.25Z"/><path class="cls-2" d="M44.21,56.25a5,5,0,1,1-5-5,5,5,0,0,1,5,5"/><path class="cls-1" d="M44.21,56.25a5,5,0,1,1-5-5A5,5,0,0,1,44.21,56.25Z"/><path class="cls-3" d="M61.22,56.25a5,5,0,1,1-5-5,5,5,0,0,1,5,5"/><path class="cls-1" d="M61.22,56.25a5,5,0,1,1-5-5A5,5,0,0,1,61.22,56.25Z"/><path class="cls-2" d="M10.18,39.23a5,5,0,1,1-5-5,5,5,0,0,1,5,5"/><path class="cls-1" d="M10.18,39.23a5,5,0,1,1-5-5A5,5,0,0,1,10.18,39.23Z"/><path class="cls-2" d="M10.18,22.22a5,5,0,1,1-5-5,5,5,0,0,1,5,5"/><path class="cls-1" d="M10.18,22.22a5,5,0,1,1-5-5A5,5,0,0,1,10.18,22.22Z"/><path class="cls-3" d="M10.18,5.21a5,5,0,1,1-5-5,5,5,0,0,1,5,5"/><circle class="cls-1" cx="5.21" cy="5.21" r="4.96"/></g></g></g></svg>