<svg xmlns="http://www.w3.org/2000/svg" viewBox="0 0 41.48 61.96"><defs><style>.cls-1{fill:none;stroke:#e5e5e5;stroke-width:0.5px;}.cls-2{fill:#e5e5e5;}</style></defs><title>c203</title><g id="Layer_2" data-name="Layer 2"><g id="Layer_1-2" data-name="Layer 1"><g id="c203"><rect class="cls-1" x="20.74" y="41.22" width="20.49" height="20.49"/><rect class="cls-1" x="0.25" y="20.74" width="20.49" height="20.49"/><rect class="cls-1" x="20.74" y="0.25" width="20.49" height="20.49"/><path class="cls-2" d="M27.85,9.15h0l-1.13.61-.17-.67L28,8.33h.75v6.5h-.85Z"/><path class="cls-2" d="M31,13.18a1.86,1.86,0,0,1,1.29-1.74v0a1.61,1.61,0,0,1-1-1.46,1.82,1.82,0,0,1,2-1.73,1.68,1.68,0,0,1,1.89,1.6,1.65,1.65,0,0,1-1.07,1.52v0a1.8,1.8,0,0,1,1.31,1.68,2,2,0,0,1-2.21,1.89C31.81,14.94,31,14.13,31,13.18Zm3.5,0c0-.79-.55-1.17-1.43-1.42a1.41,1.41,0,0,0-1.17,1.34,1.2,1.2,0,0,0,1.3,1.24A1.18,1.18,0,0,0,34.49,13.14ZM32.07,9.89c0,.65.49,1,1.24,1.2a1.28,1.28,0,0,0,1-1.18,1,1,0,0,0-1.1-1.06A1,1,0,0,0,32.07,9.89Z"/><path class="cls-2" d="M7.36,29.64h0l-1.13.61L6,29.58l1.42-.76h.75v6.5H7.36Z"/><path class="cls-2" d="M14.8,28.82v.58L12,35.32h-.91l2.82-5.75v0H10.7v-.73Z"/><path class="cls-2" d="M27.85,50.13h0l-1.13.61-.17-.67L28,49.31h.75V55.8h-.85Z"/><path class="cls-2" d="M31,54.15a1.86,1.86,0,0,1,1.29-1.74v0a1.6,1.6,0,0,1-1-1.45,1.82,1.82,0,0,1,2-1.73,1.68,1.68,0,0,1,1.89,1.6,1.63,1.63,0,0,1-1.07,1.51v0A1.8,1.8,0,0,1,35.38,54a2,2,0,0,1-2.21,1.89C31.81,55.91,31,55.1,31,54.15Zm3.5,0c0-.79-.55-1.17-1.43-1.42A1.41,1.41,0,0,0,31.89,54a1.2,1.2,0,0,0,1.3,1.24A1.18,1.18,0,0,0,34.49,54.11Zm-2.42-3.24c0,.65.49,1,1.24,1.2a1.28,1.28,0,0,0,1-1.18,1,1,0,0,0-1.1-1.06A1,1,0,0,0,32.07,50.87Z"/></g></g></g></svg>