<svg xmlns="http://www.w3.org/2000/svg" viewBox="0 0 65.52 60.36"><defs><style>.cls-1{fill:none;stroke:#e5e5e5;stroke-width:0.41px;}.cls-2{fill:#191919;}</style></defs><title>c216</title><g id="Layer_2" data-name="Layer 2"><g id="Layer_1-2" data-name="Layer 1"><g id="c216"><line class="cls-1" x1="0.59" y1="14.77" x2="64.94" y2="8.95"/><line class="cls-1" x1="28.42" y1="0.22" x2="37.1" y2="23.5"/><line class="cls-1" x1="52.06" y1="52.56" x2="52.06" y2="16.01"/><line class="cls-1" x1="52.32" y1="33.87" x2="37.43" y2="41.76"/><polygon class="cls-1" points="37.1 23.5 64.94 8.96 64.94 45.47 37.1 60.02 37.1 23.5"/><polygon class="cls-1" points="37.1 23.5 0.59 14.77 28.42 0.22 64.94 8.96 37.1 23.5"/><polygon class="cls-1" points="37.1 47.59 0.59 38.85 0.59 28.46 37.1 37.19 37.1 47.59"/><polygon class="cls-1" points="37.1 60.02 0.59 51.28 0.59 14.77 37.1 23.5 37.1 60.02"/><path class="cls-2" d="M40.84,11.86c-.79,2.75-5,5-9.5,5s-7.44-2.23-6.66-5,5.05-5,9.51-5,7.44,2.23,6.65,5"/><path class="cls-1" d="M40.84,11.86c-.79,2.75-5,5-9.5,5s-7.44-2.23-6.66-5,5.05-5,9.51-5S41.63,9.11,40.84,11.86Z"/></g></g></g></svg>