<svg xmlns="http://www.w3.org/2000/svg" viewBox="0 0 23.21 23.21"><defs><style>.cls-1{fill:#191919;}.cls-2{fill:none;stroke:#e5e5e5;stroke-width:0.45px;}</style></defs><title>c221</title><g id="Layer_2" data-name="Layer 2"><g id="Layer_1-2" data-name="Layer 1"><g id="c221"><path class="cls-1" d="M17.06.57a3.85,3.85,0,0,1-1.14,2.91,3.85,3.85,0,0,1-3,1.13,3.9,3.9,0,0,1-1.13,2.92,3.86,3.86,0,0,1-3,1.12,3.88,3.88,0,0,1-4.12,4,3.84,3.84,0,0,1-1.13,2.91,3.87,3.87,0,0,1-3,1.13l5.89,5.89a3.86,3.86,0,0,1,4-4.12,3.88,3.88,0,0,1,4-4.12,3.88,3.88,0,0,1,4.05-4.12,3.86,3.86,0,0,1,4-4.12L17.06.57"/><path id="c221-2" data-name="c221" class="cls-2" d="M18.67,10.35,12.86,4.53m1.73,9.9L8.78,8.61m1.73,9.9L4.7,12.7M17.06.57a3.85,3.85,0,0,1-1.14,2.91,3.85,3.85,0,0,1-3,1.13,3.9,3.9,0,0,1-1.13,2.92,3.86,3.86,0,0,1-3,1.12,3.88,3.88,0,0,1-4.12,4,3.84,3.84,0,0,1-1.13,2.91,3.87,3.87,0,0,1-3,1.13l5.89,5.89a3.86,3.86,0,0,1,4-4.12,3.88,3.88,0,0,1,4-4.12,3.88,3.88,0,0,1,4.05-4.12,3.86,3.86,0,0,1,4-4.12Z"/></g></g></g></svg>