<svg xmlns="http://www.w3.org/2000/svg" viewBox="0 0 73.97 73.97"><defs><style>.cls-1{fill:#191919;}.cls-2{fill:none;stroke:#e5e5e5;stroke-width:0.38px;}.cls-3{fill:#e5e5e5;}</style></defs><title>c237</title><g id="Layer_2" data-name="Layer 2"><g id="Layer_1-2" data-name="Layer 1"><g id="c237"><rect class="cls-1" x="0.19" y="0.19" width="36.8" height="36.8"/><rect class="cls-2" x="0.19" y="0.19" width="36.8" height="36.8"/><line class="cls-1" x1="0.19" y1="18.59" x2="36.99" y2="18.59"/><line class="cls-2" x1="0.19" y1="18.59" x2="36.99" y2="18.59"/><path class="cls-3" d="M25.39,18.59a6.81,6.81,0,1,1-6.8-6.81,6.79,6.79,0,0,1,6.8,6.81"/><path class="cls-2" d="M25.39,18.59a6.81,6.81,0,1,1-6.8-6.81A6.79,6.79,0,0,1,25.39,18.59Z"/><rect class="cls-1" x="0.19" y="36.99" width="36.8" height="36.8"/><rect class="cls-2" x="0.19" y="36.99" width="36.8" height="36.8"/><path class="cls-1" d="M25.39,55.38a6.81,6.81,0,1,1-6.8-6.8,6.8,6.8,0,0,1,6.8,6.8"/><path class="cls-2" d="M25.39,55.38a6.81,6.81,0,1,1-6.8-6.8A6.8,6.8,0,0,1,25.39,55.38Z"/><rect class="cls-1" x="36.99" y="0.19" width="36.8" height="36.8"/><rect class="cls-2" x="36.99" y="0.19" width="36.8" height="36.8"/><line class="cls-1" x1="36.99" y1="18.59" x2="73.78" y2="18.59"/><line class="cls-2" x1="36.99" y1="18.59" x2="73.78" y2="18.59"/><path class="cls-1" d="M62.19,18.59a6.81,6.81,0,1,1-6.81-6.81,6.8,6.8,0,0,1,6.81,6.81"/><circle class="cls-2" cx="55.38" cy="18.59" r="6.8"/></g></g></g></svg>