<svg xmlns="http://www.w3.org/2000/svg" viewBox="0 0 62.31 57.4"><defs><style>.cls-1{fill:#e5e5e5;}.cls-2{fill:none;stroke:#e5e5e5;stroke-width:0.4px;}.cls-3{fill:#191919;}</style></defs><title>c240</title><g id="Layer_2" data-name="Layer 2"><g id="Layer_1-2" data-name="Layer 1"><g id="c240"><path class="cls-1" d="M21.15,35.37a4.94,4.94,0,1,1-4.94-4.94,4.94,4.94,0,0,1,4.94,4.94"/><path class="cls-2" d="M21.15,35.37a4.94,4.94,0,1,1-4.94-4.94A4.94,4.94,0,0,1,21.15,35.37Z"/><polygon class="cls-2" points="35.28 22.35 61.75 8.52 61.75 43.24 35.28 57.07 35.28 22.35"/><polygon class="cls-2" points="35.28 22.35 0.56 14.04 27.03 0.21 61.75 8.52 35.28 22.35"/><polygon class="cls-2" points="35.28 57.07 0.56 48.77 0.56 14.04 35.28 22.35 35.28 57.07"/><path class="cls-1" d="M40.54,11.28c-.95,3.31-6.07,6-11.43,6s-8.95-2.68-8-6,6.06-6,11.42-6,9,2.68,8,6"/><path class="cls-2" d="M40.54,11.28c-.95,3.31-6.07,6-11.43,6s-8.95-2.68-8-6,6.06-6,11.42-6S41.49,8,40.54,11.28Z"/><path class="cls-3" d="M37.34,11.28c-.64,2.22-4.07,4-7.67,4s-6-1.8-5.36-4,4.06-4,7.66-4,6,1.8,5.37,4"/><path class="cls-2" d="M37.34,11.28c-.64,2.22-4.07,4-7.67,4s-6-1.8-5.36-4,4.06-4,7.66-4S38,9.06,37.34,11.28Z"/><path class="cls-2" d="M41.05,35.92a7.44,7.44,0,0,0,10.06,4.57A8.85,8.85,0,0,0,56,29.67,7.45,7.45,0,0,0,45.93,25.1,8.85,8.85,0,0,0,41.05,35.92Z"/><path class="cls-2" d="M44,34.7a4.55,4.55,0,0,0,6.14,2.79,5.39,5.39,0,0,0,3-6.6,4.52,4.52,0,0,0-6.13-2.78A5.38,5.38,0,0,0,44,34.7Z"/></g></g></g></svg>