<svg xmlns="http://www.w3.org/2000/svg" viewBox="0 0 51.9 48.37"><defs><style>.cls-1{fill:none;stroke:#e9e9e9;stroke-width:0.4px;}.cls-2{fill:#191919;}.cls-3{fill:#e9e9e9;}</style></defs><title>d107</title><g id="Layer_2" data-name="Layer 2"><g id="Layer_1-2" data-name="Layer 1"><g id="d107"><line class="cls-1" x1="8.7" y1="26.28" x2="27.76" y2="25.77"/><polygon class="cls-1" points="5.61 42.76 8.7 26.28 27.53 5.61 46.3 13.92 27.75 25.77 5.61 42.76"/><path class="cls-2" d="M11,42.76a5.41,5.41,0,1,1-5.41-5.41A5.41,5.41,0,0,1,11,42.76"/><path class="cls-1" d="M11,42.76a5.41,5.41,0,1,1-5.41-5.41A5.41,5.41,0,0,1,11,42.76Z"/><path class="cls-2" d="M14.11,26.28A5.41,5.41,0,1,1,8.7,20.87a5.41,5.41,0,0,1,5.41,5.41"/><path class="cls-1" d="M14.11,26.28A5.41,5.41,0,1,1,8.7,20.87,5.41,5.41,0,0,1,14.11,26.28Z"/><path class="cls-3" d="M33.16,25.77a5.41,5.41,0,1,1-5.4-5.41,5.4,5.4,0,0,1,5.4,5.41"/><path class="cls-1" d="M33.16,25.77a5.41,5.41,0,1,1-5.4-5.41A5.4,5.4,0,0,1,33.16,25.77Z"/><path class="cls-2" d="M51.7,13.92a5.41,5.41,0,1,1-5.4-5.41,5.41,5.41,0,0,1,5.4,5.41"/><path class="cls-1" d="M51.7,13.92a5.41,5.41,0,1,1-5.4-5.41A5.41,5.41,0,0,1,51.7,13.92Z"/><path class="cls-2" d="M32.93,5.61A5.41,5.41,0,1,1,27.53.2a5.41,5.41,0,0,1,5.4,5.41"/><circle class="cls-1" cx="27.53" cy="5.61" r="5.41"/></g></g></g></svg>