<svg xmlns="http://www.w3.org/2000/svg" viewBox="0 0 86.9 86.89"><defs><style>.cls-1{fill:#191919;}.cls-2{fill:none;stroke:#e9e9e9;stroke-width:0.44px;}.cls-3{fill:#e9e9e9;}</style></defs><title>d140</title><g id="Layer_2" data-name="Layer 2"><g id="Layer_1-2" data-name="Layer 1"><g id="d140"><rect class="cls-1" x="0.22" y="43.45" width="43.23" height="43.23"/><rect class="cls-2" x="0.22" y="43.45" width="43.23" height="43.23"/><rect class="cls-1" x="9.1" y="52.33" width="25.46" height="25.46"/><rect class="cls-2" x="9.1" y="52.33" width="25.46" height="25.46"/><rect class="cls-1" x="0.22" y="0.22" width="43.23" height="43.23"/><rect class="cls-2" x="0.22" y="0.22" width="43.23" height="43.23"/><polyline class="cls-1" points="10.33 31.79 21.83 11.87 33.34 31.79 10.33 31.79"/><polygon class="cls-2" points="10.33 31.79 21.83 11.87 33.34 31.79 10.33 31.79"/><rect class="cls-1" x="43.45" y="0.22" width="43.23" height="43.23"/><rect class="cls-2" x="43.45" y="0.22" width="43.23" height="43.23"/><path class="cls-1" d="M75.13,21.83A10.07,10.07,0,1,1,65.06,11.77,10.07,10.07,0,0,1,75.13,21.83"/><path class="cls-2" d="M75.13,21.83A10.07,10.07,0,1,1,65.06,11.77,10.07,10.07,0,0,1,75.13,21.83Z"/><path class="cls-3" d="M71,21.83a5.92,5.92,0,1,1-5.92-5.92A5.92,5.92,0,0,1,71,21.83"/></g></g></g></svg>