<svg xmlns="http://www.w3.org/2000/svg" viewBox="0 0 41.47 61.96"><defs><style>.cls-1{fill:none;stroke:#e5e5e5;stroke-width:0.5px;}.cls-2{fill:#e5e5e5;}</style></defs><title>d203</title><g id="Layer_2" data-name="Layer 2"><g id="Layer_1-2" data-name="Layer 1"><g id="d203"><rect class="cls-1" x="20.74" y="41.22" width="20.49" height="20.49"/><rect class="cls-1" x="0.25" y="20.74" width="20.49" height="20.49"/><rect class="cls-1" x="20.74" y="0.25" width="20.49" height="20.49"/><path class="cls-2" d="M27.85,9.15h0l-1.13.61-.17-.67L28,8.33h.75v6.5h-.85Z"/><path class="cls-2" d="M31.58,14.21a3.67,3.67,0,0,0,.71,0,2.45,2.45,0,0,0,1.36-.63,2.85,2.85,0,0,0,.86-1.73h0a1.91,1.91,0,0,1-1.53.7,1.88,1.88,0,0,1-1.92-2,2.23,2.23,0,0,1,2.22-2.31c1.33,0,2.15,1.08,2.15,2.74a4.11,4.11,0,0,1-1.12,3,3.25,3.25,0,0,1-1.89.87,4.1,4.1,0,0,1-.81,0Zm.32-3.74a1.25,1.25,0,0,0,1.25,1.38,1.45,1.45,0,0,0,1.28-.68.58.58,0,0,0,.08-.32c0-1.11-.41-2-1.33-2C32.43,8.89,31.9,9.55,31.9,10.47Z"/><path class="cls-2" d="M7.36,29.64h0l-1.13.61L6,29.58l1.42-.76h.75v6.5H7.36Z"/><path class="cls-2" d="M14.8,28.82v.58L12,35.32h-.91l2.82-5.75v0H10.7v-.73Z"/><path class="cls-2" d="M27.85,50.13h0l-1.13.61-.17-.67L28,49.31h.75V55.8h-.85Z"/><path class="cls-2" d="M35.29,49.31v.58L32.46,55.8h-.91l2.82-5.74v0H31.19v-.73Z"/></g></g></g></svg>