<svg xmlns="http://www.w3.org/2000/svg" viewBox="0 0 9.51 23.54"><defs><style>.cls-1{fill:#191919;}.cls-2{fill:none;stroke:#e5e5e5;stroke-width:0.45px;}</style></defs><title>d221</title><g id="Layer_2" data-name="Layer 2"><g id="Layer_1-2" data-name="Layer 1"><g id="d221"><path class="cls-1" d="M.81.22A3.89,3.89,0,0,1,2.07,3.09,3.86,3.86,0,0,1,.75,6,3.83,3.83,0,0,1,2,8.86,3.86,3.86,0,0,1,.7,11.77,3.85,3.85,0,0,1,2,14.63,3.88,3.88,0,0,1,.65,17.54,3.89,3.89,0,0,1,1.91,20.4,3.86,3.86,0,0,1,.59,23.31H8.92a3.86,3.86,0,0,1-.05-5.77,3.87,3.87,0,0,1-.06-5.77A3.88,3.88,0,0,1,8.76,6,3.88,3.88,0,0,1,8.7.22H.81"/><path id="d221-2" data-name="d221" class="cls-2" d="M8.87,6H.64m8.23,5.77H.65m8.22,5.77H.65M.81.22A3.89,3.89,0,0,1,2.07,3.09,3.86,3.86,0,0,1,.75,6,3.83,3.83,0,0,1,2,8.86,3.86,3.86,0,0,1,.7,11.77,3.85,3.85,0,0,1,2,14.63,3.88,3.88,0,0,1,.65,17.54,3.89,3.89,0,0,1,1.91,20.4,3.86,3.86,0,0,1,.59,23.31H8.92a3.86,3.86,0,0,1-.05-5.77,3.87,3.87,0,0,1-.06-5.77A3.88,3.88,0,0,1,8.76,6,3.88,3.88,0,0,1,8.7.22Z"/></g></g></g></svg>