<svg xmlns="http://www.w3.org/2000/svg" viewBox="0 0 62.31 57.4"><defs><style>.cls-1{fill:none;stroke:#e5e5e5;stroke-width:0.4px;}.cls-2{fill:#191919;}.cls-3{fill:#e5e5e5;}</style></defs><title>d240</title><g id="Layer_2" data-name="Layer 2"><g id="Layer_1-2" data-name="Layer 1"><g id="d240"><path class="cls-1" d="M25,35.9a8.1,8.1,0,1,1-8.09-8.1A8.09,8.09,0,0,1,25,35.9Z"/><path class="cls-1" d="M21.8,35.9A4.94,4.94,0,1,1,16.87,31,4.93,4.93,0,0,1,21.8,35.9Z"/><polygon class="cls-1" points="35.28 22.35 61.75 8.52 61.75 43.24 35.28 57.08 35.28 22.35"/><polygon class="cls-1" points="35.28 22.35 0.56 14.04 27.03 0.21 61.75 8.52 35.28 22.35"/><polygon class="cls-1" points="35.28 57.08 0.56 48.77 0.56 14.04 35.28 22.35 35.28 57.08"/><path class="cls-2" d="M40.87,11.28c-.94,3.31-6.06,6-11.43,6s-9-2.69-8-6,6.06-6,11.43-6,9,2.68,8,6"/><path class="cls-1" d="M40.87,11.28c-.94,3.31-6.06,6-11.43,6s-9-2.69-8-6,6.06-6,11.43-6S41.82,8,40.87,11.28Z"/><path class="cls-3" d="M37.63,12c-.89,2.13-4.51,3.52-8.08,3.1s-5.75-2.48-4.86-4.62,4.5-3.52,8.07-3.1S38.52,9.91,37.63,12"/><path class="cls-1" d="M37.63,12c-.89,2.13-4.51,3.52-8.08,3.1s-5.75-2.48-4.86-4.62,4.5-3.52,8.07-3.1S38.52,9.91,37.63,12Z"/><path class="cls-1" d="M44,34.7a4.55,4.55,0,0,0,6.14,2.79,5.39,5.39,0,0,0,3-6.6,4.53,4.53,0,0,0-6.13-2.79A5.4,5.4,0,0,0,44,34.7Z"/></g></g></g></svg>