<svg xmlns="http://www.w3.org/2000/svg" viewBox="0 0 90.02 57.05"><defs><style>.cls-1{fill:none;stroke:#e9e9e9;stroke-width:0.4px;}.cls-2{fill:#e9e9e9;}.cls-3{fill:#191919;}</style></defs><title>e107</title><g id="Layer_2" data-name="Layer 2"><g id="Layer_1-2" data-name="Layer 1"><g id="e107"><polyline class="cls-1" points="84.41 16.43 38.57 31.88 5.61 51.45"/><polygon class="cls-1" points="5.61 51.45 35.48 5.61 38.57 31.88 81.32 45.27 5.61 51.45"/><path class="cls-2" d="M11,51.44A5.41,5.41,0,1,1,5.61,46,5.41,5.41,0,0,1,11,51.44"/><path class="cls-1" d="M11,51.44A5.41,5.41,0,1,1,5.61,46,5.41,5.41,0,0,1,11,51.44Z"/><path class="cls-3" d="M40.89,5.61A5.41,5.41,0,1,1,35.48.2a5.41,5.41,0,0,1,5.41,5.41"/><path class="cls-1" d="M40.89,5.61A5.41,5.41,0,1,1,35.48.2,5.41,5.41,0,0,1,40.89,5.61Z"/><path class="cls-3" d="M44,31.88a5.41,5.41,0,1,1-5.41-5.41A5.41,5.41,0,0,1,44,31.88"/><path class="cls-1" d="M44,31.88a5.41,5.41,0,1,1-5.41-5.41A5.41,5.41,0,0,1,44,31.88Z"/><path class="cls-3" d="M86.72,45.27a5.41,5.41,0,1,1-5.4-5.41,5.4,5.4,0,0,1,5.4,5.41"/><path class="cls-1" d="M86.72,45.27a5.41,5.41,0,1,1-5.4-5.41A5.4,5.4,0,0,1,86.72,45.27Z"/><path class="cls-3" d="M89.81,16.42a5.41,5.41,0,1,1-5.4-5.4,5.41,5.41,0,0,1,5.4,5.4"/><circle class="cls-1" cx="84.41" cy="16.42" r="5.41"/></g></g></g></svg>