<svg xmlns="http://www.w3.org/2000/svg" viewBox="0 0 36.44 36.44"><defs><style>.cls-1{fill:none;stroke:#e9e9e9;stroke-width:0.44px;}</style></defs><title>e121</title><g id="Layer_2" data-name="Layer 2"><g id="Layer_1-2" data-name="Layer 1"><g id="e121"><rect class="cls-1" x="0.22" y="0.22" width="36" height="36"/><path class="cls-1" d="M14.1,20.32H28.51V16.2H14.09a13.36,13.36,0,0,0,.73-3.56A17.77,17.77,0,0,1,8,18.26a16.93,16.93,0,0,1,6.86,5.62A11.45,11.45,0,0,0,14.1,20.32Z"/><path class="cls-1" d="M22.37,27.55H8v4.12H22.38a13.44,13.44,0,0,0-.73,3.56,17.88,17.88,0,0,1,6.86-5.62A16.85,16.85,0,0,1,21.65,24,11.39,11.39,0,0,0,22.37,27.55Z"/><path class="cls-1" d="M22.37,4.85H8V9H22.38a13.44,13.44,0,0,0-.73,3.56,17.79,17.79,0,0,1,6.86-5.62,16.93,16.93,0,0,1-6.86-5.62A11.45,11.45,0,0,0,22.37,4.85Z"/></g></g></g></svg>