<svg xmlns="http://www.w3.org/2000/svg" viewBox="0 0 31.97 31.97"><defs><style>.cls-1{fill:none;stroke:#e5e5e5;stroke-width:0.5px;}.cls-2{fill:#e5e5e5;}.cls-3{fill:#191919;}</style></defs><title>e220</title><g id="Layer_2" data-name="Layer 2"><g id="Layer_1-2" data-name="Layer 1"><g id="e220"><rect class="cls-1" x="0.25" y="0.25" width="31.47" height="31.47"/><path class="cls-2" d="M13.58,6.43a2.9,2.9,0,1,1-2.89-2.9,2.89,2.89,0,0,1,2.89,2.9"/><path class="cls-1" d="M13.58,6.43a2.9,2.9,0,1,1-2.89-2.9A2.89,2.89,0,0,1,13.58,6.43Z"/><path class="cls-3" d="M9.08,14.93A2.9,2.9,0,1,1,6.19,12a2.89,2.89,0,0,1,2.89,2.9"/><path class="cls-1" d="M9.08,14.93A2.9,2.9,0,1,1,6.19,12,2.89,2.89,0,0,1,9.08,14.93Z"/><path class="cls-2" d="M12.08,24.93A2.9,2.9,0,1,1,9.19,22a2.89,2.89,0,0,1,2.89,2.9"/><path class="cls-1" d="M12.08,24.93A2.9,2.9,0,1,1,9.19,22,2.89,2.89,0,0,1,12.08,24.93Z"/><path class="cls-2" d="M27.08,8.93A2.9,2.9,0,1,1,24.19,6a2.89,2.89,0,0,1,2.89,2.9"/><path class="cls-1" d="M27.08,8.93A2.9,2.9,0,1,1,24.19,6,2.89,2.89,0,0,1,27.08,8.93Z"/><path class="cls-3" d="M25.08,21.93A2.9,2.9,0,1,1,22.19,19a2.9,2.9,0,0,1,2.89,2.9"/><path class="cls-1" d="M25.08,21.93A2.9,2.9,0,1,1,22.19,19,2.9,2.9,0,0,1,25.08,21.93Z"/></g></g></g></svg>