<svg xmlns="http://www.w3.org/2000/svg" viewBox="0 0 23.54 9.52"><defs><style>.cls-1{fill:#e5e5e5;}.cls-2{fill:none;stroke:#e5e5e5;stroke-width:0.45px;}</style></defs><title>e221</title><g id="Layer_2" data-name="Layer 2"><g id="Layer_1-2" data-name="Layer 1"><g id="e221"><path class="cls-1" d="M.22,8.71A3.87,3.87,0,0,1,6,8.76a3.88,3.88,0,0,1,5.77.05,3.87,3.87,0,0,1,5.77.06,3.86,3.86,0,0,1,5.77.05V.59A3.86,3.86,0,0,1,20.4,1.91,3.89,3.89,0,0,1,17.54.65,3.86,3.86,0,0,1,14.63,2,3.86,3.86,0,0,1,11.77.7,3.86,3.86,0,0,1,8.86,2,3.85,3.85,0,0,1,6,.76,3.89,3.89,0,0,1,3.08,2.07,3.85,3.85,0,0,1,.22.81v7.9"/><path id="e221-2" data-name="e221" class="cls-2" d="M.22,8.71A3.87,3.87,0,0,1,6,8.76a3.88,3.88,0,0,1,5.77.05,3.87,3.87,0,0,1,5.77.06,3.86,3.86,0,0,1,5.77.05V.59A3.86,3.86,0,0,1,20.4,1.91,3.89,3.89,0,0,1,17.54.65,3.86,3.86,0,0,1,14.63,2,3.86,3.86,0,0,1,11.77.7,3.86,3.86,0,0,1,8.86,2,3.85,3.85,0,0,1,6,.76,3.89,3.89,0,0,1,3.08,2.07,3.85,3.85,0,0,1,.22.81Z"/></g></g></g></svg>