<svg xmlns="http://www.w3.org/2000/svg" viewBox="0 0 40.9 43.9"><defs><style>.cls-1{fill:none;stroke:#e5e5e5;stroke-width:0.4px;}.cls-2{fill:#e5e5e5;}</style></defs><title>e226</title><g id="Layer_2" data-name="Layer 2"><g id="Layer_1-2" data-name="Layer 1"><g id="e226"><path class="cls-1" d="M30.71,13.53a1.44,1.44,0,1,1-1.43-1.43A1.44,1.44,0,0,1,30.71,13.53Z"/><polygon class="cls-1" points="17.32 36.02 20.42 30.66 23.51 36.02 17.32 36.02"/><path class="cls-1" d="M24.71,34.06a4.3,4.3,0,1,1-4.29-4.3A4.29,4.29,0,0,1,24.71,34.06Z"/><path class="cls-1" d="M40.58.39a15.88,15.88,0,0,1-10,3.76A15.72,15.72,0,0,1,20.44.5a15.71,15.71,0,0,1-10,3.55A15.63,15.63,0,0,1,.33.39s-3,26.71,20.12,43.26C43.56,27.1,40.58.39,40.58.39Z"/><path class="cls-2" d="M14.13,13.14a2.37,2.37,0,1,1-2.37-2.37,2.36,2.36,0,0,1,2.37,2.37"/><rect class="cls-1" x="5.26" y="6.63" width="13.01" height="13.01"/><polygon class="cls-1" points="34.11 10.4 29.28 18.76 24.45 10.4 34.11 10.4"/><path class="cls-1" d="M14.13,13.14a2.37,2.37,0,1,1-2.37-2.37A2.36,2.36,0,0,1,14.13,13.14Z"/></g></g></g></svg>