<svg xmlns="http://www.w3.org/2000/svg" viewBox="0 0 120.64 120.64"><defs><style>.cls-1{fill:none;stroke:#e9e9e9;stroke-width:0.49px;}.cls-2{fill:#191919;}.cls-3{fill:#e9e9e9;}</style></defs><title>s115</title><g id="Layer_2" data-name="Layer 2"><g id="Layer_1-2" data-name="Layer 1"><g id="s115"><rect class="cls-1" x="0.24" y="0.24" width="40.05" height="40.05"/><path class="cls-2" d="M36.19,20.27A15.92,15.92,0,1,1,20.27,4.35,15.92,15.92,0,0,1,36.19,20.27"/><path class="cls-1" d="M36.19,20.27A15.92,15.92,0,1,1,20.27,4.35,15.92,15.92,0,0,1,36.19,20.27Z"/><path class="cls-3" d="M31.3,20.27a11,11,0,1,1-11-11,11,11,0,0,1,11,11"/><path class="cls-1" d="M31.3,20.27a11,11,0,1,1-11-11A11,11,0,0,1,31.3,20.27Z"/><path class="cls-2" d="M26.74,20.27a6.48,6.48,0,1,1-6.47-6.48,6.46,6.46,0,0,1,6.47,6.48"/><path class="cls-1" d="M80.35,40.3h-40V.24H80.35Zm-53.61-20a6.48,6.48,0,1,1-6.47-6.48A6.46,6.46,0,0,1,26.74,20.27Z"/><path class="cls-2" d="M76.24,20.27A15.92,15.92,0,1,1,60.32,4.35,15.92,15.92,0,0,1,76.24,20.27"/><path class="cls-1" d="M76.24,20.27A15.92,15.92,0,1,1,60.32,4.35,15.92,15.92,0,0,1,76.24,20.27Z"/><path class="cls-2" d="M71.35,20.27a11,11,0,1,1-11-11,11,11,0,0,1,11,11"/><path class="cls-1" d="M71.35,20.27a11,11,0,1,1-11-11A11,11,0,0,1,71.35,20.27Z"/><path class="cls-3" d="M66.8,20.27a6.48,6.48,0,1,1-6.48-6.48,6.47,6.47,0,0,1,6.48,6.48"/><path class="cls-1" d="M120.4,40.3H80.35V.24H120.4Zm-53.6-20a6.48,6.48,0,1,1-6.48-6.48A6.47,6.47,0,0,1,66.8,20.27Z"/><path class="cls-3" d="M116.3,20.27A15.93,15.93,0,1,1,100.37,4.35,15.93,15.93,0,0,1,116.3,20.27"/><path class="cls-1" d="M116.3,20.27A15.93,15.93,0,1,1,100.37,4.35,15.93,15.93,0,0,1,116.3,20.27Z"/><path class="cls-2" d="M111.4,20.27a11,11,0,1,1-11-11,11,11,0,0,1,11,11"/><circle class="cls-1" cx="100.37" cy="20.27" r="11.03"/><path class="cls-2" d="M106.85,20.27a6.48,6.48,0,1,1-6.48-6.48,6.47,6.47,0,0,1,6.48,6.48"/><path class="cls-1" d="M40.3,80.35H.24v-40H40.3Zm66.55-60.08a6.48,6.48,0,1,1-6.48-6.48A6.47,6.47,0,0,1,106.85,20.27Z"/><path class="cls-3" d="M36.19,60.32A15.92,15.92,0,1,1,20.27,44.4,15.92,15.92,0,0,1,36.19,60.32"/><path class="cls-1" d="M36.19,60.32A15.92,15.92,0,1,1,20.27,44.4,15.92,15.92,0,0,1,36.19,60.32Z"/><path class="cls-2" d="M31.3,60.32a11,11,0,1,1-11-11,11,11,0,0,1,11,11"/><path class="cls-1" d="M31.3,60.32a11,11,0,1,1-11-11A11,11,0,0,1,31.3,60.32Z"/><path class="cls-2" d="M26.74,60.32a6.48,6.48,0,1,1-6.47-6.47,6.47,6.47,0,0,1,6.47,6.47"/><path class="cls-1" d="M80.35,80.35h-40v-40H80.35Zm-53.61-20a6.48,6.48,0,1,1-6.47-6.47A6.47,6.47,0,0,1,26.74,60.32Z"/><path class="cls-2" d="M76.24,60.32A15.92,15.92,0,1,1,60.32,44.4,15.91,15.91,0,0,1,76.24,60.32"/><path class="cls-1" d="M76.24,60.32A15.92,15.92,0,1,1,60.32,44.4,15.91,15.91,0,0,1,76.24,60.32Z"/><path class="cls-2" d="M71.35,60.32a11,11,0,1,1-11-11,11,11,0,0,1,11,11"/><path class="cls-1" d="M71.35,60.32a11,11,0,1,1-11-11A11,11,0,0,1,71.35,60.32Z"/><path class="cls-2" d="M66.8,60.32a6.48,6.48,0,1,1-6.48-6.47,6.48,6.48,0,0,1,6.48,6.47"/><path class="cls-1" d="M120.4,80.35H80.35v-40H120.4Zm-53.6-20a6.48,6.48,0,1,1-6.48-6.47A6.48,6.48,0,0,1,66.8,60.32Z"/><path class="cls-2" d="M116.3,60.32A15.93,15.93,0,1,1,100.37,44.4,15.92,15.92,0,0,1,116.3,60.32"/><path class="cls-1" d="M116.3,60.32A15.93,15.93,0,1,1,100.37,44.4,15.92,15.92,0,0,1,116.3,60.32Z"/><path class="cls-3" d="M111.4,60.32a11,11,0,1,1-11-11,11,11,0,0,1,11,11"/><circle class="cls-1" cx="100.37" cy="60.32" r="11.03"/><path class="cls-3" d="M106.85,60.32a6.48,6.48,0,1,1-6.48-6.47,6.48,6.48,0,0,1,6.48,6.47"/><path class="cls-1" d="M40.3,120.4H.24V80.35H40.3Zm66.55-60.08a6.48,6.48,0,1,1-6.48-6.47A6.48,6.48,0,0,1,106.85,60.32Z"/><path class="cls-2" d="M36.19,100.38A15.92,15.92,0,1,1,20.27,84.45a15.92,15.92,0,0,1,15.92,15.93"/><path class="cls-1" d="M36.19,100.38A15.92,15.92,0,1,1,20.27,84.45,15.92,15.92,0,0,1,36.19,100.38Z"/><path class="cls-2" d="M31.3,100.38a11,11,0,1,1-11-11,11,11,0,0,1,11,11"/><path class="cls-1" d="M31.3,100.38a11,11,0,1,1-11-11A11,11,0,0,1,31.3,100.38Z"/><path class="cls-3" d="M26.74,100.38a6.48,6.48,0,1,1-6.47-6.48,6.47,6.47,0,0,1,6.47,6.48"/><path class="cls-1" d="M80.35,120.4h-40V80.35H80.35Zm-53.61-20a6.48,6.48,0,1,1-6.47-6.48A6.47,6.47,0,0,1,26.74,100.38Z"/><path class="cls-3" d="M76.24,100.38A15.92,15.92,0,1,1,60.32,84.45a15.92,15.92,0,0,1,15.92,15.93"/><path class="cls-1" d="M76.24,100.38A15.92,15.92,0,1,1,60.32,84.45,15.92,15.92,0,0,1,76.24,100.38Z"/><path class="cls-3" d="M71.35,100.38a11,11,0,1,1-11-11,11,11,0,0,1,11,11"/><path class="cls-1" d="M71.35,100.38a11,11,0,1,1-11-11A11,11,0,0,1,71.35,100.38Z"/><path class="cls-2" d="M66.8,100.38a6.48,6.48,0,1,1-6.48-6.48,6.48,6.48,0,0,1,6.48,6.48"/><path class="cls-1" d="M66.8,100.38a6.48,6.48,0,1,1-6.48-6.48A6.48,6.48,0,0,1,66.8,100.38Z"/></g></g></g></svg>