<svg xmlns="http://www.w3.org/2000/svg" viewBox="0 0 108.44 108.44"><defs><style>.cls-1,.cls-2{fill:none;}.cls-1{stroke:#e9e9e9;stroke-width:0.44px;}</style></defs><title>s121</title><g id="Layer_2" data-name="Layer 2"><g id="Layer_1-2" data-name="Layer 1"><g id="s121"><path class="cls-1" d="M72.22,108.22h-36v-36h36Zm-36,0H.22v-36h36ZM86.09,49.68H100.5V45.56H86.08A13.44,13.44,0,0,0,86.81,42,18,18,0,0,1,80,47.62a16.91,16.91,0,0,1,6.86,5.62A11.39,11.39,0,0,0,86.09,49.68Zm0,13.06H100.5V58.62H86.08a13.44,13.44,0,0,0,.73-3.56A17.77,17.77,0,0,1,80,60.68a17,17,0,0,1,6.86,5.62A11.45,11.45,0,0,0,86.09,62.74Zm-59-3.88V44.45H23V58.88a13,13,0,0,0-3.56-.74A17.73,17.73,0,0,1,25,65a17,17,0,0,1,5.62-6.87A11.45,11.45,0,0,0,27.1,58.86ZM14,58.86V44.45H9.92V58.88a13.07,13.07,0,0,0-3.56-.74A17.91,17.91,0,0,1,12,65a16.88,16.88,0,0,1,5.62-6.87A11.39,11.39,0,0,0,14,58.86ZM48.93,92.33H63.34V88.21H48.91a13.05,13.05,0,0,0,.73-3.56,17.81,17.81,0,0,1-6.86,5.62,16.78,16.78,0,0,1,6.86,5.62A11.36,11.36,0,0,0,48.93,92.33Zm0-11.35H63.34V76.85H48.91a13,13,0,0,0,.73-3.56,17.63,17.63,0,0,1-6.86,5.62,16.86,16.86,0,0,1,6.86,5.62A11.3,11.3,0,0,0,48.93,81Zm0,22.7H63.34V99.56H48.91A13.05,13.05,0,0,0,49.64,96a17.81,17.81,0,0,1-6.86,5.62,16.78,16.78,0,0,1,6.86,5.62A11.42,11.42,0,0,0,48.93,103.68ZM21.19,88.2H6.78v4.13H21.21a13,13,0,0,0-.74,3.56,17.77,17.77,0,0,1,6.86-5.62,17,17,0,0,1-6.86-5.62A11.33,11.33,0,0,0,21.19,88.2Zm0,11.36H6.78v4.12H21.21a13.07,13.07,0,0,0-.74,3.56,17.77,17.77,0,0,1,6.86-5.62A17,17,0,0,1,20.47,96,11.45,11.45,0,0,0,21.19,99.56Zm37.16-54H43.94v4.13H58.37a13.28,13.28,0,0,0-.73,3.56,17.63,17.63,0,0,1,6.86-5.62A16.94,16.94,0,0,1,57.64,42,11.3,11.3,0,0,0,58.35,45.55Zm0,13.07H43.94v4.12H58.37a13.44,13.44,0,0,0-.73,3.56,17.72,17.72,0,0,1,6.86-5.62,16.78,16.78,0,0,1-6.86-5.62A11.42,11.42,0,0,0,58.35,58.62Zm49.87,13.53h-36v-36h36Zm-36,0h-36v-36h36Zm-36,.07H.22v-36h36Zm-15,4.63H6.78V81H21.21a12.93,12.93,0,0,0-.74,3.55,18,18,0,0,1,6.86-5.62,16.91,16.91,0,0,1-6.86-5.62A11.34,11.34,0,0,0,21.19,76.85ZM94.36,16.16H80v4.12H94.37a13.44,13.44,0,0,0-.73,3.56,17.7,17.7,0,0,1,6.86-5.62,16.93,16.93,0,0,1-6.86-5.62A11.17,11.17,0,0,0,94.36,16.16Zm13.86,20.06h-36V.22h36ZM56.28,22.35V7.94H52.16V22.37a13.07,13.07,0,0,0-3.56-.74,17.77,17.77,0,0,1,5.62,6.86,17,17,0,0,1,5.62-6.86A11.45,11.45,0,0,0,56.28,22.35ZM72.22,36.22h-36V.22h36ZM14.08,20.28H28.5V16.16H14.07a13.44,13.44,0,0,0,.73-3.56,17.72,17.72,0,0,1-6.86,5.62,16.78,16.78,0,0,1,6.86,5.62A11.17,11.17,0,0,0,14.08,20.28ZM36.22,36.22H.22V.22h36Z"/><polyline class="cls-2" points="0 0 0 108.44 108.44 108.44 108.44 0"/></g></g></g></svg>