<svg xmlns="http://www.w3.org/2000/svg" viewBox="0 0 173.35 173.35"><defs><style>.cls-1{fill:#191919;}.cls-2,.cls-4{fill:none;}.cls-2{stroke:#e9e9e9;stroke-width:0.44px;}.cls-3{fill:#e9e9e9;}</style></defs><title>s140</title><g id="Layer_2" data-name="Layer 2"><g id="Layer_1-2" data-name="Layer 1"><g id="s140"><rect class="cls-1" x="0.22" y="0.22" width="43.23" height="43.22"/><rect class="cls-2" x="0.22" y="0.22" width="43.23" height="43.22"/><path class="cls-1" d="M38.12,21.83A16.29,16.29,0,1,1,21.83,5.55,16.29,16.29,0,0,1,38.12,21.83"/><path class="cls-2" d="M38.12,21.83A16.29,16.29,0,1,1,21.83,5.55,16.29,16.29,0,0,1,38.12,21.83Z"/><line class="cls-1" x1="21.83" y1="5.55" x2="21.83" y2="38.12"/><line class="cls-2" x1="21.83" y1="5.55" x2="21.83" y2="38.12"/><line class="cls-1" x1="5.55" y1="21.83" x2="38.12" y2="21.83"/><line class="cls-2" x1="5.55" y1="21.83" x2="38.12" y2="21.83"/><rect class="cls-1" x="86.68" y="43.45" width="43.23" height="43.22"/><rect class="cls-2" x="86.68" y="43.45" width="43.23" height="43.22"/><path class="cls-1" d="M118.35,65.06A10.07,10.07,0,1,1,108.29,55a10.06,10.06,0,0,1,10.06,10.07"/><path class="cls-2" d="M118.35,65.06A10.07,10.07,0,1,1,108.29,55,10.06,10.06,0,0,1,118.35,65.06Z"/><rect class="cls-1" x="0.22" y="129.9" width="43.23" height="43.22"/><rect class="cls-2" x="0.22" y="129.9" width="43.23" height="43.22"/><path class="cls-1" d="M31.9,151.51a10.07,10.07,0,1,1-10.07-10.07A10.07,10.07,0,0,1,31.9,151.51"/><path class="cls-2" d="M31.9,151.51a10.07,10.07,0,1,1-10.07-10.07A10.07,10.07,0,0,1,31.9,151.51Z"/><rect class="cls-1" x="129.9" y="43.45" width="43.23" height="43.22"/><rect class="cls-2" x="129.9" y="43.45" width="43.23" height="43.22"/><path class="cls-1" d="M161.58,65.06A10.07,10.07,0,1,1,151.51,55a10.07,10.07,0,0,1,10.07,10.07"/><path class="cls-2" d="M161.58,65.06A10.07,10.07,0,1,1,151.51,55,10.07,10.07,0,0,1,161.58,65.06Z"/><path class="cls-3" d="M157.43,65.06a5.92,5.92,0,1,1-5.92-5.92,5.92,5.92,0,0,1,5.92,5.92"/><rect class="cls-1" x="43.45" y="0.22" width="43.23" height="43.22"/><rect class="cls-2" x="43.45" y="0.22" width="43.23" height="43.22"/><rect class="cls-1" x="52.33" y="9.1" width="25.46" height="25.46"/><rect class="cls-2" x="52.33" y="9.1" width="25.46" height="25.46"/><rect class="cls-1" x="129.9" y="86.67" width="43.23" height="43.23"/><rect class="cls-2" x="129.9" y="86.67" width="43.23" height="43.23"/><rect class="cls-1" x="138.78" y="95.55" width="25.46" height="25.46"/><rect class="cls-2" x="138.78" y="95.55" width="25.46" height="25.46"/><rect class="cls-1" x="86.67" y="0.22" width="43.23" height="43.22"/><rect class="cls-2" x="86.67" y="0.22" width="43.23" height="43.22"/><polyline class="cls-1" points="96.78 31.8 108.29 11.87 119.79 31.8 96.78 31.8"/><polygon class="cls-2" points="96.78 31.8 108.29 11.87 119.79 31.8 96.78 31.8"/><path class="cls-3" d="M111.1,5.38a2.81,2.81,0,1,1-2.81-2.81,2.81,2.81,0,0,1,2.81,2.81"/><path class="cls-3" d="M111.1,38.25a2.81,2.81,0,1,1-2.81-2.81,2.81,2.81,0,0,1,2.81,2.81"/><rect class="cls-1" x="0.22" y="86.67" width="43.23" height="43.23"/><rect class="cls-2" x="0.22" y="86.67" width="43.23" height="43.23"/><polyline class="cls-1" points="10.33 118.25 21.84 98.33 33.34 118.25 10.33 118.25"/><polygon class="cls-2" points="10.33 118.25 21.84 98.33 33.34 118.25 10.33 118.25"/><path class="cls-3" d="M24.65,91.83A2.82,2.82,0,1,1,21.83,89a2.82,2.82,0,0,1,2.82,2.81"/><path class="cls-3" d="M24.65,124.7a2.82,2.82,0,1,1-2.82-2.82,2.81,2.81,0,0,1,2.82,2.82"/><rect class="cls-1" x="0.22" y="43.45" width="43.23" height="43.22"/><rect class="cls-2" x="0.22" y="43.45" width="43.23" height="43.22"/><polyline class="cls-1" points="10.33 82.59 21.84 62.67 33.34 82.59 10.33 82.59"/><polygon class="cls-2" points="10.33 82.59 21.84 62.67 33.34 82.59 10.33 82.59"/><path class="cls-3" d="M24.65,56.18a2.82,2.82,0,1,1-2.82-2.81,2.81,2.81,0,0,1,2.82,2.81"/><rect class="cls-1" x="86.67" y="129.9" width="43.23" height="43.23"/><rect class="cls-2" x="86.67" y="129.9" width="43.23" height="43.23"/><polyline class="cls-1" points="96.78 169.04 108.29 149.12 119.79 169.04 96.78 169.04"/><polygon class="cls-2" points="96.78 169.04 108.29 149.12 119.79 169.04 96.78 169.04"/><path class="cls-3" d="M111.1,142.63a2.81,2.81,0,1,1-2.81-2.81,2.81,2.81,0,0,1,2.81,2.81"/><rect class="cls-1" x="43.45" y="43.45" width="43.23" height="43.22"/><rect class="cls-2" x="43.45" y="43.45" width="43.23" height="43.22"/><path class="cls-3" d="M67.87,65.06a2.81,2.81,0,1,1-2.81-2.81,2.81,2.81,0,0,1,2.81,2.81"/><rect class="cls-1" x="129.9" y="129.9" width="43.23" height="43.23"/><rect class="cls-2" x="129.9" y="129.9" width="43.23" height="43.23"/><path class="cls-3" d="M154.33,151.51a2.82,2.82,0,1,1-2.82-2.81,2.81,2.81,0,0,1,2.82,2.81"/><rect class="cls-1" x="129.9" y="0.22" width="43.23" height="43.22"/><rect class="cls-2" x="129.9" y="0.22" width="43.23" height="43.22"/><polyline class="cls-1" points="140.01 31.8 151.51 11.87 163.01 31.8 140.01 31.8"/><polygon class="cls-2" points="140.01 31.8 151.51 11.87 163.01 31.8 140.01 31.8"/><polyline class="cls-4" points="0 0 0 173.35 173.35 173.35 173.35 0"/></g></g></g></svg>