<svg xmlns="http://www.w3.org/2000/svg" viewBox="0 0 214.94 44.46"><defs><style>.cls-1{fill:none;stroke:#e5e5e5;stroke-width:0.5px;}.cls-2{fill:#e5e5e5;}.cls-3{fill:#191919;}</style></defs><title>s201</title><g id="Layer_2" data-name="Layer 2"><g id="Layer_1-2" data-name="Layer 1"><g id="s201"><polyline class="cls-1" points="175.69 22.22 175.69 39.24 192.72 39.24"/><path class="cls-2" d="M10.18,39.24a5,5,0,1,1-5-5,5,5,0,0,1,5,5"/><path class="cls-1" d="M10.18,39.24a5,5,0,1,1-5-5A5,5,0,0,1,10.18,39.24Z"/><path class="cls-3" d="M91.87,39.24a5,5,0,1,1-5-5,5,5,0,0,1,5,5"/><path class="cls-1" d="M91.87,39.24a5,5,0,1,1-5-5A5,5,0,0,1,91.87,39.24Z"/><path class="cls-2" d="M108.89,39.24a5,5,0,1,1-5-5,5,5,0,0,1,5,5"/><path class="cls-1" d="M108.89,39.24a5,5,0,1,1-5-5A5,5,0,0,1,108.89,39.24Z"/><path class="cls-2" d="M91.87,22.22a5,5,0,1,1-5-5,5,5,0,0,1,5,5"/><path class="cls-1" d="M91.87,22.22a5,5,0,1,1-5-5A5,5,0,0,1,91.87,22.22Z"/><path class="cls-3" d="M180.66,39.24a5,5,0,1,1-5-5,5,5,0,0,1,5,5"/><path class="cls-1" d="M180.66,39.24a5,5,0,1,1-5-5A5,5,0,0,1,180.66,39.24Z"/><path class="cls-3" d="M197.68,39.24a5,5,0,1,1-5-5,5,5,0,0,1,5,5"/><path class="cls-1" d="M197.68,39.24a5,5,0,1,1-5-5A5,5,0,0,1,197.68,39.24Z"/><path class="cls-2" d="M214.69,39.24a5,5,0,1,1-5-5,5,5,0,0,1,5,5"/><path class="cls-1" d="M214.69,39.24a5,5,0,1,1-5-5A5,5,0,0,1,214.69,39.24Z"/><path class="cls-3" d="M180.66,22.22a5,5,0,1,1-5-5,5,5,0,0,1,5,5"/><path class="cls-1" d="M180.66,22.22a5,5,0,1,1-5-5A5,5,0,0,1,180.66,22.22Z"/><path class="cls-2" d="M180.66,5.21a5,5,0,1,1-5-5,5,5,0,0,1,5,5"/><path class="cls-1" d="M180.66,5.21a5,5,0,1,1-5-5A5,5,0,0,1,180.66,5.21Z"/></g></g></g></svg>