<svg xmlns="http://www.w3.org/2000/svg" viewBox="0 0 82.45 82.45"><defs><style>.cls-1,.cls-2{fill:none;}.cls-1{stroke:#e5e5e5;stroke-width:0.5px;}.cls-3{fill:#e5e5e5;}</style></defs><title>s203</title><g id="Layer_2" data-name="Layer 2"><g id="Layer_1-2" data-name="Layer 1"><g id="s203"><path class="cls-1" d="M82.2,82.2H61.71V61.71H82.2Zm-20.49,0H41.23V61.71H61.71Zm-20.48,0H20.74V61.71H41.23Zm-20.49,0H.25V61.71H20.74ZM82.2,61.71H61.71V41.22H82.2Zm-20.49,0H41.23V41.22H61.71Zm-20.48,0H20.74V41.22H41.23Zm-20.49,0H.25V41.22H20.74ZM82.2,41.22H61.71V20.74H82.2Zm-20.49,0H41.23V20.74H61.71Zm-20.48,0H20.74V20.74H41.23Zm-20.49,0H.25V20.74H20.74ZM82.2,20.74H61.71V.25H82.2Zm-20.49,0H41.23V.25H61.71Zm-20.48,0H20.74V.25H41.23Zm-20.49,0H.25V.25H20.74Z"/><polyline class="cls-2" points="0 0 0 82.45 82.45 82.45 82.45 0"/><path class="cls-3" d="M5.45,14.83v-.54l.69-.67C7.8,12,8.55,11.2,8.56,10.22A1.16,1.16,0,0,0,7.27,9a2.21,2.21,0,0,0-1.38.55l-.28-.62a2.85,2.85,0,0,1,1.84-.66,1.83,1.83,0,0,1,2,1.89c0,1.2-.87,2.17-2.24,3.49l-.52.48v0H9.6v.73Z"/><path class="cls-3" d="M14.9,11.51c0,2.21-.82,3.43-2.26,3.43-1.27,0-2.13-1.19-2.15-3.34s.94-3.38,2.26-3.38S14.9,9.44,14.9,11.51Zm-3.53.1c0,1.69.52,2.65,1.32,2.65s1.33-1,1.33-2.71S13.61,8.9,12.7,8.9,11.37,9.84,11.37,11.61Z"/><path class="cls-3" d="M25.21,14.83v-.54l.69-.67c1.66-1.58,2.41-2.42,2.42-3.4A1.16,1.16,0,0,0,27,9a2.21,2.21,0,0,0-1.38.55l-.28-.62a2.85,2.85,0,0,1,1.84-.66,1.83,1.83,0,0,1,2,1.89c0,1.2-.87,2.17-2.24,3.49l-.52.48v0h2.92v.73Z"/><path class="cls-3" d="M30.34,14.83v-.54l.69-.67c1.66-1.58,2.41-2.42,2.42-3.4A1.16,1.16,0,0,0,32.16,9a2.21,2.21,0,0,0-1.38.55l-.28-.62a2.85,2.85,0,0,1,1.84-.66,1.83,1.83,0,0,1,2,1.89c0,1.2-.87,2.17-2.24,3.49l-.52.48v0h2.92v.73Z"/><path class="cls-3" d="M46.88,9.15h0l-1.13.61-.17-.67L47,8.33h.75v6.5h-.85Z"/><path class="cls-3" d="M50.61,14.21a3.67,3.67,0,0,0,.71,0,2.45,2.45,0,0,0,1.36-.63,2.85,2.85,0,0,0,.86-1.73h0a1.91,1.91,0,0,1-1.53.7,1.88,1.88,0,0,1-1.92-2,2.23,2.23,0,0,1,2.22-2.31c1.33,0,2.15,1.08,2.15,2.74a4.11,4.11,0,0,1-1.12,3,3.25,3.25,0,0,1-1.89.87,4.1,4.1,0,0,1-.81,0Zm.32-3.74a1.25,1.25,0,0,0,1.25,1.38,1.45,1.45,0,0,0,1.28-.68.58.58,0,0,0,.08-.32c0-1.11-.41-2-1.33-2C51.46,8.89,50.93,9.55,50.93,10.47Z"/><path class="cls-3" d="M64.73,14.83v-.54l.69-.67c1.66-1.58,2.41-2.42,2.42-3.4A1.16,1.16,0,0,0,66.55,9a2.21,2.21,0,0,0-1.38.55l-.28-.62a2.85,2.85,0,0,1,1.84-.66,1.83,1.83,0,0,1,2,1.89c0,1.2-.87,2.17-2.24,3.49l-.52.48v0h2.92v.73Z"/><path class="cls-3" d="M71.77,9.15h0l-1.13.61-.17-.67,1.42-.76h.75v6.5h-.85Z"/><path class="cls-3" d="M7.36,29.64h0l-1.13.61L6,29.58l1.42-.76h.75v6.5H7.36Z"/><path class="cls-3" d="M14.8,28.82v.58L12,35.32h-.91l2.82-5.75v0H10.7v-.73Z"/><path class="cls-3" d="M27.12,29.64h0L26,30.25l-.17-.67,1.42-.76H28v6.5h-.85Z"/><path class="cls-3" d="M30.85,34.7a3.67,3.67,0,0,0,.71,0A2.45,2.45,0,0,0,32.92,34a2.85,2.85,0,0,0,.86-1.73h0a1.91,1.91,0,0,1-1.53.7,1.88,1.88,0,0,1-1.92-2,2.23,2.23,0,0,1,2.22-2.31c1.33,0,2.15,1.08,2.15,2.74a4.11,4.11,0,0,1-1.12,3.05,3.25,3.25,0,0,1-1.89.87,4.1,4.1,0,0,1-.81.05ZM31.17,31a1.25,1.25,0,0,0,1.25,1.38,1.45,1.45,0,0,0,1.28-.68.58.58,0,0,0,.08-.32c0-1.11-.41-2-1.33-2C31.7,29.38,31.17,30,31.17,31Z"/><path class="cls-3" d="M46.88,29.64h0l-1.13.61-.17-.67L47,28.82h.75v6.5h-.85Z"/><path class="cls-3" d="M53.81,29.44a3.18,3.18,0,0,0-.66,0,2.64,2.64,0,0,0-2.26,2.31h0a2,2,0,0,1,3.53,1.35,2.17,2.17,0,0,1-2.16,2.29c-1.39,0-2.3-1.08-2.3-2.77a4.09,4.09,0,0,1,1.1-2.93,3.54,3.54,0,0,1,2.08-1,4.23,4.23,0,0,1,.64-.05Zm-.25,3.75a1.32,1.32,0,0,0-1.34-1.49,1.45,1.45,0,0,0-1.26.8.75.75,0,0,0-.1.39c0,1.07.51,1.86,1.43,1.86C53.05,34.75,53.56,34.12,53.56,33.19Z"/><path class="cls-3" d="M68.56,33.41l0-.26a2.3,2.3,0,0,1,.62-1.73,2.2,2.2,0,0,0,.7-1.37c0-.51-.32-.85-1-.86a1.78,1.78,0,0,0-1,.31l-.24-.63a2.62,2.62,0,0,1,1.43-.4,1.48,1.48,0,0,1,1.67,1.47,2.71,2.71,0,0,1-.86,1.74,2,2,0,0,0-.57,1.47v.26Zm-.22,1.4a.59.59,0,0,1,.6-.63.63.63,0,1,1-.6.63Z"/><path class="cls-3" d="M7.36,50.13h0l-1.13.61L6,50.07l1.42-.76h.75V55.8H7.36Z"/><path class="cls-3" d="M11.09,55.18a3.67,3.67,0,0,0,.71,0,2.45,2.45,0,0,0,1.36-.63A2.85,2.85,0,0,0,14,52.8h0a1.9,1.9,0,0,1-1.53.69,1.88,1.88,0,0,1-1.92-2,2.23,2.23,0,0,1,2.22-2.31c1.33,0,2.15,1.08,2.15,2.74a4.1,4.1,0,0,1-1.12,3,3.25,3.25,0,0,1-1.89.87,4.1,4.1,0,0,1-.81,0Zm.32-3.73a1.24,1.24,0,0,0,1.25,1.37,1.45,1.45,0,0,0,1.28-.67.58.58,0,0,0,.08-.32c0-1.11-.41-2-1.33-2C11.94,49.87,11.41,50.53,11.41,51.45Z"/><path class="cls-3" d="M25.21,55.8v-.54l.69-.67c1.66-1.58,2.41-2.41,2.42-3.39A1.16,1.16,0,0,0,27,49.93a2.21,2.21,0,0,0-1.38.55l-.28-.62a2.85,2.85,0,0,1,1.84-.66,1.83,1.83,0,0,1,2,1.89c0,1.2-.87,2.16-2.24,3.48l-.52.48v0h2.92v.73Z"/><path class="cls-3" d="M32.25,50.13h0l-1.13.61-.17-.67,1.42-.76h.75V55.8h-.85Z"/><path class="cls-3" d="M48.8,53.89l0-.26a2.27,2.27,0,0,1,.62-1.72,2.2,2.2,0,0,0,.7-1.37c0-.51-.32-.85-1-.86a1.78,1.78,0,0,0-1,.31l-.24-.63a2.62,2.62,0,0,1,1.43-.4A1.48,1.48,0,0,1,51,50.43a2.71,2.71,0,0,1-.86,1.74,2,2,0,0,0-.57,1.46v.26Zm-.22,1.4a.59.59,0,0,1,.6-.63.63.63,0,1,1-.6.63Z"/><path class="cls-3" d="M64.27,55.8v-.54l.69-.67c1.66-1.58,2.41-2.41,2.42-3.39a1.16,1.16,0,0,0-1.29-1.27,2.21,2.21,0,0,0-1.38.55l-.28-.62a2.85,2.85,0,0,1,1.84-.66,1.83,1.83,0,0,1,2,1.89c0,1.2-.87,2.16-2.24,3.48l-.52.48v0h2.92v.73Z"/><path class="cls-3" d="M73.72,52.49c0,2.2-.82,3.42-2.26,3.42-1.27,0-2.13-1.19-2.15-3.33s.94-3.38,2.26-3.38S73.72,50.42,73.72,52.49Zm-3.53.1c0,1.68.52,2.64,1.32,2.64s1.33-1,1.33-2.7-.41-2.65-1.32-2.65S70.19,50.82,70.19,52.59Z"/><path class="cls-3" d="M7.36,70.61h0l-1.13.61L6,70.55l1.42-.76h.75v6.5H7.36Z"/><path class="cls-3" d="M14.29,70.41a3.18,3.18,0,0,0-.66,0,2.64,2.64,0,0,0-2.26,2.31h0a2,2,0,0,1,3.53,1.35,2.17,2.17,0,0,1-2.16,2.29c-1.39,0-2.3-1.08-2.3-2.77a4.09,4.09,0,0,1,1.1-2.93,3.54,3.54,0,0,1,2.08-1,4.23,4.23,0,0,1,.64,0ZM14,74.16a1.32,1.32,0,0,0-1.34-1.49,1.45,1.45,0,0,0-1.26.8.75.75,0,0,0-.1.39c0,1.07.51,1.86,1.43,1.86C13.53,75.72,14,75.09,14,74.16Z"/><path class="cls-3" d="M27.12,70.61h0L26,71.22l-.17-.67,1.42-.76H28v6.5h-.85Z"/><path class="cls-3" d="M30.26,74.64a1.86,1.86,0,0,1,1.29-1.74v0a1.61,1.61,0,0,1-1-1.46,1.82,1.82,0,0,1,2-1.73,1.68,1.68,0,0,1,1.89,1.6,1.65,1.65,0,0,1-1.07,1.52v0a1.8,1.8,0,0,1,1.31,1.68,2,2,0,0,1-2.21,1.89C31.08,76.4,30.26,75.59,30.26,74.64Zm3.5,0c0-.79-.55-1.17-1.43-1.42a1.41,1.41,0,0,0-1.17,1.34,1.2,1.2,0,0,0,1.3,1.24A1.18,1.18,0,0,0,33.76,74.6Zm-2.42-3.25c0,.65.49,1,1.24,1.2a1.28,1.28,0,0,0,1-1.18,1,1,0,0,0-1.1-1.06A1,1,0,0,0,31.34,71.35Z"/><path class="cls-3" d="M46.88,70.61h0l-1.13.61-.17-.67L47,69.79h.75v6.5h-.85Z"/><path class="cls-3" d="M54,70.53H51.5l-.25,1.67a3.48,3.48,0,0,1,.53,0,2.75,2.75,0,0,1,1.4.35,1.85,1.85,0,0,1,.93,1.67,2.26,2.26,0,0,1-2.42,2.22,3.18,3.18,0,0,1-1.62-.4l.22-.67a2.91,2.91,0,0,0,1.39.36,1.43,1.43,0,0,0,1.54-1.41c0-.84-.57-1.44-1.87-1.44a6.72,6.72,0,0,0-.9.07l.42-3.12H54Z"/><path class="cls-3" d="M68.56,74.38l0-.26a2.3,2.3,0,0,1,.62-1.73,2.2,2.2,0,0,0,.7-1.37c0-.51-.32-.85-1-.86a1.78,1.78,0,0,0-1,.31l-.24-.63a2.62,2.62,0,0,1,1.43-.4,1.48,1.48,0,0,1,1.67,1.47,2.71,2.71,0,0,1-.86,1.74,2,2,0,0,0-.57,1.47v.26Zm-.22,1.4a.59.59,0,0,1,.6-.63.63.63,0,1,1-.6.63Z"/></g></g></g></svg>