<svg xmlns="http://www.w3.org/2000/svg" viewBox="0 0 241.15 62.49"><defs><style>.cls-1{fill:#e5e5e5;}.cls-2{fill:none;stroke:#e5e5e5;stroke-width:0.5px;}</style></defs><title>s205</title><g id="Layer_2" data-name="Layer 2"><g id="Layer_1-2" data-name="Layer 1"><g id="s205"><path class="cls-1" d="M8.84,57.57a1.86,1.86,0,0,1,1.29-1.74v0a1.61,1.61,0,0,1-1-1.46,1.82,1.82,0,0,1,2-1.73A1.68,1.68,0,0,1,13,54.21a1.65,1.65,0,0,1-1.07,1.52v0a1.8,1.8,0,0,1,1.31,1.68A2,2,0,0,1,11,59.33C9.66,59.33,8.84,58.52,8.84,57.57Zm3.5,0c0-.79-.55-1.17-1.43-1.42a1.41,1.41,0,0,0-1.17,1.34A1.2,1.2,0,0,0,11,58.69,1.18,1.18,0,0,0,12.34,57.53ZM9.92,54.28c0,.65.49,1,1.24,1.2a1.28,1.28,0,0,0,1-1.18,1,1,0,0,0-1.1-1.06A1,1,0,0,0,9.92,54.28Z"/><path class="cls-1" d="M60.68,59.22V57.45h-3v-.58l2.9-4.15h.95v4h.91v.69h-.91v1.77Zm0-2.46V54.59q0-.51,0-1h0c-.2.38-.36.66-.54,1l-1.59,2.21v0Z"/><path class="cls-1" d="M33.93,14.49a2.94,2.94,0,0,0,1.44.41c1.13,0,1.48-.72,1.47-1.26,0-.9-.83-1.29-1.68-1.29h-.49v-.66h.49c.64,0,1.45-.33,1.45-1.1,0-.52-.33-1-1.14-1a2.39,2.39,0,0,0-1.3.43l-.23-.64a3.09,3.09,0,0,1,1.7-.5c1.28,0,1.86.76,1.86,1.55A1.61,1.61,0,0,1,36.3,12v0a1.69,1.69,0,0,1,1.45,1.66c0,1-.81,1.95-2.37,1.95a3.3,3.3,0,0,1-1.69-.44Z"/><path class="cls-1" d="M33.69,43.05V41.29h-3V40.7l2.9-4.14h1v4h.91v.7h-.91v1.76Zm0-2.46V38.43q0-.51,0-1h0c-.2.38-.36.66-.54,1l-1.59,2.21h2.13Z"/><path class="cls-1" d="M38.82,43.05V41.29h-3V40.7l2.9-4.14h.95v4h.91v.7h-.91v1.76Zm0-2.46V38.43q0-.51,0-1h0c-.2.38-.36.66-.54,1l-1.59,2.21h2.13Z"/><path class="cls-2" d="M194.35,19.07,205.08.5,215.8,19.07Zm24.93,43.17L230,43.66l10.72,18.58Zm-49.85,0,10.73-18.58,10.72,18.58Zm0,0L205.08.5l35.64,61.74ZM109.85,19.07,120.58.5,131.3,19.07Zm24.93,43.17L145.5,43.66l10.72,18.58Zm-49.85,0L95.66,43.66l10.72,18.58Zm0,0L120.58.5l35.64,61.74ZM25.35,19.07,36.08.5,46.8,19.07ZM50.28,62.24,61,43.66,71.72,62.24Zm-49.85,0L11.16,43.66,21.88,62.24Zm0,0L36.08.5,71.72,62.24Z"/><path class="cls-1" d="M97.64,52.72v.58l-2.83,5.92H93.9l2.82-5.75v0H93.54v-.73Z"/><path class="cls-1" d="M142.46,59.22v-.54l.69-.67c1.66-1.58,2.41-2.42,2.42-3.4a1.16,1.16,0,0,0-1.29-1.27,2.21,2.21,0,0,0-1.38.55l-.28-.62a2.85,2.85,0,0,1,1.84-.66,1.83,1.83,0,0,1,2,1.89c0,1.2-.87,2.17-2.24,3.49l-.52.48v0h2.92v.73Z"/><path class="cls-1" d="M118.73,14.88a3.67,3.67,0,0,0,.71,0,2.45,2.45,0,0,0,1.36-.63,2.82,2.82,0,0,0,.86-1.72h0a1.91,1.91,0,0,1-1.53.7,1.88,1.88,0,0,1-1.92-2A2.23,2.23,0,0,1,120.4,8.9c1.33,0,2.15,1.08,2.15,2.74a4.08,4.08,0,0,1-1.12,3,3.25,3.25,0,0,1-1.89.87,4.1,4.1,0,0,1-.81,0Zm.32-3.73a1.25,1.25,0,0,0,1.25,1.38,1.45,1.45,0,0,0,1.28-.68.58.58,0,0,0,.08-.32c0-1.11-.41-2-1.33-2C119.58,9.57,119.05,10.23,119.05,11.15Z"/><path class="cls-1" d="M115.68,42a2.94,2.94,0,0,0,1.44.41c1.13,0,1.48-.72,1.47-1.26,0-.9-.83-1.29-1.68-1.29h-.49v-.66h.49c.64,0,1.45-.33,1.45-1.1,0-.52-.33-1-1.14-1a2.39,2.39,0,0,0-1.3.43l-.23-.64a3.09,3.09,0,0,1,1.7-.5c1.28,0,1.86.76,1.86,1.55a1.61,1.61,0,0,1-1.2,1.53v0a1.68,1.68,0,0,1,1.45,1.66c0,1-.81,1.95-2.37,1.95a3.3,3.3,0,0,1-1.69-.44Z"/><path class="cls-1" d="M120.6,43.05v-.54l.69-.67c1.66-1.57,2.41-2.41,2.42-3.39a1.16,1.16,0,0,0-1.29-1.27,2.21,2.21,0,0,0-1.38.55l-.28-.62a2.85,2.85,0,0,1,1.84-.66,1.83,1.83,0,0,1,2,1.89c0,1.2-.87,2.16-2.24,3.48l-.52.48v0h2.92v.73Z"/><path class="cls-1" d="M182.14,52.72v.58l-2.83,5.92h-.91l2.82-5.75v0H178v-.73Z"/><path class="cls-1" d="M228,57.31l0-.26a2.3,2.3,0,0,1,.62-1.73,2.2,2.2,0,0,0,.7-1.37c0-.51-.32-.85-1-.86a1.78,1.78,0,0,0-1,.31l-.24-.63a2.62,2.62,0,0,1,1.43-.4,1.48,1.48,0,0,1,1.67,1.47,2.71,2.71,0,0,1-.86,1.74,2,2,0,0,0-.57,1.47v.26Zm-.22,1.4a.59.59,0,0,1,.6-.63.63.63,0,1,1-.6.63Z"/><path class="cls-1" d="M202.64,13.85a1.85,1.85,0,0,1,1.29-1.73v0a1.61,1.61,0,0,1-1-1.46,1.82,1.82,0,0,1,2-1.73,1.68,1.68,0,0,1,1.89,1.6A1.65,1.65,0,0,1,205.72,12v0A1.8,1.8,0,0,1,207,13.72a2,2,0,0,1-2.21,1.89C203.46,15.61,202.64,14.8,202.64,13.85Zm3.5,0c0-.78-.55-1.16-1.43-1.41a1.41,1.41,0,0,0-1.17,1.34,1.2,1.2,0,0,0,1.3,1.23A1.18,1.18,0,0,0,206.14,13.81Zm-2.42-3.24c0,.65.49,1,1.24,1.2a1.28,1.28,0,0,0,1-1.18,1,1,0,0,0-1.1-1.06A1,1,0,0,0,203.72,10.57Z"/><path class="cls-1" d="M204.19,36.56v.58l-2.83,5.91h-.91l2.82-5.74v0h-3.18v-.73Z"/><path class="cls-1" d="M209,37.3H206.5L206.25,39a3.48,3.48,0,0,1,.53,0,2.75,2.75,0,0,1,1.4.35,1.84,1.84,0,0,1,.93,1.67,2.25,2.25,0,0,1-2.42,2.21,3.18,3.18,0,0,1-1.62-.4l.22-.67a2.91,2.91,0,0,0,1.39.36A1.43,1.43,0,0,0,208.22,41c0-.84-.57-1.43-1.87-1.43a6.72,6.72,0,0,0-.9.07l.42-3.12H209Z"/></g></g></g></svg>