<svg xmlns="http://www.w3.org/2000/svg" viewBox="0 0 40.9 43.9"><defs><style>.cls-1,.cls-2{fill:none;}.cls-1{stroke:#e5e5e5;stroke-width:0.4px;}.cls-3{fill:#e5e5e5;}</style></defs><title>s226</title><g id="Layer_2" data-name="Layer 2"><g id="Layer_1-2" data-name="Layer 1"><g id="s226"><path class="cls-1" d="M30.71,13.53a1.44,1.44,0,1,1-1.43-1.43A1.44,1.44,0,0,1,30.71,13.53Z"/><polygon class="cls-1" points="9.77 22.82 14.6 14.45 19.43 22.82 9.77 22.82"/><circle class="cls-1" cx="14.6" cy="19.75" r="6.7"/><path class="cls-1" d="M40.58.39a15.88,15.88,0,0,1-10,3.76A15.72,15.72,0,0,1,20.44.5a15.71,15.71,0,0,1-10,3.55A15.63,15.63,0,0,1,.33.39s-3,26.71,20.12,43.26C43.56,27.1,40.58.39,40.58.39Z"/><polyline class="cls-2" points="0 0 0 43.9 40.9 43.9 40.9 0"/><path class="cls-3" d="M22.8,32.87a1.44,1.44,0,1,1-1.43-1.44,1.43,1.43,0,0,1,1.43,1.44"/><rect class="cls-1" x="17.42" y="28.92" width="7.9" height="7.9"/><polygon class="cls-1" points="24.45 16.6 29.28 8.23 34.11 16.6 24.45 16.6"/><path class="cls-1" d="M22.8,32.87a1.44,1.44,0,1,1-1.43-1.44A1.43,1.43,0,0,1,22.8,32.87Z"/></g></g></g></svg>