<svg xmlns="http://www.w3.org/2000/svg" viewBox="0 0 142.52 106.99"><defs><style>.cls-1{fill:none;stroke:#e5e5e5;stroke-width:0.4px;}.cls-2{fill:#e5e5e5;}.cls-3{fill:#191919;}</style></defs><title>s240</title><g id="Layer_2" data-name="Layer 2"><g id="Layer_1-2" data-name="Layer 1"><g id="s240"><path class="cls-1" d="M23,53.49a5.05,5.05,0,1,1-5.05-5.05A5,5,0,0,1,23,53.49ZM71.26,71.26H35.73V35.73H71.26Zm-35.53,0H.2V35.73H35.73Z"/><path class="cls-2" d="M129.6,53.49a5,5,0,1,1-5-5.05,5,5,0,0,1,5,5.05"/><path class="cls-1" d="M106.79,71.26H71.26V35.73h35.53ZM35.73,106.78H.2V71.26H35.73Zm0-71.05H.2V.2H35.73ZM142.32,71.26H106.79V35.73h35.53ZM29.85,90A11.92,11.92,0,1,1,17.93,78,11.92,11.92,0,0,1,29.85,90ZM97.31,53.49A8.29,8.29,0,1,1,89,45.21,8.29,8.29,0,0,1,97.31,53.49Zm-3.23,0a5,5,0,1,1-5-5.05A5.06,5.06,0,0,1,94.08,53.49ZM26.21,90a8.29,8.29,0,1,1-8.28-8.29A8.28,8.28,0,0,1,26.21,90ZM23,90a5.05,5.05,0,1,1-5.05-5A5.06,5.06,0,0,1,23,90ZM129.6,53.49a5,5,0,1,1-5-5.05A5,5,0,0,1,129.6,53.49Z"/><path class="cls-2" d="M23.79,17.07a5.86,5.86,0,1,1-5.86-5.86,5.87,5.87,0,0,1,5.86,5.86"/><circle class="cls-1" cx="17.93" cy="17.07" r="8.69" transform="translate(-4.11 28.34) rotate(-70.67)"/><path class="cls-2" d="M62.18,53.49a8.69,8.69,0,1,1-8.68-8.68,8.69,8.69,0,0,1,8.68,8.68"/><circle class="cls-1" cx="53.5" cy="53.49" r="8.69" transform="translate(-16.4 82.45) rotate(-67.5)"/><path class="cls-3" d="M59.35,53.49a5.86,5.86,0,1,1-5.85-5.86,5.85,5.85,0,0,1,5.85,5.86"/></g></g></g></svg>