<svg xmlns="http://www.w3.org/2000/svg" viewBox="0 0 151.55 113.76"><defs><style>.cls-1{fill:none;stroke:#fff;stroke-width:0.43px;}.cls-2{fill:#191919;}</style></defs><title>s311</title><g id="Layer_2" data-name="Layer 2"><g id="Layer_1-2" data-name="Layer 1"><g id="s311"><line class="cls-1" x1="37.98" y1="56.88" x2="75.79" y2="56.88"/><rect class="cls-1" x="37.99" y="37.99" width="37.78" height="37.78"/><line class="cls-1" x1="0.2" y1="19.1" x2="38.01" y2="19.1"/><line class="cls-1" x1="19.1" y1="0.2" x2="19.1" y2="38.01"/><rect class="cls-1" x="0.22" y="0.22" width="37.78" height="37.78"/><line class="cls-1" x1="113.55" y1="37.99" x2="75.77" y2="75.77"/><line class="cls-1" x1="0.22" y1="37.99" x2="37.99" y2="75.77"/><rect class="cls-1" x="75.77" y="37.99" width="37.78" height="37.78"/><rect class="cls-1" x="0.22" y="75.77" width="37.78" height="37.78"/><rect class="cls-1" x="113.55" y="37.99" width="37.78" height="37.78"/><rect class="cls-1" x="0.22" y="37.99" width="37.78" height="37.78"/><path class="cls-2" d="M62.25,56.88a5.37,5.37,0,1,1-5.37-5.37,5.36,5.36,0,0,1,5.37,5.37"/><line class="cls-1" x1="132.44" y1="75.79" x2="132.44" y2="37.98"/><path class="cls-1" d="M62.25,56.88a5.37,5.37,0,1,1-5.37-5.37A5.36,5.36,0,0,1,62.25,56.88Z"/><path class="cls-2" d="M132.44,51.51a5.37,5.37,0,1,1-5.37,5.37,5.37,5.37,0,0,1,5.37-5.37"/><path class="cls-1" d="M132.44,51.51a5.37,5.37,0,1,1-5.37,5.37A5.37,5.37,0,0,1,132.44,51.51Z"/><path class="cls-2" d="M19.1,89.29a5.37,5.37,0,1,1-5.37,5.37,5.37,5.37,0,0,1,5.37-5.37"/><line class="cls-1" x1="56.88" y1="51.39" x2="56.88" y2="62.25"/><path class="cls-1" d="M19.1,89.29a5.37,5.37,0,1,1-5.37,5.37A5.37,5.37,0,0,1,19.1,89.29Z"/></g></g></g></svg>