<svg xmlns="http://www.w3.org/2000/svg" viewBox="0 0 163.76 163.76"><defs><style>.cls-1{fill:none;stroke:#fff;stroke-width:0.44px;}</style></defs><title>s323</title><g id="Layer_2" data-name="Layer 2"><g id="Layer_1-2" data-name="Layer 1"><g id="s323"><line class="cls-1" x1="18.68" y1="100.97" x2="39.4" y2="100.97"/><line class="cls-1" x1="18.78" y1="113.37" x2="18.78" y2="88.58"/><path class="cls-1" d="M25.39,87a14,14,0,1,1-14,14A14,14,0,0,1,25.39,87Z"/><line class="cls-1" x1="68.62" y1="71.57" x2="68.62" y2="92.28"/><line class="cls-1" x1="56.22" y1="71.67" x2="81.01" y2="71.67"/><path class="cls-1" d="M82.62,78.28a14,14,0,1,1-14-14A14,14,0,0,1,82.62,78.28Z"/><line class="cls-1" x1="138" y1="75.02" x2="138" y2="68.22"/><line class="cls-1" x1="147.91" y1="51.12" x2="138" y2="68.22"/><line class="cls-1" x1="150.56" y1="67.64" x2="125.77" y2="67.64"/><path class="cls-1" d="M124,61a14,14,0,1,1,14,14A14,14,0,0,1,124,61Z"/><line class="cls-1" x1="91.65" y1="14.96" x2="101.56" y2="24.86"/><line class="cls-1" x1="101.56" y1="38.87" x2="101.56" y2="24.86"/><line class="cls-1" x1="115.56" y1="24.86" x2="87.55" y2="24.86"/><path class="cls-1" d="M87.55,24.86a14,14,0,1,1,14,14A14,14,0,0,1,87.55,24.86Z"/><line class="cls-1" x1="55.22" y1="142.86" x2="65.12" y2="132.95"/><line class="cls-1" x1="79.12" y1="132.95" x2="65.12" y2="132.95"/><line class="cls-1" x1="65.12" y1="118.95" x2="65.12" y2="146.96"/><path class="cls-1" d="M65.12,147a14,14,0,1,1,14-14A14,14,0,0,1,65.12,147Z"/><line class="cls-1" x1="126.49" y1="127.8" x2="112.49" y2="127.8"/><line class="cls-1" x1="112.49" y1="113.8" x2="112.49" y2="141.8"/><path class="cls-1" d="M112.49,141.8a14,14,0,1,1,14-14A14,14,0,0,1,112.49,141.8Z"/><line class="cls-1" x1="40.03" y1="26.02" x2="40.03" y2="40.03"/><line class="cls-1" x1="26.02" y1="40.03" x2="54.03" y2="40.03"/><path class="cls-1" d="M163.54,81.87A81.66,81.66,0,1,1,81.88.22,81.66,81.66,0,0,1,163.54,81.87Z"/><path class="cls-1" d="M54,40A14,14,0,1,1,40,26,14,14,0,0,1,54,40Z"/></g></g></g></svg>