<svg xmlns="http://www.w3.org/2000/svg" viewBox="0 0 83.81 83.81"><defs><style>.cls-1{fill:none;stroke:#fff;stroke-width:0.44px;}.cls-2{fill:#191919;}</style></defs><title>s337</title><g id="Layer_2" data-name="Layer 2"><g id="Layer_1-2" data-name="Layer 1"><g id="s337"><line class="cls-1" x1="14.5" y1="14.5" x2="0.22" y2="0.22"/><rect class="cls-1" x="0.22" y="0.22" width="27.79" height="27.79"/><path class="cls-2" d="M18.53,14.12A4.42,4.42,0,1,1,14.12,9.7a4.42,4.42,0,0,1,4.41,4.42"/><rect class="cls-1" x="28.01" y="0.22" width="27.79" height="27.79"/><line class="cls-1" x1="11.08" y1="17.15" x2="28.01" y2="0.22"/><path class="cls-1" d="M18.53,14.12A4.42,4.42,0,1,1,14.12,9.7,4.42,4.42,0,0,1,18.53,14.12Z"/><path class="cls-2" d="M46.32,14.12A4.42,4.42,0,1,1,41.9,9.7a4.42,4.42,0,0,1,4.42,4.42"/><rect class="cls-1" x="55.8" y="0.22" width="27.79" height="27.79"/><path class="cls-1" d="M46.32,14.12A4.42,4.42,0,1,1,41.9,9.7,4.42,4.42,0,0,1,46.32,14.12Z"/><path class="cls-2" d="M74.11,14.12A4.42,4.42,0,1,1,69.69,9.7a4.42,4.42,0,0,1,4.42,4.42"/><line class="cls-1" x1="70.07" y1="41.52" x2="55.8" y2="55.8"/><line class="cls-1" x1="70.07" y1="42.29" x2="55.8" y2="28.01"/><rect class="cls-1" x="55.8" y="28.01" width="27.79" height="27.79"/><rect class="cls-1" x="28.01" y="28.01" width="27.79" height="27.79"/><line class="cls-1" x1="0.22" y1="55.8" x2="14.12" y2="41.9"/><line class="cls-1" x1="28.01" y1="55.8" x2="0.22" y2="28.01"/><rect class="cls-1" x="0.22" y="28.01" width="27.79" height="27.79"/><line class="cls-1" x1="66.65" y1="17.15" x2="83.59" y2="0.22"/><path class="cls-1" d="M74.11,14.12A4.42,4.42,0,1,1,69.69,9.7,4.42,4.42,0,0,1,74.11,14.12Z"/><path class="cls-2" d="M74.11,41.9a4.42,4.42,0,1,1-4.42-4.41,4.42,4.42,0,0,1,4.42,4.41"/><line class="cls-1" x1="14.5" y1="70.07" x2="0.22" y2="55.8"/><rect class="cls-1" x="0.22" y="55.8" width="27.79" height="27.79"/><path class="cls-1" d="M74.11,41.9a4.42,4.42,0,1,1-4.42-4.41A4.42,4.42,0,0,1,74.11,41.9Z"/><path class="cls-2" d="M18.53,69.69a4.42,4.42,0,1,1-4.41-4.41,4.42,4.42,0,0,1,4.41,4.41"/><rect class="cls-1" x="28.01" y="55.8" width="27.79" height="27.79"/><path class="cls-1" d="M18.53,69.69a4.42,4.42,0,1,1-4.41-4.41A4.42,4.42,0,0,1,18.53,69.69Z"/><path class="cls-2" d="M46.32,69.69a4.42,4.42,0,1,1-4.42-4.41,4.42,4.42,0,0,1,4.42,4.41"/><line class="cls-1" x1="38.87" y1="11.08" x2="55.8" y2="28.01"/><line class="cls-1" x1="28.01" y1="83.59" x2="38.82" y2="72.78"/><path class="cls-1" d="M46.32,69.69a4.42,4.42,0,1,1-4.42-4.41A4.42,4.42,0,0,1,46.32,69.69Z"/><path class="cls-2" d="M18.53,41.9a4.42,4.42,0,1,1-4.41-4.41,4.42,4.42,0,0,1,4.41,4.41"/><line class="cls-1" x1="28.01" y1="55.8" x2="42.53" y2="41.28"/><path class="cls-1" d="M18.53,41.9a4.42,4.42,0,1,1-4.41-4.41A4.42,4.42,0,0,1,18.53,41.9Z"/><path class="cls-2" d="M46.32,41.9a4.42,4.42,0,1,1-4.42-4.41,4.42,4.42,0,0,1,4.42,4.41"/><line class="cls-1" x1="28.01" y1="28.01" x2="55.8" y2="0.22"/><line class="cls-1" x1="45.25" y1="73.04" x2="38.92" y2="66.71"/><line class="cls-1" x1="45.16" y1="45.16" x2="28.01" y2="28.01"/><path class="cls-1" d="M46.32,41.9a4.42,4.42,0,1,1-4.42-4.41A4.42,4.42,0,0,1,46.32,41.9Z"/></g></g></g></svg>