<svg xmlns="http://www.w3.org/2000/svg" viewBox="0 0 129.75 36.54"><defs><style>.cls-1,.cls-3{fill:none;}.cls-1{stroke:#e6e6e6;stroke-width:0.45px;}.cls-2{fill:#e6e6e6;}</style></defs><title>s420</title><g id="Layer_2" data-name="Layer 2"><g id="Layer_1-2" data-name="Layer 1"><g id="s420"><rect class="cls-1" x="0.23" y="0.23" width="18.04" height="18.04"/><path class="cls-2" d="M16.31,13.15A3.16,3.16,0,1,1,13.15,10a3.15,3.15,0,0,1,3.16,3.15"/><rect class="cls-1" x="0.23" y="18.27" width="18.04" height="18.04"/><path class="cls-2" d="M8.5,23.38a3.16,3.16,0,1,1-3.16-3.16A3.16,3.16,0,0,1,8.5,23.38"/><rect class="cls-1" x="18.27" y="0.23" width="18.04" height="18.04"/><path class="cls-2" d="M26.54,5.34a3.16,3.16,0,1,1-3.16-3.16,3.16,3.16,0,0,1,3.16,3.16"/><rect class="cls-1" x="18.27" y="18.27" width="18.04" height="18.04"/><path class="cls-2" d="M34.35,31.2A3.16,3.16,0,1,1,31.2,28a3.15,3.15,0,0,1,3.15,3.16"/><rect class="cls-1" x="46.83" y="0.23" width="18.04" height="18.04"/><path class="cls-2" d="M55.11,4.74A3.16,3.16,0,1,1,52,1.58a3.16,3.16,0,0,1,3.16,3.16"/><rect class="cls-1" x="46.83" y="18.27" width="18.04" height="18.04"/><path class="cls-2" d="M62.92,23.38a3.16,3.16,0,1,1-3.16-3.16,3.15,3.15,0,0,1,3.16,3.16"/><rect class="cls-1" x="64.88" y="0.23" width="18.04" height="18.04"/><path class="cls-2" d="M73.15,13.15A3.16,3.16,0,1,1,70,10a3.16,3.16,0,0,1,3.16,3.15"/><rect class="cls-1" x="64.88" y="18.27" width="18.04" height="18.04"/><path class="cls-2" d="M73.15,31.2A3.16,3.16,0,1,1,70,28a3.16,3.16,0,0,1,3.16,3.16"/><rect class="cls-1" x="93.44" y="0.23" width="18.04" height="18.04"/><path class="cls-2" d="M109.53,13.15A3.16,3.16,0,1,1,106.37,10a3.15,3.15,0,0,1,3.16,3.15"/><rect class="cls-1" x="93.44" y="18.27" width="18.04" height="18.04"/><path class="cls-2" d="M101.71,23.38a3.16,3.16,0,1,1-3.15-3.16,3.15,3.15,0,0,1,3.15,3.16"/><rect class="cls-1" x="111.49" y="0.23" width="18.04" height="18.04"/><polyline class="cls-3" points="0 0 0 36.53 129.75 36.53 129.75 0"/><path class="cls-2" d="M127.57,13.15A3.16,3.16,0,1,1,124.41,10a3.15,3.15,0,0,1,3.16,3.15"/><rect class="cls-1" x="111.49" y="18.27" width="18.04" height="18.04"/><path class="cls-2" d="M119.76,23.38a3.16,3.16,0,1,1-3.16-3.16,3.16,3.16,0,0,1,3.16,3.16"/></g></g></g></svg>