<svg xmlns="http://www.w3.org/2000/svg" viewBox="0 0 211.7 187.89"><defs><style>.cls-1{fill:#e6e6e6;}.cls-2{fill:none;stroke:#e6e6e6;stroke-width:0.41px;}</style></defs><title>s608</title><g id="Layer_2" data-name="Layer 2"><g id="Layer_1-2" data-name="Layer 1"><g id="s608"><path class="cls-1" d="M56.12,130.51v0a1.75,1.75,0,0,1-.56,1.38,2.24,2.24,0,0,1-1.52.51,2,2,0,0,1-1.58-.71,2.7,2.7,0,0,1-.6-1.82v-1a2.72,2.72,0,0,1,.6-1.82,2,2,0,0,1,1.58-.71,2.2,2.2,0,0,1,1.52.5,1.68,1.68,0,0,1,.56,1.38v0h-.45a1.42,1.42,0,0,0-.43-1.11,1.72,1.72,0,0,0-1.19-.39,1.52,1.52,0,0,0-1.24.59,2.42,2.42,0,0,0-.46,1.53v1a2.4,2.4,0,0,0,.46,1.53,1.49,1.49,0,0,0,1.24.59,1.72,1.72,0,0,0,1.19-.38,1.42,1.42,0,0,0,.43-1.12Z"/><path class="cls-1" d="M148.15,84.36V78.5h1.71a2.37,2.37,0,0,1,1.42.38,1.37,1.37,0,0,1,.51,1.16,1.23,1.23,0,0,1-.25.77,1.34,1.34,0,0,1-.66.47,1.3,1.3,0,0,1,.9.48,1.42,1.42,0,0,1,.36,1,1.47,1.47,0,0,1-.51,1.2,2,2,0,0,1-1.36.43Zm.48-3.23H150a1.55,1.55,0,0,0,.94-.29,1,1,0,0,0,.33-.82,1,1,0,0,0-.37-.83,1.76,1.76,0,0,0-1.08-.28h-1.23Zm0,.4V84h1.64a1.49,1.49,0,0,0,1-.32,1.23,1.23,0,0,0,0-1.75,1.51,1.51,0,0,0-1-.35h-1.68Z"/><path class="cls-1" d="M71.83,24.65H69.26l-.59,1.64h-.5l2.15-5.86h.45l2.14,5.86h-.5Zm-2.42-.43h2.26l-1.11-3.1h0Z"/><path class="cls-1" d="M150.54,152.72v-5.85h1.79a2.41,2.41,0,0,1,1.78.71,2.55,2.55,0,0,1,.7,1.84v.75a2.55,2.55,0,0,1-.7,1.84,2.37,2.37,0,0,1-1.78.71Zm.49-5.44v5h1.3a1.87,1.87,0,0,0,1.43-.61,2.17,2.17,0,0,0,.57-1.54v-.76a2.16,2.16,0,0,0-.57-1.53,1.88,1.88,0,0,0-1.43-.6Z"/><polygon class="cls-2" points="98.83 59.91 49.57 31.77 53.28 0.23 84.82 3.94 98.83 59.91"/><polygon class="cls-2" points="152.13 129.55 124.03 110.96 108.64 150.12 204.06 187.63 211.45 168.82 152.13 129.55"/><polygon class="cls-2" points="0.29 148.93 48.45 185.45 73.96 163.45 100.11 95.96 62.24 67.24 0.29 148.93"/><polygon class="cls-2" points="182.05 120.81 151.97 56.34 124.21 77.3 182.05 120.81"/></g></g></g></svg>