<svg xmlns="http://www.w3.org/2000/svg" xmlns:xlink="http://www.w3.org/1999/xlink" viewBox="0 0 1920 900"><defs><style>.cls-1{fill:url(#linear-gradient);}.cls-2{fill:url(#linear-gradient-2);}.cls-3{fill:url(#linear-gradient-3);}</style><linearGradient id="linear-gradient" y1="607.52" x2="994" y2="607.52" gradientUnits="userSpaceOnUse"><stop offset="0" stop-color="#1754e3"/><stop offset="1" stop-color="#0070de"/></linearGradient><linearGradient id="linear-gradient-2" y1="450" x2="1726.91" y2="450" gradientUnits="userSpaceOnUse"><stop offset="0" stop-color="#147be1"/><stop offset="1" stop-color="#0070de"/></linearGradient><linearGradient id="linear-gradient-3" x1="1248.98" y1="450" x2="1920" y2="450" xlink:href="#linear-gradient"/></defs><title>bg</title><g id="Layer_2" data-name="Layer 2"><g id="Layer_1-2" data-name="Layer 1"><path class="cls-1" d="M811.92,708c8.34,12.17,16,24.83,25.15,36.39,20.82,26.42,49.75,42.66,77.69,60.08C932,815.17,949,826.2,963.35,840.8c16.39,16.61,27,36,30.65,59.2H0V422a15.23,15.23,0,0,0,2.67-1.27q26.74-19.64,53.46-39.35C81.06,363,105.79,344.33,134,331c25.27-11.92,51.54-18.44,79.78-15.14,22.31,2.62,41.93,11,57.51,27.15,10.59,11,20.12,23,29.63,35,13.75,17.26,25.52,36.12,42.87,50.4,13.51,11.13,28.51,18.84,45.59,22.59,24.49,5.37,49,3.52,73.36-.49,34.43-5.67,68.71-12.3,103.21-17.53A145.5,145.5,0,0,1,618,434.8c36.19,7.69,64.18,28.24,87.23,56.22,20.5,24.88,35.81,53,48.24,82.5,13.68,32.52,26.08,65.58,39.73,98.11C798.48,684.15,805.63,695.88,811.92,708Z"/><path class="cls-2" d="M1705.72,593.45c-13.87-19-33-31.26-54.87-39.23C1633,547.72,1614.9,542,1597,535.81c-16.75-5.81-32.88-12.9-46.87-24.07a114.18,114.18,0,0,1-29.48-35.43c-12.76-23.69-19.55-49.13-21.58-75.79-1.52-20-2.2-40.13-3-60.21-1.1-27.24-1.57-54.55-8.15-81.19-7.37-29.8-19.87-56.88-43.72-77.41-15.2-13.07-33.31-19.94-52.69-23.66-20.56-4-41.41-6.6-61.79-11.31-43.68-10.09-68-39.2-77.63-81.94-4.45-19.82-3.81-39.6.33-59.37.37-1.78.42-3.62.62-5.43H0V422a15.23,15.23,0,0,0,2.67-1.27q26.74-19.64,53.46-39.35C81.06,363,105.79,344.33,134,331c25.27-11.92,51.54-18.44,79.78-15.14,22.31,2.62,41.93,11,57.51,27.15,10.59,11,20.12,23,29.63,35,13.75,17.26,25.52,36.12,42.87,50.4,13.51,11.13,28.51,18.84,45.59,22.59,24.49,5.37,49,3.52,73.36-.49,34.43-5.67,68.71-12.31,103.21-17.53A145.5,145.5,0,0,1,618,434.8c36.19,7.69,64.18,28.24,87.23,56.22,20.5,24.88,35.81,53,48.24,82.5,13.68,32.52,26.08,65.58,39.73,98.11,5.25,12.52,12.4,24.25,18.69,36.33,8.34,12.17,16,24.83,25.15,36.39,20.82,26.42,49.75,42.66,77.69,60.08C932,815.17,949,826.2,963.35,840.8c16.39,16.61,27,36,30.65,59.2h732V652.6C1730.33,629.09,1718.48,611,1705.72,593.45Z"/><path class="cls-3" d="M1726,900V652.6c4.33-23.51-7.52-41.63-20.28-59.15-13.87-19-33-31.26-54.87-39.23C1633,547.72,1614.9,542,1597,535.81c-16.75-5.81-32.88-12.9-46.87-24.07a114.18,114.18,0,0,1-29.48-35.43c-12.76-23.69-19.55-49.13-21.58-75.79-1.52-20-2.2-40.13-3-60.21-1.1-27.24-1.57-54.55-8.15-81.19-7.37-29.8-19.87-56.88-43.72-77.41-15.2-13.07-33.31-19.94-52.69-23.66-20.56-4-41.41-6.6-61.79-11.31-43.68-10.09-68-39.2-77.63-81.94-4.45-19.82-3.81-39.6.33-59.37.37-1.78.42-3.62.62-5.43h667V900Z"/></g></g></svg>