<svg xmlns="http://www.w3.org/2000/svg" viewBox="0 0 687.5 414.14"><defs><style>.cls-1,.cls-6{fill:#0d69d5;}.cls-2,.cls-5{fill:#094b8b;}.cls-3{font-size:52.76px;fill:#fff;font-family:Roboto-Bold, Roboto;font-weight:700;}.cls-4{font-size:30.76px;}.cls-5,.cls-6{font-size:36px;font-family:Roboto-Medium, Roboto;font-weight:500;}.cls-7{fill:none;stroke:#094b8b;stroke-miterlimit:10;stroke-width:5px;}</style></defs><title>chart</title><g id="Layer_2" data-name="Layer 2"><g id="Layer_1-2" data-name="Layer 1"><path class="cls-1" d="M667.81,339.12q-73.15,0-146.32,0l-36.33.05c-6.34,0-12.67,0-19,0-2.92,0-6.29.14-7.2-3.24-.55-2.05-.27-4.42-.27-6.51l0-9.49q0-9.21,0-18.42,0-18.4,0-36.83,0-36.56,0-73.11V155.34q0-4.47,0-8.93v-3.92c0-1.71.21-3,1.72-1.57,1.77,1.69,3,4.48,4.35,6.52q2.52,3.87,5,7.76c12.94,20.08,25.74,40.26,39,60.16,12.48,18.78,25.44,36.95,40.78,53.53,27.83,30.06,61.12,58,102.17,66.72,2.61.55,5.23,1,7.85,1.53C661.43,337.48,666.83,337.63,667.81,339.12Z"/><path class="cls-1" d="M231.21,142.59q0,74.26,0,148.52,0,18.76.07,37.52c0,3,1.22,9-2.63,10.25-1.95.66-4.38.31-6.39.31h-10q-36.78-.06-73.57-.06H18.46c-1.37,0-3.14.08-1.1-.74a28,28,0,0,1,5.19-1c5.71-1.08,11.43-2.12,17.08-3.53,41.48-10.33,77.21-37.28,105.81-68.24,30.5-33,53.38-71.63,76.47-109.92l4.46-7.36c.72-1.19,1.43-2.39,2.18-3.56S229.68,142.33,231.21,142.59Z"/><path class="cls-2" d="M452,339H239c-1,.37-1.41.07-1.17-.91a9.56,9.56,0,0,1-.14-2.46c-.07-2.12,0-4.24,0-6.36V304.69q0-25.1,0-50.19,0-50.19-.09-100.38c0-7.62-.91-15.85.57-23.37,1.44-7.3,6-13.43,9.77-19.68,8.52-14.07,16.93-28.2,25.53-42.21,8-13,15.78-26.26,25.56-38C308,20.15,319.05,9.09,332,3.39c12.4-5.46,25.53-4.35,36.63,3.49,11.72,8.28,21.36,20.41,29.82,31.86,18.7,25.3,33.91,53.31,49.71,80.46,1.76,3,3.48,6,3.92,9.52.47,3.84.12,7.89.13,11.76q0,12.84,0,25.68,0,24.56.05,49.12,0,50.23,0,100.47C452.3,323.45,452.71,331.28,452,339Z"/><text class="cls-3" transform="translate(295.13 184.29)">70%<tspan class="cls-4"><tspan x="-14.35" y="36.91">of people</tspan><tspan x="-35.85" y="73.83">in this range</tspan></tspan></text><text class="cls-5" transform="translate(281.07 404.39)">average</text><text class="cls-6" transform="translate(109.58 404.39)">low</text><text class="cls-6" transform="translate(502.64 404.39)">high</text><polyline class="cls-7" points="2.5 7.01 2.5 360.01 687.5 360.01"/></g></g></svg>