<svg xmlns="http://www.w3.org/2000/svg" viewBox="0 0 92.71 91.89"><defs><style>.cls-1{fill:#3498da;}.cls-2{fill:#fff;}</style></defs><title>logo-light</title><g id="Layer_2" data-name="Layer 2"><g id="Layer_1-2" data-name="Layer 1"><path class="cls-1" d="M7.17,34.32a9.82,9.82,0,0,1-.63-1.92A13,13,0,0,1,10.65,20,14.36,14.36,0,0,1,22.43,16.3a9.87,9.87,0,0,1,2.44-8.22,13.82,13.82,0,0,1,8.48-4.24,12.52,12.52,0,0,1,7.92,1.27l.11.07a8.31,8.31,0,0,0-3.46-3.77A12.39,12.39,0,0,0,30.06.15a13.71,13.71,0,0,0-8.43,4.21,9.74,9.74,0,0,0-2.4,8.27A14.23,14.23,0,0,0,7.4,16.31,12.94,12.94,0,0,0,3.32,28.62,8.87,8.87,0,0,0,7.17,34.32Z"/><path class="cls-1" d="M30.88,84.87a13.55,13.55,0,0,0,7.81-2.21A9.1,9.1,0,0,0,42,76h0V71.53a5.89,5.89,0,0,0-8.91,6,.87.87,0,0,1-.72,1h-.14a.87.87,0,0,1-.86-.73,8,8,0,0,1,4.73-8.32,7.78,7.78,0,0,1,5.9.17V69.1a.73.73,0,0,0,0-.36V44.08a7.38,7.38,0,0,1-3.61,1l-.5,0a7.28,7.28,0,0,1-6-4.54,7.87,7.87,0,0,1-3.23,1.18,7.73,7.73,0,0,1-1,.06,8.21,8.21,0,0,1-6.83-3.72.87.87,0,0,1,1.47-.93,6.3,6.3,0,0,0,11.3-1.43A6.5,6.5,0,0,0,32,29.16a.87.87,0,0,1,0-1.23.88.88,0,0,1,1.23,0,8.16,8.16,0,0,1,2.12,8.34,8,8,0,0,1-2,3.14,5.56,5.56,0,0,0,4.72,4A5.84,5.84,0,0,0,42,42V36.37h0V25.85h-.42a10.24,10.24,0,0,1-4-.79,8.22,8.22,0,0,1-4.74-5.24,6.69,6.69,0,0,1,2-6.83.87.87,0,0,1,1.22.12A.86.86,0,0,1,36,14.34a5,5,0,0,0-1.46,5,6.51,6.51,0,0,0,3.75,4.1,8.41,8.41,0,0,0,3.74.64V7.9A7,7,0,0,0,40.4,6.61a10.85,10.85,0,0,0-6.81-1.05,12.12,12.12,0,0,0-7.42,3.67,8,8,0,0,0-1.94,7.16,5.55,5.55,0,0,1,6-.09.87.87,0,0,1,.26,1.2.86.86,0,0,1-1.2.26,3.67,3.67,0,0,0-5.15,4.95.86.86,0,0,1-.31,1.18.79.79,0,0,1-.44.12.87.87,0,0,1-.75-.42,5.57,5.57,0,0,1,0-5.49,12.53,12.53,0,0,0-10.81,3.2A11.17,11.17,0,0,0,8.24,32a7.12,7.12,0,0,0,3.4,4.8,5,5,0,0,1,.43-.37,6,6,0,0,1,6.12-.85.87.87,0,1,1-.74,1.57,4.26,4.26,0,0,0-4.31.65A6.63,6.63,0,0,0,10.85,42a7.4,7.4,0,0,0,.57,4.36,5.43,5.43,0,0,0,3.11,2.8,4.24,4.24,0,0,0,3.9-.68.87.87,0,0,1,1.22.12.86.86,0,0,1-.11,1.22,5.77,5.77,0,0,1-3.67,1.28A6,6,0,0,1,14,50.85a7,7,0,0,1-3.93-3.3,12.74,12.74,0,0,0-.73,19.82,10.11,10.11,0,0,0,3.34.63A8,8,0,0,0,14,67.89a10,10,0,0,0-.08,1.9,6.45,6.45,0,0,0,3.74.06,8.59,8.59,0,0,1,3.83-4.67,7.9,7.9,0,0,1-1.74-3.71,8.07,8.07,0,0,1,2.46-7.18.86.86,0,0,1,1.22.05.87.87,0,0,1-.05,1.23A6.19,6.19,0,0,0,31,65.25a.86.86,0,1,1,1,1.43A8,8,0,0,1,27.47,68a7.58,7.58,0,0,1-4.7-1.57h0a6.91,6.91,0,0,0-3.85,5.41,10.63,10.63,0,0,0,1.67,6.89A20.26,20.26,0,0,0,25,83.94c.25.09.5.16.75.23A19.72,19.72,0,0,0,30.88,84.87ZM28.66,55a.87.87,0,0,1,1.65-.54A4.86,4.86,0,1,0,38.78,50a.87.87,0,0,1,1.38-1.06,6.59,6.59,0,0,1-5.28,10.61l-.57,0A6.78,6.78,0,0,1,28.66,55Z"/><path class="cls-1" d="M19.09,79.68a12.47,12.47,0,0,1-1.92-7.93,6.75,6.75,0,0,1-1.19.1,8.74,8.74,0,0,1-1.85-.21,13.77,13.77,0,0,0,1.72,4.23,22.48,22.48,0,0,0,3.86,4.76C19.5,80.32,19.29,80,19.09,79.68Z"/><path class="cls-1" d="M3.23,57.47A14.13,14.13,0,0,1,9.38,45.92a9.6,9.6,0,0,1-.25-4.15,9.2,9.2,0,0,1,1.36-3.57,8.69,8.69,0,0,1-3.25-3.72A9,9,0,0,0,5.91,38a9.43,9.43,0,0,0,.26,4.18A14.37,14.37,0,0,0,5.13,65,14.52,14.52,0,0,1,3.23,57.47Z"/><path class="cls-2" d="M86.28,32.4a9,9,0,0,1-4,5.8,9.2,9.2,0,0,1,1.36,3.57,9.6,9.6,0,0,1-.25,4.15,13.51,13.51,0,0,1,3.19,3A9.3,9.3,0,0,0,86.8,45a8.94,8.94,0,0,0-1.38-3.62,8.86,8.86,0,0,0,4-5.78,12.93,12.93,0,0,0-4.09-12.3c-.33-.31-.67-.59-1-.86A12.75,12.75,0,0,1,86.28,32.4Z"/><path class="cls-2" d="M70.39,16.3a13.31,13.31,0,0,1,3.09-.11,10.3,10.3,0,0,0-2.39-4.82,11.45,11.45,0,0,0-2-1.77A9.63,9.63,0,0,1,70.39,16.3Z"/><path class="cls-2" d="M92.71,60.71a14.05,14.05,0,0,0-5.56-11.08,14.42,14.42,0,0,1,2.44,7.84,14.11,14.11,0,0,1-5.92,11.94,13,13,0,0,1-6.83,2.44,6.83,6.83,0,0,1-1.19-.1,12.41,12.41,0,0,1-1.92,7.93C71.1,84,67.48,87,63.78,88a19.8,19.8,0,0,1-5.14.7,14.3,14.3,0,0,1-6.73-1.54A7.86,7.86,0,0,0,54,89.67a13.59,13.59,0,0,0,7.82,2.22,19.7,19.7,0,0,0,5.12-.7c3.67-1,7.28-4,9.9-8.31a12.28,12.28,0,0,0,1.9-8A6.85,6.85,0,0,0,80,75a12.91,12.91,0,0,0,6.78-2.43A14,14,0,0,0,92.71,60.71Z"/><path class="cls-2" d="M82.75,47.55a7,7,0,0,1-3.93,3.3,6,6,0,0,1-1.87.29,5.73,5.73,0,0,1-3.66-1.28.86.86,0,0,1-.12-1.22.87.87,0,0,1,1.22-.12,4.24,4.24,0,0,0,3.9.68,5.43,5.43,0,0,0,3.11-2.8A7.32,7.32,0,0,0,82,42a6.63,6.63,0,0,0-2.29-4.2,4.26,4.26,0,0,0-4.31-.65.87.87,0,1,1-.74-1.57,6,6,0,0,1,6.12.85,5,5,0,0,1,.43.37,7.12,7.12,0,0,0,3.4-4.8A11.15,11.15,0,0,0,81,21.3,13.36,13.36,0,0,0,79.29,20a13.72,13.72,0,0,0-5.8-.34A8.64,8.64,0,0,0,73.65,18a11.87,11.87,0,0,0-3.47.15,5.57,5.57,0,0,1,0,5.49.87.87,0,0,1-.75.42.79.79,0,0,1-.44-.12.86.86,0,0,1-.31-1.18,3.67,3.67,0,0,0-5.15-4.95.86.86,0,0,1-1.2-.26.87.87,0,0,1,.26-1.2,5.55,5.55,0,0,1,6,.09,8,8,0,0,0-1.94-7.16,9.77,9.77,0,0,0-1.87-1.62,15.74,15.74,0,0,0-2.13-.44,12.45,12.45,0,0,0-7.86,1.25A7.89,7.89,0,0,0,50.7,15V24.1a8.45,8.45,0,0,0,3.85-.63,6.51,6.51,0,0,0,3.75-4.1,5,5,0,0,0-1.46-5,.86.86,0,0,1-.11-1.22A.87.87,0,0,1,58,13a6.69,6.69,0,0,1,2,6.83,8.22,8.22,0,0,1-4.74,5.24,10.24,10.24,0,0,1-4,.79H50.7V41.92a5.91,5.91,0,0,0,4.07,1.43,5.56,5.56,0,0,0,4.72-4,8,8,0,0,1-2-3.14,8.18,8.18,0,0,1,2.12-8.34.88.88,0,0,1,1.23,0,.87.87,0,0,1,0,1.23,6.3,6.3,0,1,0,9.64,8,.87.87,0,0,1,1.47.93,8.21,8.21,0,0,1-6.83,3.72,7.73,7.73,0,0,1-1-.06,7.87,7.87,0,0,1-3.23-1.18,7.27,7.27,0,0,1-6,4.54l-.5,0A7.41,7.41,0,0,1,50.7,44V69.66a7.84,7.84,0,0,1,6-.22,7.94,7.94,0,0,1,4.73,8.32.87.87,0,0,1-.86.73h-.14a.87.87,0,0,1-.72-1,5.89,5.89,0,0,0-9-5.89v4.15a.73.73,0,0,0,0,.36V83h0a5.1,5.1,0,0,0,.07,1.08,4.83,4.83,0,0,0,1,1c2.82,2,7.14,2.46,11.55,1.27,3.27-.88,6.52-3.64,8.92-7.57a10.63,10.63,0,0,0,1.67-6.89,6.91,6.91,0,0,0-3.85-5.41h0A7.58,7.58,0,0,1,65.35,68a8,8,0,0,1-4.49-1.35.86.86,0,1,1,1-1.43,6.19,6.19,0,0,0,7.65-9.68.87.87,0,0,1,1.17-1.28,8.11,8.11,0,0,1,2.47,7.18,8,8,0,0,1-1.75,3.71,8.59,8.59,0,0,1,3.83,4.67c2.4.79,5.42-.43,7.48-1.86a12.72,12.72,0,0,0,.07-20.44ZM64.16,55a6.77,6.77,0,0,1-5.65,4.51l-.57,0a6.59,6.59,0,0,1-5.28-10.61A.87.87,0,0,1,54,50a4.86,4.86,0,1,0,8.47,4.48.87.87,0,0,1,1.65.54Z"/></g></g></svg>