<svg xmlns="http://www.w3.org/2000/svg" viewBox="0 0 86.9 86.89"><defs><style>.cls-1{fill:#fff;}.cls-2{fill:none;stroke:#231f20;stroke-width:0.44px;}.cls-3{fill:#231f20;}</style></defs><title>a140</title><g id="Layer_2" data-name="Layer 2"><g id="Layer_1-2" data-name="Layer 1"><g id="a140"><rect class="cls-1" x="0.22" y="43.45" width="43.23" height="43.23"/><rect class="cls-2" x="0.22" y="43.45" width="43.23" height="43.23"/><path class="cls-1" d="M38.12,65.06A16.29,16.29,0,1,1,21.83,48.78,16.28,16.28,0,0,1,38.12,65.06"/><path class="cls-2" d="M38.12,65.06A16.29,16.29,0,1,1,21.83,48.78,16.28,16.28,0,0,1,38.12,65.06Z"/><line class="cls-1" x1="21.83" y1="48.78" x2="21.83" y2="81.34"/><line class="cls-2" x1="21.83" y1="48.78" x2="21.83" y2="81.34"/><line class="cls-1" x1="5.55" y1="65.06" x2="38.12" y2="65.06"/><line class="cls-2" x1="5.55" y1="65.06" x2="38.12" y2="65.06"/><rect class="cls-1" x="0.22" y="0.22" width="43.23" height="43.23"/><rect class="cls-2" x="0.22" y="0.22" width="43.23" height="43.23"/><polyline class="cls-1" points="10.33 39.36 21.84 19.44 33.34 39.36 10.33 39.36"/><polygon class="cls-2" points="10.33 39.36 21.84 19.44 33.34 39.36 10.33 39.36"/><path class="cls-3" d="M24.65,13a2.82,2.82,0,1,1-2.82-2.81A2.81,2.81,0,0,1,24.65,13"/><rect class="cls-1" x="43.45" y="0.22" width="43.23" height="43.23"/><rect class="cls-2" x="43.45" y="0.22" width="43.23" height="43.23"/><polyline class="cls-1" points="53.56 31.8 65.06 11.87 76.56 31.8 53.56 31.8"/><polygon class="cls-2" points="53.56 31.8 65.06 11.87 76.56 31.8 53.56 31.8"/></g></g></g></svg>