<svg xmlns="http://www.w3.org/2000/svg" viewBox="0 0 44.46 44.46"><defs><style>.cls-1{fill:none;stroke:#231f20;stroke-width:0.5px;}.cls-2{fill:#fff;}.cls-3{fill:#231f20;}</style></defs><title>a201</title><g id="Layer_2" data-name="Layer 2"><g id="Layer_1-2" data-name="Layer 1"><g id="a201"><polyline class="cls-1" points="5.21 5.72 5.21 39.24 39.24 39.24"/><path class="cls-2" d="M10.18,39.24a5,5,0,1,1-5-5,5,5,0,0,1,5,5"/><path class="cls-1" d="M10.18,39.24a5,5,0,1,1-5-5A5,5,0,0,1,10.18,39.24Z"/><path class="cls-2" d="M27.2,39.24a5,5,0,1,1-5-5,5,5,0,0,1,5,5"/><circle class="cls-1" cx="22.24" cy="39.24" r="4.97" transform="translate(-20.77 52.85) rotate(-78.02)"/><path class="cls-3" d="M44.21,39.24a5,5,0,1,1-5-5,5,5,0,0,1,5,5"/><path class="cls-1" d="M44.21,39.24a5,5,0,1,1-5-5A5,5,0,0,1,44.21,39.24Z"/><path class="cls-2" d="M10.18,22.22a5,5,0,1,1-5-5,5,5,0,0,1,5,5"/><path class="cls-1" d="M10.18,22.22a5,5,0,1,1-5-5A5,5,0,0,1,10.18,22.22Z"/><path class="cls-3" d="M10.18,5.21a5,5,0,1,1-5-5,5,5,0,0,1,5,5"/><path class="cls-1" d="M10.18,5.21a5,5,0,1,1-5-5A5,5,0,0,1,10.18,5.21Z"/></g></g></g></svg>