<svg xmlns="http://www.w3.org/2000/svg" viewBox="0 0 40.9 43.9"><defs><style>.cls-1{fill:none;stroke:#231f20;stroke-width:0.4px;}.cls-2{fill:#231f20;}</style></defs><title>a226</title><g id="Layer_2" data-name="Layer 2"><g id="Layer_1-2" data-name="Layer 1"><g id="a226"><polygon class="cls-1" points="8.28 17.26 12 10.81 15.72 17.26 8.28 17.26"/><polygon class="cls-1" points="16.7 32.4 20.41 25.96 24.14 32.4 16.7 32.4"/><path class="cls-1" d="M27.12,29.62a6.71,6.71,0,1,1-6.71-6.7A6.7,6.7,0,0,1,27.12,29.62Z"/><path class="cls-1" d="M40.58.39a15.88,15.88,0,0,1-10,3.76A15.72,15.72,0,0,1,20.44.5a15.71,15.71,0,0,1-10,3.55A15.63,15.63,0,0,1,.33.39s-3,26.71,20.12,43.26C43.56,27.1,40.58.39,40.58.39Z"/><path class="cls-2" d="M30.71,13.53a1.44,1.44,0,1,1-1.43-1.43,1.44,1.44,0,0,1,1.43,1.43"/><rect class="cls-1" x="6.66" y="8.89" width="10.67" height="10.67"/><polygon class="cls-1" points="24.45 16.6 29.28 8.23 34.11 16.6 24.45 16.6"/><path class="cls-1" d="M30.71,13.53a1.44,1.44,0,1,1-1.43-1.43A1.44,1.44,0,0,1,30.71,13.53Z"/></g></g></g></svg>