<svg xmlns="http://www.w3.org/2000/svg" viewBox="0 0 73.97 73.97"><defs><style>.cls-1{fill:#fff;}.cls-2{fill:none;stroke:#231f20;stroke-width:0.38px;}.cls-3{fill:#231f20;}</style></defs><title>a237</title><g id="Layer_2" data-name="Layer 2"><g id="Layer_1-2" data-name="Layer 1"><g id="a237"><rect class="cls-1" x="0.19" y="0.19" width="36.8" height="36.8"/><rect class="cls-2" x="0.19" y="0.19" width="36.8" height="36.8"/><line class="cls-1" x1="18.59" y1="36.99" x2="18.59" y2="0.19"/><line class="cls-2" x1="18.59" y1="36.99" x2="18.59" y2="0.19"/><path class="cls-1" d="M34.56,18.59a6.81,6.81,0,1,1-6.81-6.81,6.8,6.8,0,0,1,6.81,6.81"/><path class="cls-2" d="M34.56,18.59a6.81,6.81,0,1,1-6.81-6.81A6.8,6.8,0,0,1,34.56,18.59Z"/><rect class="cls-1" x="0.19" y="36.99" width="36.8" height="36.8"/><rect class="cls-2" x="0.19" y="36.99" width="36.8" height="36.8"/><path class="cls-3" d="M25.39,55.38a6.81,6.81,0,1,1-6.8-6.8,6.8,6.8,0,0,1,6.8,6.8"/><path class="cls-2" d="M25.39,55.38a6.81,6.81,0,1,1-6.8-6.8A6.8,6.8,0,0,1,25.39,55.38Z"/><rect class="cls-1" x="36.99" y="0.19" width="36.8" height="36.8"/><rect class="cls-2" x="36.99" y="0.19" width="36.8" height="36.8"/><path class="cls-1" d="M62.19,18.59a6.81,6.81,0,1,1-6.81-6.81,6.8,6.8,0,0,1,6.81,6.81"/><circle class="cls-2" cx="55.38" cy="18.59" r="6.81" transform="translate(24.57 68.22) rotate(-76.72)"/></g></g></g></svg>