<svg xmlns="http://www.w3.org/2000/svg" viewBox="0 0 64.58 40.62"><defs><style>.cls-1{fill:none;stroke:#231f20;stroke-width:0.44px;}.cls-2{fill:#231f20;}</style></defs><title>a412</title><g id="Layer_2" data-name="Layer 2"><g id="Layer_1-2" data-name="Layer 1"><g id="a412"><path class="cls-1" d="M38.56,11.36A3.75,3.75,0,1,1,36,6.71,3.76,3.76,0,0,1,38.56,11.36Z"/><path class="cls-1" d="M15.47,24.33a3.75,3.75,0,1,1-2.54-4.65A3.75,3.75,0,0,1,15.47,24.33Z"/><path class="cls-1" d="M41.09,22.89c-2.88,9.84-9.16,16.66-14,15.23S20.6,27.57,23.49,17.73s9.16-16.66,14-15.23S44,13.05,41.09,22.89Z"/><path class="cls-1" d="M63.92,29.59C61,39.43,44.54,43.25,27.06,38.12S-2.23,20.87.65,11,20-2.63,37.51,2.5,66.81,19.75,63.92,29.59Z"/><path class="cls-2" d="M58.44,32.8a3.75,3.75,0,1,1-2.54-4.65,3.74,3.74,0,0,1,2.54,4.65"/><path class="cls-1" d="M58.44,32.8a3.75,3.75,0,1,1-2.54-4.65A3.74,3.74,0,0,1,58.44,32.8Z"/></g></g></g></svg>