<svg xmlns="http://www.w3.org/2000/svg" viewBox="0 0 36.47 36.47"><defs><style>.cls-1{fill:none;stroke:#231f20;stroke-width:0.45px;}.cls-2{fill:#231f20;}</style></defs><title>a420</title><g id="Layer_2" data-name="Layer 2"><g id="Layer_1-2" data-name="Layer 1"><g id="a420"><rect class="cls-1" x="0.22" y="0.22" width="18.01" height="18.01"/><path class="cls-2" d="M8.48,5.33A3.15,3.15,0,1,1,5.33,2.18,3.15,3.15,0,0,1,8.48,5.33"/><rect class="cls-1" x="0.22" y="18.23" width="18.01" height="18.01"/><path class="cls-2" d="M8.48,23.34a3.15,3.15,0,1,1-3.15-3.15,3.15,3.15,0,0,1,3.15,3.15"/><rect class="cls-1" x="18.23" y="0.22" width="18.01" height="18.01"/><path class="cls-2" d="M26.49,5.33a3.15,3.15,0,1,1-3.15-3.15,3.15,3.15,0,0,1,3.15,3.15"/><rect class="cls-1" x="18.23" y="18.23" width="18.01" height="18.01"/><path class="cls-2" d="M34.29,23.34a3.16,3.16,0,1,1-3.15-3.15,3.15,3.15,0,0,1,3.15,3.15"/></g></g></g></svg>