<svg xmlns="http://www.w3.org/2000/svg" viewBox="0 0 97.12 94.27"><defs><style>.cls-1{fill:none;stroke:#231f20;stroke-width:0.41px;}.cls-2{fill:#231f20;}.cls-3{fill:#fff;}</style></defs><title>a501</title><g id="Layer_2" data-name="Layer 2"><g id="Layer_1-2" data-name="Layer 1"><g id="a501"><line class="cls-1" x1="94.61" y1="35.32" x2="58.75" y2="31.24"/><line class="cls-1" x1="92.98" y1="2.51" x2="64.86" y2="10.66"/><line class="cls-1" x1="64.25" y1="3.53" x2="65.88" y2="26.56"/><line class="cls-1" x1="85.03" y1="13.72" x2="42.31" y2="42.11"/><line class="cls-1" x1="20.44" y1="19.83" x2="2.51" y2="19.83"/><line class="cls-1" x1="35.93" y1="9.64" x2="25.13" y2="13.92"/><line class="cls-1" x1="23.5" y1="5.57" x2="27.17" y2="26.56"/><polyline class="cls-1" points="42.31 94.27 42.31 42.11 8.63 7.88"/><path class="cls-2" d="M4.82,19.83a2.31,2.31,0,1,1-2.31-2.31,2.3,2.3,0,0,1,2.31,2.31"/><path class="cls-1" d="M4.82,19.83a2.31,2.31,0,1,1-2.31-2.31A2.3,2.3,0,0,1,4.82,19.83Z"/><path class="cls-2" d="M10.93,7.88a2.31,2.31,0,1,1-2.3-2.31,2.31,2.31,0,0,1,2.3,2.31"/><path class="cls-1" d="M10.93,7.88a2.31,2.31,0,1,1-2.3-2.31A2.31,2.31,0,0,1,10.93,7.88Z"/><path class="cls-2" d="M38.24,9.64a2.31,2.31,0,1,1-2.31-2.31,2.31,2.31,0,0,1,2.31,2.31"/><path class="cls-1" d="M38.24,9.64a2.31,2.31,0,1,1-2.31-2.31A2.31,2.31,0,0,1,38.24,9.64Z"/><path class="cls-2" d="M95.29,2.51A2.31,2.31,0,1,1,93,.2a2.31,2.31,0,0,1,2.31,2.31"/><path class="cls-1" d="M95.29,2.51A2.31,2.31,0,1,1,93,.2,2.31,2.31,0,0,1,95.29,2.51Z"/><path class="cls-3" d="M25.81,5.57A2.31,2.31,0,1,1,23.5,3.26a2.32,2.32,0,0,1,2.31,2.31"/><path class="cls-1" d="M25.81,5.57A2.31,2.31,0,1,1,23.5,3.26,2.32,2.32,0,0,1,25.81,5.57Z"/><path class="cls-3" d="M66.56,3.53a2.31,2.31,0,1,1-2.31-2.31,2.31,2.31,0,0,1,2.31,2.31"/><circle class="cls-1" cx="64.25" cy="3.53" r="2.31" transform="translate(42.25 64) rotate(-73.15)"/><path class="cls-3" d="M87.34,13.72A2.31,2.31,0,1,1,85,11.41a2.31,2.31,0,0,1,2.31,2.31"/><path class="cls-1" d="M87.34,13.72A2.31,2.31,0,1,1,85,11.41,2.31,2.31,0,0,1,87.34,13.72Z"/><path class="cls-3" d="M96.92,35.32A2.31,2.31,0,1,1,94.61,33a2.32,2.32,0,0,1,2.31,2.31"/><path class="cls-1" d="M96.92,35.32A2.31,2.31,0,1,1,94.61,33,2.32,2.32,0,0,1,96.92,35.32Z"/></g></g></g></svg>