<svg xmlns="http://www.w3.org/2000/svg" viewBox="0 0 22.06 22.06"><defs><style>.cls-1{fill:#fff;}</style></defs><title>Asset 27</title><g id="Layer_2" data-name="Layer 2"><g id="Layer_1-2" data-name="Layer 1"><path class="cls-1" d="M5.59,22.06a3.81,3.81,0,0,1,1.13-2.91,3.86,3.86,0,0,1,3-1.13,3.86,3.86,0,0,1,4.12-4,3.86,3.86,0,0,1,4.11-4.05A3.92,3.92,0,0,1,19.07,7a3.86,3.86,0,0,1,3-1.12L16.17,0a3.86,3.86,0,0,1-1.12,3,3.87,3.87,0,0,1-2.92,1.13,3.86,3.86,0,0,1-4,4.12,3.88,3.88,0,0,1-4,4.12,3.86,3.86,0,0,1-1.12,3A3.87,3.87,0,0,1,0,16.48l5.59,5.58"/></g></g></svg>