<svg xmlns="http://www.w3.org/2000/svg" viewBox="0 0 8.33 23.09"><defs><style>.cls-1{fill:#fff;}</style></defs><title>Asset 25</title><g id="Layer_2" data-name="Layer 2"><g id="Layer_1-2" data-name="Layer 1"><path class="cls-1" d="M8.12,23.09a3.86,3.86,0,0,1,.05-5.77,3.87,3.87,0,0,1,.05-5.78A3.82,3.82,0,0,1,7,8.68,3.86,3.86,0,0,1,8.28,5.77,3.86,3.86,0,0,1,8.33,0H0A3.86,3.86,0,0,1,1.32,2.91,3.86,3.86,0,0,1,.05,5.77,3.86,3.86,0,0,1,1.37,8.68,3.82,3.82,0,0,1,.11,11.54a3.86,3.86,0,0,1,1.32,2.91A3.87,3.87,0,0,1,.16,17.32a3.84,3.84,0,0,1,1.32,2.91A3.89,3.89,0,0,1,.22,23.09h7.9"/></g></g></svg>