<svg xmlns="http://www.w3.org/2000/svg" viewBox="0 0 78.47 78.48"><defs><style>.cls-1{fill:none;stroke:#231f20;stroke-width:0.5px;}.cls-2{fill:#fff;}.cls-3{fill:#231f20;}</style></defs><title>b201</title><g id="Layer_2" data-name="Layer 2"><g id="Layer_1-2" data-name="Layer 1"><g id="b201"><line class="cls-1" x1="5.21" y1="22.24" x2="5.21" y2="39.26"/><line class="cls-1" x1="40.21" y1="73.26" x2="57.24" y2="73.26"/><polyline class="cls-1" points="5.21 56.24 5.21 73.26 22.24 73.26"/><path class="cls-2" d="M10.18,73.26a5,5,0,1,1-5-5,5,5,0,0,1,5,5"/><path class="cls-1" d="M10.18,73.26a5,5,0,1,1-5-5A5,5,0,0,1,10.18,73.26Z"/><path class="cls-2" d="M27.2,73.26a5,5,0,1,1-5-5,5,5,0,0,1,5,5"/><circle class="cls-1" cx="22.24" cy="73.26" r="4.97" transform="translate(-53.64 83.47) rotate(-80.78)"/><path class="cls-2" d="M44.2,73.26a5,5,0,1,1-5-5,5,5,0,0,1,5,5"/><path class="cls-1" d="M44.2,73.26a5,5,0,1,1-5-5A5,5,0,0,1,44.2,73.26Z"/><path class="cls-2" d="M61.22,73.26a5,5,0,1,1-5-5,5,5,0,0,1,5,5"/><path class="cls-1" d="M61.22,73.26a5,5,0,1,1-5-5A5,5,0,0,1,61.22,73.26Z"/><path class="cls-3" d="M78.22,73.26a5,5,0,1,1-5-5,5,5,0,0,1,5,5"/><circle class="cls-1" cx="73.26" cy="73.26" r="4.97" transform="translate(-10.79 133.84) rotate(-80.78)"/><path class="cls-2" d="M10.18,56.24a5,5,0,1,1-5-5,5,5,0,0,1,5,5"/><path class="cls-1" d="M10.18,56.24a5,5,0,1,1-5-5A5,5,0,0,1,10.18,56.24Z"/><path class="cls-2" d="M10.18,39.24a5,5,0,1,1-5-5,5,5,0,0,1,5,5"/><path class="cls-1" d="M10.18,39.24a5,5,0,1,1-5-5A5,5,0,0,1,10.18,39.24Z"/><path class="cls-2" d="M10.18,22.22a5,5,0,1,1-5-5,5,5,0,0,1,5,5"/><path class="cls-1" d="M10.18,22.22a5,5,0,1,1-5-5A5,5,0,0,1,10.18,22.22Z"/><path class="cls-3" d="M10.18,5.21a5,5,0,1,1-5-5,5,5,0,0,1,5,5"/><path class="cls-1" d="M10.18,5.21a5,5,0,1,1-5-5A5,5,0,0,1,10.18,5.21Z"/></g></g></g></svg>