<svg xmlns="http://www.w3.org/2000/svg" viewBox="0 0 54.01 53.9"><defs><style>.cls-1{fill:none;stroke:#231f20;stroke-width:0.44px;}.cls-2{fill:#231f20;}</style></defs><title>b412</title><g id="Layer_2" data-name="Layer 2"><g id="Layer_1-2" data-name="Layer 1"><g id="b412"><path class="cls-1" d="M31.84,36.75a3.74,3.74,0,1,1,5.29,0A3.73,3.73,0,0,1,31.84,36.75Z"/><path class="cls-1" d="M31.58,10.27a3.74,3.74,0,1,1,5.29,0A3.75,3.75,0,0,1,31.58,10.27Z"/><path class="cls-1" d="M20.51,33.43c-7.24-7.27-10.2-16-6.61-19.63s12.37-.59,19.61,6.68S43.7,36.53,40.11,40.1,27.74,40.69,20.51,33.43Z"/><path class="cls-1" d="M3.65,50.22C-3.59,43,1,26.65,13.9,13.8S43.12-3.58,50.36,3.69,53,27.25,40.11,40.1,10.89,57.48,3.65,50.22Z"/><path class="cls-2" d="M3.47,43.86a3.74,3.74,0,1,1,5.3,0,3.74,3.74,0,0,1-5.3,0"/><path class="cls-1" d="M3.47,43.86a3.74,3.74,0,1,1,5.3,0A3.74,3.74,0,0,1,3.47,43.86Z"/></g></g></g></svg>