<svg xmlns="http://www.w3.org/2000/svg" viewBox="0 0 101.53 93.93"><defs><style>.cls-1{fill:none;stroke:#231f20;stroke-width:0.41px;}.cls-2{fill:#fff;}.cls-3{fill:#231f20;}</style></defs><title>b501</title><g id="Layer_2" data-name="Layer 2"><g id="Layer_1-2" data-name="Layer 1"><g id="b501"><line class="cls-1" x1="94.61" y1="34.98" x2="58.75" y2="30.9"/><line class="cls-1" x1="99.02" y1="21.66" x2="82.93" y2="33.48"/><line class="cls-1" x1="85.03" y1="13.38" x2="42.31" y2="41.77"/><line class="cls-1" x1="20.44" y1="19.49" x2="2.51" y2="19.49"/><polyline class="cls-1" points="42.31 93.93 42.31 41.77 8.63 7.54"/><path class="cls-2" d="M4.82,19.49a2.31,2.31,0,1,1-2.31-2.31,2.3,2.3,0,0,1,2.31,2.31"/><path class="cls-1" d="M4.82,19.49a2.31,2.31,0,1,1-2.31-2.31A2.3,2.3,0,0,1,4.82,19.49Z"/><path class="cls-3" d="M10.93,7.54A2.31,2.31,0,1,1,8.62,5.23a2.31,2.31,0,0,1,2.31,2.31"/><line class="cls-1" x1="54.92" y1="6.98" x2="52.72" y2="34.7"/><path class="cls-1" d="M10.93,7.54A2.31,2.31,0,1,1,8.62,5.23,2.31,2.31,0,0,1,10.93,7.54Z"/><path class="cls-3" d="M57.23,7a2.31,2.31,0,1,1-2.31-2.31A2.3,2.3,0,0,1,57.23,7"/><path class="cls-1" d="M57.23,7a2.31,2.31,0,1,1-2.31-2.31A2.3,2.3,0,0,1,57.23,7Z"/><path class="cls-3" d="M37.56,12.5a2.31,2.31,0,1,1-2.31-2.31,2.32,2.32,0,0,1,2.31,2.31"/><path class="cls-1" d="M37.56,12.5a2.31,2.31,0,1,1-2.31-2.31A2.32,2.32,0,0,1,37.56,12.5Z"/><path class="cls-3" d="M28.59,2.51A2.31,2.31,0,1,1,26.28.2a2.3,2.3,0,0,1,2.31,2.31"/><path class="cls-1" d="M28.59,2.51A2.31,2.31,0,1,1,26.28.2,2.3,2.3,0,0,1,28.59,2.51Z"/><path class="cls-2" d="M101.33,21.66A2.31,2.31,0,1,1,99,19.36a2.3,2.3,0,0,1,2.31,2.3"/><circle class="cls-1" cx="99.02" cy="21.66" r="2.31" transform="translate(-0.75 39.54) rotate(-22.5)"/><path class="cls-2" d="M87.34,13.38A2.31,2.31,0,1,1,85,11.07a2.31,2.31,0,0,1,2.31,2.31"/><path class="cls-1" d="M87.34,13.38A2.31,2.31,0,1,1,85,11.07,2.31,2.31,0,0,1,87.34,13.38Z"/><path class="cls-2" d="M96.92,35a2.31,2.31,0,1,1-2.31-2.31A2.32,2.32,0,0,1,96.92,35"/><line class="cls-1" x1="27.1" y1="26.55" x2="35.25" y2="12.5"/><line class="cls-1" x1="17.73" y1="16.77" x2="26.28" y2="2.51"/><path class="cls-1" d="M96.92,35a2.31,2.31,0,1,1-2.31-2.31A2.32,2.32,0,0,1,96.92,35Z"/></g></g></g></svg>