<svg xmlns="http://www.w3.org/2000/svg" viewBox="0 0 53.61 53.61"><defs><style>.cls-1{fill:none;stroke:#231f20;stroke-width:0.43px;}.cls-2{fill:#231f20;}</style></defs><title>c106</title><g id="Layer_2" data-name="Layer 2"><g id="Layer_1-2" data-name="Layer 1"><g id="c106"><rect class="cls-1" x="35.67" y="35.67" width="17.73" height="17.73"/><rect class="cls-1" x="17.94" y="17.94" width="17.73" height="17.72"/><rect class="cls-1" x="0.22" y="17.94" width="17.73" height="17.72"/><rect class="cls-1" x="0.22" y="0.22" width="17.73" height="17.73"/><path class="cls-2" d="M11.15,8.44h-.8A1,1,0,0,0,10,7.73a1.1,1.1,0,0,0-.77-.25,1.14,1.14,0,0,0-1,.54,3.46,3.46,0,0,0-.41,1.64,1.63,1.63,0,0,1,.62-.49A1.78,1.78,0,0,1,9.28,9a1.86,1.86,0,0,1,1.39.54A2,2,0,0,1,11.2,11a2,2,0,0,1-.56,1.45A2,2,0,0,1,9.16,13a1.89,1.89,0,0,1-1.61-.73A3.44,3.44,0,0,1,7,10.16a4.42,4.42,0,0,1,.6-2.5,1.88,1.88,0,0,1,1.67-.88,2,2,0,0,1,1.35.43A1.72,1.72,0,0,1,11.15,8.44ZM10.36,11a1.34,1.34,0,0,0-.32-.94,1.09,1.09,0,0,0-.85-.35,1.22,1.22,0,0,0-.93.34,1.33,1.33,0,0,0-.34.95,1.34,1.34,0,0,0,.34,1,1.16,1.16,0,0,0,.9.36A1.1,1.1,0,0,0,10,12,1.36,1.36,0,0,0,10.36,11Z"/><path class="cls-2" d="M7.87,30.55a8.65,8.65,0,0,1,.8-2.69,9.32,9.32,0,0,1,1.67-2.39H7.05v-.79h4.12v.72a9.05,9.05,0,0,0-2.42,5.15Z"/><path class="cls-2" d="M25.73,27.32a1.31,1.31,0,0,1-.6-.5,1.39,1.39,0,0,1-.2-.76,1.41,1.41,0,0,1,.51-1.13,2.33,2.33,0,0,1,2.71,0,1.39,1.39,0,0,1,.51,1.12,1.29,1.29,0,0,1-.8,1.26,1.51,1.51,0,0,1,.76.58,1.69,1.69,0,0,1,.25.93,1.79,1.79,0,0,1-.56,1.38,2.16,2.16,0,0,1-1.52.52,2.12,2.12,0,0,1-1.51-.52,1.79,1.79,0,0,1-.56-1.38A1.62,1.62,0,0,1,25,27.9,1.53,1.53,0,0,1,25.73,27.32Zm-.17,1.49a1.15,1.15,0,0,0,.33.87,1.21,1.21,0,0,0,.9.32,1.28,1.28,0,0,0,.91-.32,1.15,1.15,0,0,0,.33-.87A1,1,0,0,0,27.7,28a1.36,1.36,0,0,0-.91-.29,1.33,1.33,0,0,0-.9.29A1,1,0,0,0,25.56,28.81Zm.18-2.69a.92.92,0,0,0,.29.7,1.11,1.11,0,0,0,.76.26,1.09,1.09,0,0,0,.76-.26.92.92,0,0,0,.29-.7.85.85,0,0,0-.28-.68,1.13,1.13,0,0,0-.77-.24,1.15,1.15,0,0,0-.77.24A.89.89,0,0,0,25.74,26.12Z"/><path class="cls-2" d="M42,48.28V44h-1.4v-.61a1.93,1.93,0,0,0,1.15-.29,1.13,1.13,0,0,0,.45-.87h.59v6.05Z"/><path class="cls-2" d="M47.37,48.28V46.79H44.74V46l2.63-3.63h.78v3.7H49v.69h-.86v1.49Zm-1.9-2.18h1.9V43.41Z"/></g></g></g></svg>