<svg xmlns="http://www.w3.org/2000/svg" viewBox="0 0 40.9 43.9"><defs><style>.cls-1{fill:none;stroke:#231f20;stroke-width:0.4px;}.cls-2{fill:#231f20;}.cls-3{fill:#fff;}</style></defs><title>c226</title><g id="Layer_2" data-name="Layer 2"><g id="Layer_1-2" data-name="Layer 1"><g id="c226"><polygon class="cls-1" points="16.5 32.92 19.43 27.85 22.35 32.92 16.5 32.92"/><path class="cls-1" d="M24.69,31.06a5.26,5.26,0,1,1-5.26-5.26A5.27,5.27,0,0,1,24.69,31.06Z"/><path class="cls-1" d="M40.58.39a15.88,15.88,0,0,1-10,3.76A15.72,15.72,0,0,1,20.44.5a15.7,15.7,0,0,1-10,3.55A15.64,15.64,0,0,1,.33.39s-3,26.71,20.12,43.26C43.56,27.1,40.58.39,40.58.39Z"/><path class="cls-2" d="M30.71,13.53a1.44,1.44,0,1,1-1.43-1.43,1.44,1.44,0,0,1,1.43,1.43"/><path class="cls-1" d="M30.71,13.53a1.44,1.44,0,1,1-1.43-1.43A1.44,1.44,0,0,1,30.71,13.53Z"/><path class="cls-3" d="M15.34,14A3.37,3.37,0,1,1,12,10.62,3.37,3.37,0,0,1,15.34,14"/><rect class="cls-1" x="5.36" y="7.37" width="13.23" height="13.23"/><polygon class="cls-1" points="24.45 16.6 29.28 8.23 34.11 16.6 24.45 16.6"/><path class="cls-1" d="M15.34,14A3.37,3.37,0,1,1,12,10.62,3.37,3.37,0,0,1,15.34,14Z"/></g></g></g></svg>