<svg xmlns="http://www.w3.org/2000/svg" viewBox="0 0 67.88 62.53"><defs><style>.cls-1{fill:none;stroke:#231f20;stroke-width:0.43px;}.cls-2{fill:#fff;}</style></defs><title>c311</title><g id="Layer_2" data-name="Layer 2"><g id="Layer_1-2" data-name="Layer 1"><g id="c311"><line class="cls-1" x1="19.52" y1="57.67" x2="19.52" y2="19.81"/><path class="cls-2" d="M19.52,33.36a5.38,5.38,0,1,1-5.37,5.38,5.38,5.38,0,0,1,5.37-5.38"/><path class="cls-1" d="M19.52,33.36a5.38,5.38,0,1,1-5.37,5.38A5.38,5.38,0,0,1,19.52,33.36Z"/><polygon class="cls-1" points="38.44 24.35 67.28 9.28 67.28 47.1 38.44 62.18 38.44 24.35"/><polygon class="cls-1" points="38.44 24.35 0.61 15.3 29.45 0.23 67.28 9.28 38.44 24.35"/><polygon class="cls-1" points="38.44 62.18 0.61 53.13 0.61 15.3 38.44 24.35 38.44 62.18"/><path class="cls-1" d="M47.89,37.8a5,5,0,0,0,6.69,3,5.88,5.88,0,0,0,3.24-7.19,4.93,4.93,0,0,0-6.68-3A5.87,5.87,0,0,0,47.89,37.8Z"/><line class="cls-1" x1="19.45" y1="19.68" x2="48.44" y2="4.9"/><line class="cls-1" x1="52.87" y1="16.78" x2="15.04" y2="7.73"/></g></g></g></svg>