<svg xmlns="http://www.w3.org/2000/svg" viewBox="0 0 66.14 37.99"><defs><style>.cls-1{fill:none;stroke:#231f20;stroke-width:0.44px;}.cls-2{fill:#231f20;}</style></defs><title>c412</title><g id="Layer_2" data-name="Layer 2"><g id="Layer_1-2" data-name="Layer 1"><g id="c412"><path class="cls-1" d="M28.54,28.94a3.74,3.74,0,1,1,3.34,4.11A3.73,3.73,0,0,1,28.54,28.94Z"/><path class="cls-1" d="M48.88,12a3.74,3.74,0,1,1,3.34,4.11A3.73,3.73,0,0,1,48.88,12Z"/><path class="cls-1" d="M24,18.06c1-10.2,6-18,11-17.53s8.28,9.2,7.23,19.4-6,18-11,17.53S22.9,28.26,24,18.06Z"/><path class="cls-1" d="M.28,15.63c1-10.2,16.57-17,34.69-15.1s31.94,11.63,30.9,21.83-16.58,17-34.69,15.1S-.77,25.83.28,15.63Z"/><path class="cls-2" d="M5.08,11.47a3.74,3.74,0,1,1,3.35,4.11,3.75,3.75,0,0,1-3.35-4.11"/><path class="cls-1" d="M5.08,11.47a3.74,3.74,0,1,1,3.35,4.11A3.75,3.75,0,0,1,5.08,11.47Z"/></g></g></g></svg>