<svg xmlns="http://www.w3.org/2000/svg" viewBox="0 0 89.77 95.89"><defs><style>.cls-1{fill:none;stroke:#231f20;stroke-width:0.41px;}.cls-2{fill:#231f20;}.cls-3{fill:#fff;}</style></defs><title>c501</title><g id="Layer_2" data-name="Layer 2"><g id="Layer_1-2" data-name="Layer 1"><g id="c501"><line class="cls-1" x1="82.84" y1="36.93" x2="46.98" y2="32.86"/><line class="cls-1" x1="87.26" y1="23.62" x2="71.16" y2="35.44"/><line class="cls-1" x1="65.87" y1="2.51" x2="54.12" y2="27.71"/><line class="cls-1" x1="69.4" y1="17.51" x2="30.55" y2="43.73"/><line class="cls-1" x1="20.44" y1="32.86" x2="2.51" y2="32.86"/><polyline class="cls-1" points="30.55 95.89 30.55 43.73 12.08 24.03"/><path class="cls-2" d="M4.82,32.86a2.31,2.31,0,1,1-2.31-2.31,2.31,2.31,0,0,1,2.31,2.31"/><path class="cls-1" d="M4.82,32.86a2.31,2.31,0,1,1-2.31-2.31A2.31,2.31,0,0,1,4.82,32.86Z"/><path class="cls-2" d="M68.17,2.51A2.31,2.31,0,1,1,65.87.2a2.3,2.3,0,0,1,2.3,2.31"/><path class="cls-1" d="M68.17,2.51A2.31,2.31,0,1,1,65.87.2,2.3,2.3,0,0,1,68.17,2.51Z"/><path class="cls-3" d="M89.57,23.62a2.31,2.31,0,1,1-2.31-2.31,2.31,2.31,0,0,1,2.31,2.31"/><circle class="cls-1" cx="87.26" cy="23.62" r="2.31" transform="translate(0.61 49.4) rotate(-31.72)"/><path class="cls-2" d="M71.71,17.51A2.31,2.31,0,1,1,69.4,15.2a2.32,2.32,0,0,1,2.31,2.31"/><circle class="cls-1" cx="69.4" cy="17.51" r="2.31"/><path class="cls-2" d="M85.15,36.93a2.31,2.31,0,1,1-2.31-2.3,2.3,2.3,0,0,1,2.31,2.3"/><line class="cls-1" x1="16.79" y1="29.27" x2="42.1" y2="16.83"/><line class="cls-1" x1="8.82" y1="32.86" x2="4.47" y2="21.31"/><path class="cls-1" d="M85.15,36.93a2.31,2.31,0,1,1-2.31-2.3A2.3,2.3,0,0,1,85.15,36.93Z"/><path class="cls-3" d="M14.38,24a2.31,2.31,0,1,1-2.3-2.31A2.31,2.31,0,0,1,14.38,24"/><circle class="cls-1" cx="12.08" cy="24.03" r="2.31"/><path class="cls-3" d="M44.4,16.83a2.31,2.31,0,1,1-2.3-2.31,2.3,2.3,0,0,1,2.3,2.31"/><path class="cls-1" d="M44.4,16.83a2.31,2.31,0,1,1-2.3-2.31A2.3,2.3,0,0,1,44.4,16.83Z"/><path class="cls-3" d="M6.78,21.31A2.31,2.31,0,1,1,4.47,19a2.31,2.31,0,0,1,2.31,2.31"/><path class="cls-1" d="M6.78,21.31A2.31,2.31,0,1,1,4.47,19,2.31,2.31,0,0,1,6.78,21.31Z"/></g></g></g></svg>