<svg xmlns="http://www.w3.org/2000/svg" viewBox="0 0 53.61 53.61"><defs><style>.cls-1{fill:none;stroke:#231f20;stroke-width:0.43px;}.cls-2{fill:#231f20;}</style></defs><title>d106</title><g id="Layer_2" data-name="Layer 2"><g id="Layer_1-2" data-name="Layer 1"><g id="d106"><rect class="cls-1" x="35.67" y="35.67" width="17.72" height="17.73"/><rect class="cls-1" x="17.94" y="17.94" width="17.73" height="17.72"/><rect class="cls-1" x="0.22" y="17.94" width="17.73" height="17.72"/><rect class="cls-1" x="0.22" y="0.22" width="17.73" height="17.73"/><path class="cls-2" d="M6.93,11.26h.8a1.14,1.14,0,0,0,.39.73,1.2,1.2,0,0,0,.81.27,1.27,1.27,0,0,0,1.34-1.34,1.34,1.34,0,0,0-.35-1,1.3,1.3,0,0,0-1-.37,1.53,1.53,0,0,0-.64.14,1.42,1.42,0,0,0-.5.42H7.11L7.58,7h3.21v.71H8.15L7.91,9.28A1.55,1.55,0,0,1,8.43,9a1.91,1.91,0,0,1,.64-.1,2,2,0,0,1,1.48.55,1.88,1.88,0,0,1,.56,1.44A2,2,0,0,1,9,13a2.12,2.12,0,0,1-1.41-.47A1.83,1.83,0,0,1,6.93,11.26Z"/><path class="cls-2" d="M7.87,30.55a8.39,8.39,0,0,1,.8-2.69,9.53,9.53,0,0,1,1.66-2.39H7.05v-.79h4.12v.72a9,9,0,0,0-1.63,2.39,9.44,9.44,0,0,0-.79,2.76Z"/><path class="cls-2" d="M24.72,29.07h.8a.9.9,0,0,0,.3.7,1.25,1.25,0,0,0,1.79-.28A3.46,3.46,0,0,0,28,27.85a1.73,1.73,0,0,1-.62.49A2,2,0,0,1,25.2,28a2,2,0,0,1-.53-1.45,1.94,1.94,0,0,1,.56-1.46,2,2,0,0,1,1.47-.56,1.93,1.93,0,0,1,1.62.74,3.35,3.35,0,0,1,.56,2.1,4.5,4.5,0,0,1-.59,2.51,1.93,1.93,0,0,1-1.7.88,2,2,0,0,1-1.36-.45A1.54,1.54,0,0,1,24.72,29.07Zm.79-2.55a1.32,1.32,0,0,0,.32.93,1.09,1.09,0,0,0,.85.35,1.22,1.22,0,0,0,.92-.35,1.26,1.26,0,0,0,.34-.94,1.33,1.33,0,0,0-.33-1,1.16,1.16,0,0,0-.9-.36,1.12,1.12,0,0,0-.87.36A1.39,1.39,0,0,0,25.51,26.52Z"/><path class="cls-2" d="M42,48.28V44h-1.4v-.61a1.93,1.93,0,0,0,1.15-.29,1.19,1.19,0,0,0,.45-.87h.59v6.05Z"/><path class="cls-2" d="M44.72,46.4h.79a1.42,1.42,0,0,0,.35,1,1.25,1.25,0,0,0,.94.35,1.3,1.3,0,0,0,.93-.32,1.12,1.12,0,0,0,.34-.87,1,1,0,0,0-.33-.79,1.44,1.44,0,0,0-.94-.28l-.4,0h0v-.68h.26a1.62,1.62,0,0,0,.94-.22.85.85,0,0,0,.28-.71.92.92,0,0,0-.27-.71,1.15,1.15,0,0,0-.79-.24,1.11,1.11,0,0,0-.86.32,1.38,1.38,0,0,0-.3,1h-.77v0a1.91,1.91,0,0,1,.52-1.42,1.78,1.78,0,0,1,1.37-.53,2.14,2.14,0,0,1,1.43.43,1.46,1.46,0,0,1,.51,1.19,1.43,1.43,0,0,1-.19.74,1.21,1.21,0,0,1-.57.47,1.39,1.39,0,0,1,.73.55,1.61,1.61,0,0,1,.25.93,1.74,1.74,0,0,1-.59,1.39,2.26,2.26,0,0,1-1.57.52,1.89,1.89,0,0,1-2-2Z"/></g></g></g></svg>