<svg xmlns="http://www.w3.org/2000/svg" viewBox="0 0 31.97 31.97"><defs><style>.cls-1{fill:none;stroke:#231f20;stroke-width:0.5px;}.cls-2{fill:#fff;}</style></defs><title>d220</title><g id="Layer_2" data-name="Layer 2"><g id="Layer_1-2" data-name="Layer 1"><g id="d220"><rect class="cls-1" x="0.25" y="0.25" width="31.47" height="31.47"/><path class="cls-2" d="M11.71,9.7A2.89,2.89,0,1,1,8.82,6.81,2.89,2.89,0,0,1,11.71,9.7"/><path class="cls-1" d="M11.71,9.7A2.89,2.89,0,1,1,8.82,6.81,2.89,2.89,0,0,1,11.71,9.7Z"/><path class="cls-2" d="M26,10.51a2.89,2.89,0,1,1-2.89-2.9A2.89,2.89,0,0,1,26,10.51"/><path class="cls-1" d="M26,10.51a2.89,2.89,0,1,1-2.89-2.9A2.89,2.89,0,0,1,26,10.51Z"/><path class="cls-2" d="M15.21,19.26a2.89,2.89,0,1,1-2.89-2.89,2.89,2.89,0,0,1,2.89,2.89"/><path class="cls-1" d="M15.21,19.26a2.89,2.89,0,1,1-2.89-2.89A2.89,2.89,0,0,1,15.21,19.26Z"/></g></g></g></svg>