<svg xmlns="http://www.w3.org/2000/svg" viewBox="0 0 40.9 43.9"><defs><style>.cls-1{fill:none;stroke:#231f20;stroke-width:0.4px;}.cls-2{fill:#231f20;}</style></defs><title>d226</title><g id="Layer_2" data-name="Layer 2"><g id="Layer_1-2" data-name="Layer 1"><g id="d226"><circle class="cls-1" cx="19.71" cy="24.92" r="2.44"/><polygon class="cls-1" points="26.16 16.2 29.09 11.13 32.01 16.2 26.16 16.2"/><circle class="cls-1" cx="29.08" cy="14.34" r="4.05" transform="translate(1.59 31.54) rotate(-58.28)"/><path class="cls-1" d="M40.58.39a15.88,15.88,0,0,1-10,3.76A15.72,15.72,0,0,1,20.44.5a15.71,15.71,0,0,1-10,3.55A15.63,15.63,0,0,1,.33.39s-3,26.71,20.12,43.26C43.56,27.1,40.58.39,40.58.39Z"/><path class="cls-2" d="M8.88,9.77A1.44,1.44,0,1,1,7.44,8.34,1.43,1.43,0,0,1,8.88,9.77"/><rect class="cls-1" x="3.5" y="5.82" width="7.9" height="7.9"/><polygon class="cls-1" points="11.48 30.14 19.71 15.9 27.93 30.14 11.48 30.14"/><path class="cls-1" d="M8.88,9.77A1.44,1.44,0,1,1,7.44,8.34,1.43,1.43,0,0,1,8.88,9.77Z"/></g></g></g></svg>