<svg xmlns="http://www.w3.org/2000/svg" viewBox="0 0 67.88 62.53"><defs><style>.cls-1{fill:none;stroke:#231f20;stroke-width:0.43px;}.cls-2{fill:#fff;}</style></defs><title>d311</title><g id="Layer_2" data-name="Layer 2"><g id="Layer_1-2" data-name="Layer 1"><g id="d311"><polygon class="cls-1" points="38.44 24.35 67.28 9.28 67.28 47.1 38.44 62.18 38.44 24.35"/><polygon class="cls-1" points="38.44 24.35 0.61 15.3 29.45 0.23 67.28 9.28 38.44 24.35"/><polygon class="cls-1" points="38.44 62.18 0.61 53.13 0.61 15.3 38.44 24.35 38.44 62.18"/><line class="cls-1" x1="53.43" y1="16.53" x2="15.6" y2="7.48"/><line class="cls-1" x1="67.27" y1="28.19" x2="38.44" y2="43.26"/><line class="cls-1" x1="52.86" y1="16.81" x2="52.86" y2="54.64"/><path class="cls-2" d="M41.61,12c-.69,2.42-4.43,4.38-8.35,4.38s-6.54-2-5.84-4.38,4.43-4.38,8.35-4.38,6.54,2,5.84,4.38"/><line class="cls-1" x1="0.61" y1="53.13" x2="38.44" y2="24.35"/><path class="cls-1" d="M41.61,12c-.69,2.42-4.43,4.38-8.35,4.38s-6.54-2-5.84-4.38,4.43-4.38,8.35-4.38S42.31,9.58,41.61,12Z"/></g></g></g></svg>