<svg xmlns="http://www.w3.org/2000/svg" viewBox="0 0 38.1 66.08"><defs><style>.cls-1{fill:none;stroke:#231f20;stroke-width:0.44px;}.cls-2{fill:#231f20;}</style></defs><title>d412</title><g id="Layer_2" data-name="Layer 2"><g id="Layer_1-2" data-name="Layer 1"><g id="d412"><path class="cls-1" d="M29.74,35.32A3.75,3.75,0,1,1,33,31.16,3.74,3.74,0,0,1,29.74,35.32Z"/><path class="cls-1" d="M8.79,19.12A3.75,3.75,0,1,1,12.07,15,3.75,3.75,0,0,1,8.79,19.12Z"/><path class="cls-1" d="M20.11,42.15c-10.19,1.18-18.92-1.94-19.5-7S7.81,25.11,18,23.92s18.92,1.94,19.5,7S30.29,41,20.11,42.15Z"/><path class="cls-1" d="M22.85,65.79C12.67,67,2.71,53.27.61,35.18S5.07,1.47,15.25.29,35.39,12.81,37.49,30.9,33,64.6,22.85,65.79Z"/><path class="cls-2" d="M17.75,62A3.74,3.74,0,1,1,21,57.84,3.74,3.74,0,0,1,17.75,62"/><path class="cls-1" d="M17.75,62A3.74,3.74,0,1,1,21,57.84,3.74,3.74,0,0,1,17.75,62Z"/></g></g></g></svg>