<svg xmlns="http://www.w3.org/2000/svg" viewBox="0 0 71.58 102.89"><defs><style>.cls-1{fill:none;stroke:#231f20;stroke-width:0.41px;}.cls-2{fill:#231f20;}.cls-3{fill:#fff;}</style></defs><title>d501</title><g id="Layer_2" data-name="Layer 2"><g id="Layer_1-2" data-name="Layer 1"><g id="d501"><line class="cls-1" x1="69.07" y1="38.17" x2="56.98" y2="33.35"/><line class="cls-1" x1="33.82" y1="5.36" x2="53.18" y2="13.31"/><line class="cls-1" x1="52.77" y1="2.51" x2="54.47" y2="35.18"/><line class="cls-1" x1="62.55" y1="29.41" x2="30.9" y2="50.73"/><line class="cls-1" x1="20.44" y1="39.87" x2="2.51" y2="39.87"/><polyline class="cls-1" points="30.9 102.89 30.9 50.73 9.03 28.46"/><path class="cls-2" d="M4.82,39.87a2.31,2.31,0,1,1-2.31-2.31,2.31,2.31,0,0,1,2.31,2.31"/><path class="cls-1" d="M4.82,39.87a2.31,2.31,0,1,1-2.31-2.31A2.31,2.31,0,0,1,4.82,39.87Z"/><path class="cls-2" d="M11.34,28.46A2.31,2.31,0,1,1,9,26.15a2.31,2.31,0,0,1,2.31,2.31"/><path class="cls-1" d="M11.34,28.46A2.31,2.31,0,1,1,9,26.15,2.31,2.31,0,0,1,11.34,28.46Z"/><path class="cls-3" d="M55.08,2.51A2.31,2.31,0,1,1,52.77.2a2.3,2.3,0,0,1,2.31,2.31"/><path class="cls-1" d="M55.08,2.51A2.31,2.31,0,1,1,52.77.2,2.3,2.3,0,0,1,55.08,2.51Z"/><path class="cls-2" d="M35.52,18.4a2.31,2.31,0,1,1-2.31-2.3,2.3,2.3,0,0,1,2.31,2.3"/><path class="cls-1" d="M35.52,18.4a2.31,2.31,0,1,1-2.31-2.3A2.3,2.3,0,0,1,35.52,18.4Z"/><path class="cls-3" d="M36.13,5.36a2.31,2.31,0,1,1-2.31-2.3,2.3,2.3,0,0,1,2.31,2.3"/><circle class="cls-1" cx="33.82" cy="5.36" r="2.31"/><path class="cls-2" d="M64.86,29.41a2.31,2.31,0,1,1-2.31-2.31,2.31,2.31,0,0,1,2.31,2.31"/><path class="cls-1" d="M64.86,29.41a2.31,2.31,0,1,1-2.31-2.31A2.31,2.31,0,0,1,64.86,29.41Z"/><path class="cls-3" d="M71.38,38.17a2.31,2.31,0,1,1-2.31-2.31,2.31,2.31,0,0,1,2.31,2.31"/><line class="cls-1" x1="15.69" y1="35.52" x2="33.21" y2="18.4"/><line class="cls-1" x1="24.04" y1="26.99" x2="17.73" y2="14.36"/><path class="cls-1" d="M71.38,38.17a2.31,2.31,0,1,1-2.31-2.31A2.31,2.31,0,0,1,71.38,38.17Z"/><path class="cls-3" d="M20,14.36a2.31,2.31,0,1,1-2.31-2.31A2.32,2.32,0,0,1,20,14.36"/><path class="cls-1" d="M20,14.36a2.31,2.31,0,1,1-2.31-2.31A2.32,2.32,0,0,1,20,14.36Z"/></g></g></g></svg>