<svg xmlns="http://www.w3.org/2000/svg" viewBox="0 0 65.52 60.36"><defs><style>.cls-1{fill:none;stroke:#231f20;stroke-width:0.41px;}.cls-2{fill:#231f20;}</style></defs><title>e216</title><g id="Layer_2" data-name="Layer 2"><g id="Layer_1-2" data-name="Layer 1"><g id="e216"><polygon class="cls-1" points="37.1 23.5 64.94 8.96 64.94 45.47 37.1 60.02 37.1 23.5"/><polygon class="cls-1" points="37.1 23.5 0.59 14.77 28.42 0.22 64.94 8.96 37.1 23.5"/><polygon class="cls-1" points="37.1 60.02 0.59 51.28 0.59 14.77 37.1 23.5 37.1 60.02"/><line class="cls-1" x1="36.96" y1="47.08" x2="0.45" y2="38.34"/><line class="cls-1" x1="0.45" y1="27.95" x2="36.96" y2="36.68"/><path class="cls-2" d="M40.84,11.86c-.79,2.75-5,5-9.5,5s-7.44-2.23-6.65-5,5-5,9.5-5,7.44,2.23,6.65,5"/><path class="cls-1" d="M40.84,11.86c-.79,2.75-5,5-9.5,5s-7.44-2.23-6.65-5,5-5,9.5-5S41.63,9.11,40.84,11.86Z"/><line class="cls-1" x1="37.1" y1="60.02" x2="64.94" y2="8.95"/><line class="cls-1" x1="37.1" y1="23.5" x2="64.94" y2="45.47"/><line class="cls-1" x1="18.15" y1="32.14" x2="18.15" y2="19.06"/><line class="cls-1" x1="18.15" y1="55.6" x2="18.15" y2="42.73"/></g></g></g></svg>