<svg xmlns="http://www.w3.org/2000/svg" viewBox="0 0 62.31 57.4"><defs><style>.cls-1{fill:#231f20;}.cls-2{fill:none;stroke:#231f20;stroke-width:0.4px;}.cls-3{fill:#fff;}</style></defs><title>e240</title><g id="Layer_2" data-name="Layer 2"><g id="Layer_1-2" data-name="Layer 1"><g id="e240"><path class="cls-1" d="M20.62,35.9A4.94,4.94,0,1,1,15.68,31a4.94,4.94,0,0,1,4.94,4.94"/><path class="cls-2" d="M20.62,35.9A4.94,4.94,0,1,1,15.68,31,4.94,4.94,0,0,1,20.62,35.9Z"/><polygon class="cls-2" points="35.28 22.35 61.75 8.52 61.75 43.24 35.28 57.08 35.28 22.35"/><polygon class="cls-2" points="35.28 22.35 0.56 14.04 27.03 0.21 61.75 8.52 35.28 22.35"/><polygon class="cls-2" points="35.28 57.08 0.56 48.77 0.56 14.04 35.28 22.35 35.28 57.08"/><path class="cls-3" d="M35.64,11c-.56,2-3.58,3.54-6.75,3.54S23.6,13,24.16,11s3.58-3.54,6.75-3.54S36.2,9.06,35.64,11"/><path class="cls-2" d="M40.6,37a7.43,7.43,0,0,0,10,4.57A8.82,8.82,0,0,0,55.53,30.8a7.43,7.43,0,0,0-10.05-4.57A8.83,8.83,0,0,0,40.6,37Z"/><path class="cls-2" d="M43.51,35.83a4.53,4.53,0,0,0,6.13,2.78,5.38,5.38,0,0,0,3-6.59,4.54,4.54,0,0,0-6.13-2.79A5.39,5.39,0,0,0,43.51,35.83Z"/><path class="cls-2" d="M42.18,11c-1.2,4.18-7.67,7.57-14.44,7.57S16.43,15.2,17.62,11s7.66-7.58,14.44-7.58S43.37,6.84,42.18,11Z"/><path class="cls-2" d="M38.92,10c-.54,3.17-5,6.18-10,6.72s-8.58-1.6-8-4.76,5-6.18,10-6.72S39.47,6.87,38.92,10Z"/><path class="cls-2" d="M35.64,11c-.56,2-3.58,3.54-6.75,3.54S23.6,13,24.16,11s3.58-3.54,6.75-3.54S36.2,9.06,35.64,11Z"/></g></g></g></svg>