<svg xmlns="http://www.w3.org/2000/svg" viewBox="0 0 67.88 62.53"><defs><style>.cls-1{fill:none;stroke:#231f20;stroke-width:0.43px;}.cls-2{fill:#fff;}</style></defs><title>e311</title><g id="Layer_2" data-name="Layer 2"><g id="Layer_1-2" data-name="Layer 1"><g id="e311"><polygon class="cls-1" points="38.44 24.35 67.28 9.28 67.28 47.1 38.44 62.18 38.44 24.35"/><polygon class="cls-1" points="38.44 24.35 0.61 15.3 29.45 0.23 67.28 9.28 38.44 24.35"/><line class="cls-1" x1="18.98" y1="57.64" x2="18.98" y2="19.81"/><line class="cls-1" x1="38.44" y1="43.26" x2="0.61" y2="34.21"/><polygon class="cls-1" points="38.44 62.18 0.61 53.13 0.61 15.3 38.44 24.35 38.44 62.18"/><line class="cls-1" x1="18.98" y1="19.81" x2="48.78" y2="4.61"/><path class="cls-2" d="M41.83,11.75c-.69,2.42-4.43,4.38-8.35,4.38s-6.54-2-5.84-4.38S32.06,7.37,36,7.37s6.53,2,5.84,4.38"/><line class="cls-1" x1="67.27" y1="47.1" x2="38.44" y2="24.35"/><line class="cls-1" x1="41.21" y1="13.18" x2="28.6" y2="10.16"/><path class="cls-1" d="M41.83,11.75c-.69,2.42-4.43,4.38-8.35,4.38s-6.54-2-5.84-4.38S32.06,7.37,36,7.37,42.52,9.33,41.83,11.75Z"/></g></g></g></svg>