<svg xmlns="http://www.w3.org/2000/svg" viewBox="0 0 46.46 60.53"><defs><style>.cls-1{fill:none;stroke:#231f20;stroke-width:0.44px;}.cls-2{fill:#231f20;}</style></defs><title>e412</title><g id="Layer_2" data-name="Layer 2"><g id="Layer_1-2" data-name="Layer 1"><g id="e412"><path class="cls-1" d="M12.55,28.22a3.74,3.74,0,1,1,5.11-1.37A3.74,3.74,0,0,1,12.55,28.22Z"/><path class="cls-1" d="M37.66,20.29a3.75,3.75,0,1,1,5.12-1.38A3.75,3.75,0,0,1,37.66,20.29Z"/><path class="cls-1" d="M18.65,38.21C9.77,33.1,4.61,25.39,7.14,21s11.78-3.81,20.67,1.31,14,12.82,11.51,17.21S27.54,43.33,18.65,38.21Z"/><path class="cls-1" d="M6.78,58.83c-8.89-5.11-8.72-22,.36-37.83S30.79-3.42,39.68,1.69s8.72,22.06-.36,37.83S15.67,64,6.78,58.83Z"/><path class="cls-2" d="M5,52.75a3.74,3.74,0,1,1,5.11-1.38A3.75,3.75,0,0,1,5,52.75"/><path class="cls-1" d="M5,52.75a3.74,3.74,0,1,1,5.11-1.38A3.75,3.75,0,0,1,5,52.75Z"/></g></g></g></svg>