<svg xmlns="http://www.w3.org/2000/svg" viewBox="0 0 106.08 100.18"><defs><style>.cls-1{fill:none;stroke:#231f20;stroke-width:0.41px;}.cls-2{fill:#231f20;}.cls-3{fill:#fff;}</style></defs><title>e501</title><g id="Layer_2" data-name="Layer 2"><g id="Layer_1-2" data-name="Layer 1"><g id="e501"><line class="cls-1" x1="101.54" y1="41.63" x2="60.58" y2="37.15"/><line class="cls-1" x1="103.57" y1="21.46" x2="82.99" y2="39.39"/><line class="cls-1" x1="75.86" y1="2.51" x2="77.49" y2="25.54"/><line class="cls-1" x1="86.86" y1="19.63" x2="44.15" y2="48.02"/><line class="cls-1" x1="22.28" y1="25.74" x2="2.51" y2="25.74"/><line class="cls-1" x1="38.17" y1="8.22" x2="39.19" y2="26.55"/><line class="cls-1" x1="50.19" y1="20.65" x2="29" y2="32.46"/><polyline class="cls-1" points="44.15 100.18 44.15 48.02 10.46 13.79"/><path class="cls-2" d="M4.82,25.74a2.31,2.31,0,1,1-2.31-2.31,2.31,2.31,0,0,1,2.31,2.31"/><circle class="cls-1" cx="2.51" cy="25.74" r="2.31"/><path class="cls-2" d="M12.77,13.79a2.31,2.31,0,1,1-2.31-2.31,2.32,2.32,0,0,1,2.31,2.31"/><circle class="cls-1" cx="10.46" cy="13.79" r="2.31"/><path class="cls-2" d="M40.48,8.22a2.31,2.31,0,1,1-2.31-2.31,2.32,2.32,0,0,1,2.31,2.31"/><circle class="cls-1" cx="38.17" cy="8.22" r="2.31"/><path class="cls-3" d="M105.88,21.46a2.31,2.31,0,1,1-2.31-2.31,2.3,2.3,0,0,1,2.31,2.31"/><circle class="cls-1" cx="103.57" cy="21.46" r="2.31"/><path class="cls-3" d="M52.5,20.65a2.31,2.31,0,1,1-2.31-2.31,2.31,2.31,0,0,1,2.31,2.31"/><path class="cls-1" d="M52.5,20.65a2.31,2.31,0,1,1-2.31-2.31A2.31,2.31,0,0,1,52.5,20.65Z"/><path class="cls-2" d="M78.17,2.51A2.31,2.31,0,1,1,75.86.2a2.3,2.3,0,0,1,2.31,2.31"/><circle class="cls-1" cx="75.86" cy="2.51" r="2.31"/><path class="cls-3" d="M89.17,19.63a2.31,2.31,0,1,1-2.31-2.31,2.31,2.31,0,0,1,2.31,2.31"/><path class="cls-1" d="M89.17,19.63a2.31,2.31,0,1,1-2.31-2.31A2.31,2.31,0,0,1,89.17,19.63Z"/><path class="cls-3" d="M103.84,41.63a2.31,2.31,0,1,1-2.3-2.31,2.3,2.3,0,0,1,2.3,2.31"/><path class="cls-1" d="M103.84,41.63a2.31,2.31,0,1,1-2.3-2.31A2.3,2.3,0,0,1,103.84,41.63Z"/></g></g></g></svg>