<svg xmlns="http://www.w3.org/2000/svg" viewBox="0 0 36.44 36.44"><defs><style>.cls-1{fill:none;stroke:#231f20;stroke-width:0.44px;}</style></defs><title>f121</title><g id="Layer_2" data-name="Layer 2"><g id="Layer_1-2" data-name="Layer 1"><g id="f121"><rect class="cls-1" x="0.22" y="0.22" width="36" height="36"/><path class="cls-1" d="M16.17,14.13V28.54h4.12V14.11a13.07,13.07,0,0,0,3.57.74A17.89,17.89,0,0,1,18.23,8a16.91,16.91,0,0,1-5.62,6.86A11.34,11.34,0,0,0,16.17,14.13Z"/><path class="cls-1" d="M8.94,22.4V8H4.82V22.41a13.36,13.36,0,0,0-3.56-.73,17.63,17.63,0,0,1,5.62,6.86,16.86,16.86,0,0,1,5.62-6.86A11.17,11.17,0,0,0,8.94,22.4Z"/><path class="cls-1" d="M31.65,22.4V8H27.53V22.41A13.44,13.44,0,0,0,24,21.68a17.81,17.81,0,0,1,5.62,6.86,16.78,16.78,0,0,1,5.62-6.86A11.11,11.11,0,0,0,31.65,22.4Z"/></g></g></g></svg>