<svg xmlns="http://www.w3.org/2000/svg" viewBox="0 0 23.21 23.21"><defs><style>.cls-1{fill:#231f20;}.cls-2{fill:none;stroke:#231f20;stroke-width:0.45px;}</style></defs><title>f221</title><g id="Layer_2" data-name="Layer 2"><g id="Layer_1-2" data-name="Layer 1"><g id="f221"><path class="cls-1" d="M6.15,22.64a3.86,3.86,0,0,1,4.12-4,3.88,3.88,0,0,1,4.12-4.05,3.88,3.88,0,0,1,4.12-4,3.86,3.86,0,0,1,4.12-4L16.74.58a3.87,3.87,0,0,1-1.13,3A3.84,3.84,0,0,1,12.7,4.7a3.88,3.88,0,0,1-4,4.12,3.86,3.86,0,0,1-1.12,3,3.92,3.92,0,0,1-2.92,1.13,3.87,3.87,0,0,1-1.13,3A3.88,3.88,0,0,1,.57,17.06l5.58,5.58"/><path id="f221-2" data-name="f221" class="cls-2" d="M6.15,22.64a3.86,3.86,0,0,1,4.12-4,3.88,3.88,0,0,1,4.12-4.05,3.88,3.88,0,0,1,4.12-4,3.86,3.86,0,0,1,4.12-4L16.74.58a3.87,3.87,0,0,1-1.13,3A3.84,3.84,0,0,1,12.7,4.7a3.88,3.88,0,0,1-4,4.12,3.86,3.86,0,0,1-1.12,3,3.92,3.92,0,0,1-2.92,1.13,3.87,3.87,0,0,1-1.13,3A3.88,3.88,0,0,1,.57,17.06Z"/></g></g></g></svg>