<svg xmlns="http://www.w3.org/2000/svg" viewBox="0 0 87.68 94.52"><defs><style>.cls-1{fill:none;stroke:#231f20;stroke-width:0.41px;}.cls-2{fill:#fff;}.cls-3{fill:#231f20;}</style></defs><title>f501</title><g id="Layer_2" data-name="Layer 2"><g id="Layer_1-2" data-name="Layer 1"><g id="f501"><line class="cls-1" x1="85.17" y1="31.09" x2="69.48" y2="31.5"/><line class="cls-1" x1="80.07" y1="6.43" x2="55.62" y2="17.03"/><line class="cls-1" x1="46.96" y1="12.24" x2="74.78" y2="27.62"/><line class="cls-1" x1="84.96" y1="20.9" x2="53.04" y2="42.36"/><line class="cls-1" x1="27.91" y1="23.75" x2="2.51" y2="44.13"/><line class="cls-1" x1="24.47" y1="2.51" x2="36.74" y2="16.18"/><line class="cls-1" x1="41.63" y1="4.69" x2="32.48" y2="27.16"/><polyline class="cls-1" points="53.04 94.52 53.04 42.36 19.76 18.05"/><path class="cls-2" d="M4.82,44.13a2.31,2.31,0,1,1-2.31-2.31,2.31,2.31,0,0,1,2.31,2.31"/><circle class="cls-1" cx="2.51" cy="44.13" r="2.31"/><path class="cls-3" d="M22.07,18.05a2.31,2.31,0,1,1-2.31-2.31,2.31,2.31,0,0,1,2.31,2.31"/><path class="cls-1" d="M22.07,18.05a2.31,2.31,0,1,1-2.31-2.31A2.31,2.31,0,0,1,22.07,18.05Z"/><path class="cls-3" d="M26.27,1.07A2.31,2.31,0,1,1,23,.71a2.3,2.3,0,0,1,3.24.36"/><path class="cls-1" d="M26.27,1.07A2.31,2.31,0,1,1,23,.71,2.3,2.3,0,0,1,26.27,1.07Z"/><path class="cls-2" d="M82.38,6.43a2.31,2.31,0,1,1-2.31-2.3,2.3,2.3,0,0,1,2.31,2.3"/><path class="cls-1" d="M82.38,6.43a2.31,2.31,0,1,1-2.31-2.3A2.3,2.3,0,0,1,82.38,6.43Z"/><path class="cls-3" d="M43.43,3.25a2.31,2.31,0,1,1-3.25-.36,2.31,2.31,0,0,1,3.25.36"/><path class="cls-1" d="M43.43,3.25a2.31,2.31,0,1,1-3.25-.36A2.31,2.31,0,0,1,43.43,3.25Z"/><path class="cls-3" d="M49.27,12.24A2.31,2.31,0,1,1,47,9.93a2.3,2.3,0,0,1,2.31,2.31"/><path class="cls-1" d="M49.27,12.24A2.31,2.31,0,1,1,47,9.93,2.3,2.3,0,0,1,49.27,12.24Z"/><path class="cls-2" d="M87.27,20.9A2.31,2.31,0,1,1,85,18.59a2.31,2.31,0,0,1,2.31,2.31"/><path class="cls-1" d="M87.27,20.9A2.31,2.31,0,1,1,85,18.59,2.31,2.31,0,0,1,87.27,20.9Z"/><path class="cls-2" d="M87.48,31.09a2.31,2.31,0,1,1-2.31-2.31,2.32,2.32,0,0,1,2.31,2.31"/><path class="cls-1" d="M87.48,31.09a2.31,2.31,0,1,1-2.31-2.31A2.32,2.32,0,0,1,87.48,31.09Z"/></g></g></g></svg>