<svg xmlns="http://www.w3.org/2000/svg" viewBox="0 0 9.52 23.53"><defs><style>.cls-1{fill:#fff;}.cls-2{fill:none;stroke:#231f20;stroke-width:0.45px;}</style></defs><title>h221</title><g id="Layer_2" data-name="Layer 2"><g id="Layer_1-2" data-name="Layer 1"><g id="h221"><path class="cls-1" d="M8.71,23.31a3.86,3.86,0,0,1,0-5.77,3.88,3.88,0,0,1,.05-5.77A3.89,3.89,0,0,1,7.55,8.91,3.84,3.84,0,0,1,8.87,6,3.87,3.87,0,0,1,8.92.22H.59A3.86,3.86,0,0,1,1.91,3.13,3.89,3.89,0,0,1,.65,6,3.84,3.84,0,0,1,2,8.91,3.86,3.86,0,0,1,.7,11.77,3.86,3.86,0,0,1,2,14.68,3.89,3.89,0,0,1,.76,17.54a3.88,3.88,0,0,1,1.31,2.91A3.85,3.85,0,0,1,.81,23.31h7.9"/><path id="h221-2" data-name="h221" class="cls-2" d="M8.71,23.31a3.86,3.86,0,0,1,0-5.77,3.88,3.88,0,0,1,.05-5.77A3.89,3.89,0,0,1,7.55,8.91,3.84,3.84,0,0,1,8.87,6,3.87,3.87,0,0,1,8.92.22H.59A3.86,3.86,0,0,1,1.91,3.13,3.89,3.89,0,0,1,.65,6,3.84,3.84,0,0,1,2,8.91,3.86,3.86,0,0,1,.7,11.77,3.86,3.86,0,0,1,2,14.68,3.89,3.89,0,0,1,.76,17.54a3.88,3.88,0,0,1,1.31,2.91A3.85,3.85,0,0,1,.81,23.31Z"/></g></g></g></svg>