<svg xmlns="http://www.w3.org/2000/svg" viewBox="0 0 71.57 71.57"><defs><style>.cls-1{fill:none;stroke:#231f20;stroke-width:0.43px;}.cls-2{fill:#231f20;}</style></defs><title>s106</title><g id="Layer_2" data-name="Layer 2"><g id="Layer_1-2" data-name="Layer 1"><g id="s106"><path class="cls-1" d="M71.36,71.35H53.57V53.57H71.36Zm-17.79,0H35.79V53.57H53.57Zm-17.78,0H18V53.57H35.79ZM18,71.35H.22V53.57H18ZM71.36,53.57H53.57V35.78H71.36Zm-17.79,0H35.79V35.78H53.57Zm-17.78,0H18V35.78H35.79ZM18,53.57H.22V35.78H18ZM71.36,35.78H53.57V18H71.36Zm-17.79,0H35.79V18H53.57Zm-17.78,0H18V18H35.79ZM18,35.78H.22V18H18ZM71.36,18H53.57V.22H71.36ZM53.57,18H35.79V.22H53.57ZM35.79,18H18V.22H35.79ZM18,18H.22V.22H18Z"/><path class="cls-2" d="M9,12.87V8.58H7.54V8a2,2,0,0,0,1.15-.29,1.21,1.21,0,0,0,.46-.88h.59v6.07Z"/><path class="cls-2" d="M24.77,12.87v0a2.47,2.47,0,0,1,.43-1.48,4.53,4.53,0,0,1,1.48-1.18l.51-.28a1.86,1.86,0,0,0,.68-.56,1.28,1.28,0,0,0,.21-.73,1,1,0,0,0-.33-.77,1.21,1.21,0,0,0-.87-.3A1.08,1.08,0,0,0,26,7.9a1.54,1.54,0,0,0-.32,1V9H24.9v-.1a2.12,2.12,0,0,1,.54-1.53,2,2,0,0,1,1.48-.56,2.07,2.07,0,0,1,1.44.5,1.68,1.68,0,0,1,.54,1.3,1.89,1.89,0,0,1-.31,1.09,2.65,2.65,0,0,1-1,.81l-.51.26a4.94,4.94,0,0,0-1,.68,1.51,1.51,0,0,0-.43.69H28.9v.74Z"/><path class="cls-2" d="M45.14,12.87V11.38H42.5v-.76L45.13,7h.79v3.71h.86v.69h-.86v1.49Zm-1.91-2.18h1.91V8Z"/><path class="cls-2" d="M61.23,12.87a8.53,8.53,0,0,1,.8-2.7,9.81,9.81,0,0,1,1.67-2.4H60.41V7h4.13V7.7a9.18,9.18,0,0,0-1.63,2.4,9.43,9.43,0,0,0-.8,2.77Z"/><path class="cls-2" d="M9.58,30.66V29.17H6.94V28.4l2.63-3.64h.79v3.71h.86v.7h-.86v1.49ZM7.67,28.47H9.58v-2.7Z"/><path class="cls-2" d="M26.36,29v-.09s0-.07,0-.09a2.15,2.15,0,0,1,.16-.83,2.5,2.5,0,0,1,.52-.72l.33-.33a1.91,1.91,0,0,0,.37-.49,1.35,1.35,0,0,0,.11-.55.87.87,0,0,0-.28-.68,1,1,0,0,0-.73-.26,1,1,0,0,0-.85.34,1.68,1.68,0,0,0-.31,1h-.75v-.12a1.77,1.77,0,0,1,1.94-1.94,1.82,1.82,0,0,1,1.3.45,1.51,1.51,0,0,1,.49,1.18,1.71,1.71,0,0,1-.16.75,2,2,0,0,1-.47.65l-.36.34a2.09,2.09,0,0,0-.44.55,1.51,1.51,0,0,0-.1.6v.13a.19.19,0,0,0,0,.08Zm0,1.68v-.93h.84v.93Z"/><path class="cls-2" d="M43.45,30.66a8.77,8.77,0,0,1,.8-2.71,9.86,9.86,0,0,1,1.68-2.4h-3.3v-.79h4.13v.72a9.44,9.44,0,0,0-1.63,2.4,9.19,9.19,0,0,0-.79,2.78Z"/><path class="cls-2" d="M59.9,30.66V26.37H58.5v-.62a1.93,1.93,0,0,0,1.15-.29,1.19,1.19,0,0,0,.45-.87h.59v6.07Z"/><path class="cls-2" d="M62.74,27.72a4.29,4.29,0,0,1,.53-2.34,1.93,1.93,0,0,1,3.11,0,4.17,4.17,0,0,1,.54,2.34A4.12,4.12,0,0,1,66.38,30a1.93,1.93,0,0,1-3.11,0A4.21,4.21,0,0,1,62.74,27.72Zm.83,0a4.13,4.13,0,0,0,.3,1.82,1.07,1.07,0,0,0,1.9,0,4.15,4.15,0,0,0,.3-1.83,4.25,4.25,0,0,0-.3-1.85,1.07,1.07,0,0,0-1.9,0A4.2,4.2,0,0,0,63.57,27.72Z"/><path class="cls-2" d="M11.19,44h-.8a1.06,1.06,0,0,0-.32-.72,1.13,1.13,0,0,0-.77-.25,1.14,1.14,0,0,0-1,.55,3.35,3.35,0,0,0-.41,1.64,1.63,1.63,0,0,1,.62-.49,1.78,1.78,0,0,1,.81-.17,1.85,1.85,0,0,1,1.4.55,2.2,2.2,0,0,1,0,2.91,2,2,0,0,1-1.48.55,1.89,1.89,0,0,1-1.61-.73A3.4,3.4,0,0,1,7,45.77a4.43,4.43,0,0,1,.6-2.51,1.92,1.92,0,0,1,1.68-.89,2,2,0,0,1,1.35.44A1.73,1.73,0,0,1,11.19,44ZM10.4,46.6a1.33,1.33,0,0,0-.33-.94,1.11,1.11,0,0,0-.85-.35,1.19,1.19,0,0,0-.93.35,1.29,1.29,0,0,0-.34,1,1.33,1.33,0,0,0,.34,1,1.16,1.16,0,0,0,.9.36,1.12,1.12,0,0,0,.88-.37A1.37,1.37,0,0,0,10.4,46.6Z"/><path class="cls-2" d="M26.36,46.77v-.09s0-.08,0-.1a2.1,2.1,0,0,1,.16-.82A2.26,2.26,0,0,1,27,45l.33-.33a1.94,1.94,0,0,0,.37-.5,1.33,1.33,0,0,0,.11-.54.88.88,0,0,0-.28-.69,1,1,0,0,0-.73-.26,1,1,0,0,0-.85.34,1.7,1.7,0,0,0-.31,1h-.75V44a1.91,1.91,0,0,1,.51-1.43A1.94,1.94,0,0,1,26.86,42a1.86,1.86,0,0,1,1.3.44,1.53,1.53,0,0,1,.49,1.19,1.71,1.71,0,0,1-.16.75,2,2,0,0,1-.47.64l-.36.34a2.11,2.11,0,0,0-.44.56,1.49,1.49,0,0,0-.1.59v.13a.19.19,0,0,0,0,.08Zm0,1.67v-.93h.84v.93Z"/><path class="cls-2" d="M44.14,46.77v-.09a.46.46,0,0,1,0-.1,1.94,1.94,0,0,1,.16-.82A2.08,2.08,0,0,1,44.8,45l.34-.33a1.68,1.68,0,0,0,.36-.5,1.19,1.19,0,0,0,.11-.54.9.9,0,0,0-.27-.69,1.05,1.05,0,0,0-.73-.26,1,1,0,0,0-.85.34,1.7,1.7,0,0,0-.31,1H42.7V44A1.77,1.77,0,0,1,44.64,42a1.88,1.88,0,0,1,1.3.44,1.53,1.53,0,0,1,.49,1.19,1.71,1.71,0,0,1-.16.75,2,2,0,0,1-.47.64l-.36.34A1.92,1.92,0,0,0,45,46a1.48,1.48,0,0,0-.11.59.45.45,0,0,0,0,.13v.08Zm0,1.67v-.93H45v.93Z"/><path class="cls-2" d="M59.9,48.44V44.15H58.5v-.61a2,2,0,0,0,1.15-.29,1.24,1.24,0,0,0,.45-.88h.59v6.07Z"/><path class="cls-2" d="M62.71,48.44v0a2.47,2.47,0,0,1,.43-1.48,4.41,4.41,0,0,1,1.48-1.18l.52-.28a1.82,1.82,0,0,0,.67-.56,1.28,1.28,0,0,0,.21-.73,1,1,0,0,0-.32-.78,1.3,1.3,0,0,0-.88-.29,1.1,1.1,0,0,0-.87.37,1.56,1.56,0,0,0-.31,1v.07h-.8v-.1a2.07,2.07,0,0,1,.55-1.53,2,2,0,0,1,1.47-.56,2.05,2.05,0,0,1,1.44.5,1.68,1.68,0,0,1,.54,1.3,1.89,1.89,0,0,1-.31,1.09,2.65,2.65,0,0,1-1,.81l-.51.26A4.57,4.57,0,0,0,64,47a1.43,1.43,0,0,0-.43.68h3.26v.75Z"/><path class="cls-2" d="M7.9,66.23a8.51,8.51,0,0,1,.8-2.71,9.54,9.54,0,0,1,1.67-2.4H7.07v-.79h4.14v.72a9.19,9.19,0,0,0-2.43,5.18Z"/><path class="cls-2" d="M25.81,63a1.31,1.31,0,0,1-.6-.5,1.42,1.42,0,0,1-.19-.77,1.39,1.39,0,0,1,.51-1.12,2,2,0,0,1,1.35-.43,2,2,0,0,1,1.36.43,1.38,1.38,0,0,1,.52,1.12,1.42,1.42,0,0,1-.2.77,1.31,1.31,0,0,1-.6.5,1.53,1.53,0,0,1,.75.58,1.65,1.65,0,0,1,.26.94,1.76,1.76,0,0,1-.57,1.38,2.14,2.14,0,0,1-1.52.52,2.12,2.12,0,0,1-1.51-.52,1.75,1.75,0,0,1-.56-1.38,1.65,1.65,0,0,1,.25-.94A1.53,1.53,0,0,1,25.81,63Zm-.16,1.5a1.15,1.15,0,0,0,.33.87,1.44,1.44,0,0,0,1.81,0,1.15,1.15,0,0,0,.33-.87,1,1,0,0,0-.33-.81,1.52,1.52,0,0,0-1.81,0A1,1,0,0,0,25.65,64.48Zm.18-2.7a.88.88,0,0,0,.29.69,1.2,1.2,0,0,0,1.52,0,.85.85,0,0,0,.29-.69.84.84,0,0,0-.28-.68,1.08,1.08,0,0,0-.77-.25,1.1,1.1,0,0,0-.77.25A.84.84,0,0,0,25.83,61.78Z"/><path class="cls-2" d="M42.12,66.23V61.94h-1.4v-.62A1.93,1.93,0,0,0,41.87,61a1.15,1.15,0,0,0,.45-.87h.6v6.07Z"/><path class="cls-2" d="M45,63.28A4.25,4.25,0,0,1,45.49,61a1.93,1.93,0,0,1,3.11,0,4.16,4.16,0,0,1,.54,2.33,4.25,4.25,0,0,1-.53,2.33A1.79,1.79,0,0,1,47,66.4a1.77,1.77,0,0,1-1.55-.79A4.25,4.25,0,0,1,45,63.28Zm.83,0a4.15,4.15,0,0,0,.3,1.83,1.08,1.08,0,0,0,1.91,0,6,6,0,0,0,0-3.68,1.08,1.08,0,0,0-1.91,0A4.15,4.15,0,0,0,45.79,63.28Z"/><path class="cls-2" d="M61.92,64.55v-.18a2.16,2.16,0,0,1,.15-.83,2.5,2.5,0,0,1,.52-.72l.33-.33a1.79,1.79,0,0,0,.37-.5,1.33,1.33,0,0,0,.11-.54.9.9,0,0,0-.28-.69,1,1,0,0,0-.73-.26,1.09,1.09,0,0,0-.85.34,1.74,1.74,0,0,0-.31,1h-.75v-.12a1.77,1.77,0,0,1,1.94-1.94,1.86,1.86,0,0,1,1.31.45,1.54,1.54,0,0,1,.48,1.18,1.86,1.86,0,0,1-.15.75,2.23,2.23,0,0,1-.48.65l-.35.34a1.74,1.74,0,0,0-.44.55,1.32,1.32,0,0,0-.11.59v.14a.22.22,0,0,0,0,.08Zm0,1.68V65.3h.85v.93Z"/></g></g></g></svg>