<svg xmlns="http://www.w3.org/2000/svg" viewBox="0 0 186.31 46.02"><defs><style>.cls-1{fill:#fff;}.cls-2,.cls-4{fill:none;}.cls-2{stroke:#231f20;stroke-width:0.43px;}.cls-3{fill:#231f20;}</style></defs><title>s118</title><g id="Layer_2" data-name="Layer 2"><g id="Layer_1-2" data-name="Layer 1"><g id="s118"><path class="cls-1" d="M.22,23A22.8,22.8,0,1,1,23,45.8,22.79,22.79,0,0,1,.22,23"/><path class="cls-2" d="M23,23V45.8M23,23,3.27,11.61M23,23l19.74-11.4M.22,23A22.8,22.8,0,1,1,23,45.8,22.79,22.79,0,0,1,.22,23Z"/><path class="cls-3" d="M20.72,12.36h.79a1.38,1.38,0,0,0,.35,1,1.23,1.23,0,0,0,.93.35,1.3,1.3,0,0,0,.93-.32,1.12,1.12,0,0,0,.34-.87,1,1,0,0,0-.33-.78,1.39,1.39,0,0,0-.94-.28l-.4,0h0v-.68h.26a1.55,1.55,0,0,0,.94-.22.85.85,0,0,0,.28-.71.9.9,0,0,0-.27-.7,1.14,1.14,0,0,0-.78-.24,1.1,1.1,0,0,0-.87.32,1.38,1.38,0,0,0-.29.95h-.77v0a2,2,0,0,1,.51-1.42,1.82,1.82,0,0,1,1.37-.52,2.2,2.2,0,0,1,1.43.42,1.5,1.5,0,0,1,.5,1.19,1.34,1.34,0,0,1-.19.74,1.14,1.14,0,0,1-.56.47,1.47,1.47,0,0,1,.73.55,1.68,1.68,0,0,1,.25.92,1.78,1.78,0,0,1-.59,1.39,2.26,2.26,0,0,1-1.57.52,2,2,0,0,1-1.47-.54,2,2,0,0,1-.55-1.47Z"/><path class="cls-3" d="M9.9,33.21a8.73,8.73,0,0,1,.8-2.69,9.67,9.67,0,0,1,1.66-2.38H9.09v-.79h4.1v.72a9.14,9.14,0,0,0-2.41,5.14Z"/><path class="cls-3" d="M34.86,33.21V31.73H32.24V31l2.61-3.62h.79V31h.85v.69h-.85v1.48ZM33,31h1.9V28.36Z"/><path class="cls-1" d="M70.36,23A22.8,22.8,0,1,1,93.15,45.8,22.79,22.79,0,0,1,70.36,23"/><path class="cls-2" d="M93.15,23V45.8m0-22.79L73.41,11.61M93.15,23l19.74-11.4M70.36,23A22.8,22.8,0,1,1,93.15,45.8,22.79,22.79,0,0,1,70.36,23Z"/><path class="cls-3" d="M95.1,9.87h-.8A1,1,0,0,0,94,9.15a1.26,1.26,0,0,0-1.77.3,3.42,3.42,0,0,0-.41,1.63,1.63,1.63,0,0,1,.62-.49,1.91,1.91,0,0,1,.8-.17,1.85,1.85,0,0,1,1.39.54,2,2,0,0,1,.53,1.44,1.91,1.91,0,0,1-2,2,1.89,1.89,0,0,1-1.61-.73,3.43,3.43,0,0,1-.56-2.1,4.41,4.41,0,0,1,.6-2.49,1.88,1.88,0,0,1,1.67-.88,1.94,1.94,0,0,1,1.34.43A1.77,1.77,0,0,1,95.1,9.87Zm-.79,2.54a1.28,1.28,0,0,0-.32-.93,1.07,1.07,0,0,0-.85-.35,1.21,1.21,0,0,0-.92.34,1.29,1.29,0,0,0-.34.95,1.33,1.33,0,0,0,.34,1,1.19,1.19,0,0,0,.9.35,1.09,1.09,0,0,0,.86-.36A1.37,1.37,0,0,0,94.31,12.41Z"/><path class="cls-3" d="M76.78,33.21v-.05a2.5,2.5,0,0,1,.42-1.47,4.53,4.53,0,0,1,1.48-1.17l.51-.28a1.9,1.9,0,0,0,.67-.56,1.25,1.25,0,0,0,.21-.72,1,1,0,0,0-.33-.77,1.2,1.2,0,0,0-.86-.29,1.07,1.07,0,0,0-.87.37,1.53,1.53,0,0,0-.31,1v.07h-.79v-.11a2.07,2.07,0,0,1,.54-1.51,2,2,0,0,1,1.46-.56,2.07,2.07,0,0,1,1.43.49,1.68,1.68,0,0,1,.55,1.3,1.88,1.88,0,0,1-.32,1.08,2.61,2.61,0,0,1-1,.81l-.51.25a4.57,4.57,0,0,0-1,.68,1.43,1.43,0,0,0-.43.68h3.25v.74Z"/><path class="cls-3" d="M83.45,33.21V29H82.06v-.61a2,2,0,0,0,1.14-.29,1.13,1.13,0,0,0,.45-.87h.59v6Z"/><path class="cls-3" d="M102,33.21V29H100.6v-.61a2,2,0,0,0,1.14-.29,1.13,1.13,0,0,0,.45-.87h.59v6Z"/><path class="cls-3" d="M109,28.84h-.79a1,1,0,0,0-1.08-1,1.14,1.14,0,0,0-1,.54,3.32,3.32,0,0,0-.4,1.63,1.7,1.7,0,0,1,.61-.49,1.92,1.92,0,0,1,.81-.17,1.85,1.85,0,0,1,1.39.55,2,2,0,0,1,.52,1.44,1.94,1.94,0,0,1-.56,1.45,2,2,0,0,1-1.47.55,1.91,1.91,0,0,1-1.61-.73,3.39,3.39,0,0,1-.55-2.1,4.41,4.41,0,0,1,.59-2.49,1.92,1.92,0,0,1,1.67-.88,2,2,0,0,1,1.34.43A1.69,1.69,0,0,1,109,28.84Zm-.78,2.54a1.29,1.29,0,0,0-.33-.93,1.09,1.09,0,0,0-.84-.35,1.24,1.24,0,0,0-.93.35,1.3,1.3,0,0,0-.33.94,1.37,1.37,0,0,0,.33,1,1.21,1.21,0,0,0,.9.35,1.12,1.12,0,0,0,.87-.36A1.37,1.37,0,0,0,108.17,31.38Z"/><path class="cls-1" d="M140.5,23A22.8,22.8,0,1,1,163.3,45.8,22.79,22.79,0,0,1,140.5,23"/><path class="cls-2" d="M163.3,23V45.8m0-22.79-19.74-11.4M163.3,23,183,11.61M140.5,23A22.8,22.8,0,1,1,163.3,45.8,22.79,22.79,0,0,1,140.5,23Z"/><path class="cls-3" d="M161.07,14.24v-.05a2.5,2.5,0,0,1,.43-1.47A4.23,4.23,0,0,1,163,11.55l.51-.28a1.83,1.83,0,0,0,.67-.56,1.27,1.27,0,0,0,.21-.72,1,1,0,0,0-.32-.78,1.29,1.29,0,0,0-.87-.29,1.07,1.07,0,0,0-.86.37,1.54,1.54,0,0,0-.32,1v.08h-.79v-.11a2.09,2.09,0,0,1,.54-1.52,2,2,0,0,1,1.47-.55,2,2,0,0,1,1.43.49,1.67,1.67,0,0,1,.54,1.29,1.89,1.89,0,0,1-.32,1.09,2.56,2.56,0,0,1-1,.8l-.51.26a5,5,0,0,0-1,.67,1.57,1.57,0,0,0-.42.69h3.24v.74Z"/><path class="cls-3" d="M149.22,31.33H150a1.43,1.43,0,0,0,.35,1,1.49,1.49,0,0,0,1.87,0,1.11,1.11,0,0,0,.34-.86,1,1,0,0,0-.33-.79,1.46,1.46,0,0,0-.94-.27h-.43v-.69h.26a1.52,1.52,0,0,0,.93-.22.82.82,0,0,0,.29-.71.91.91,0,0,0-.27-.7,1.17,1.17,0,0,0-.79-.24,1.11,1.11,0,0,0-.86.32,1.36,1.36,0,0,0-.29,1h-.77v-.05a1.94,1.94,0,0,1,.51-1.41,1.83,1.83,0,0,1,1.37-.53,2.11,2.11,0,0,1,1.42.43,1.45,1.45,0,0,1,.51,1.18,1.37,1.37,0,0,1-.19.75,1.17,1.17,0,0,1-.56.46,1.47,1.47,0,0,1,.73.55,1.69,1.69,0,0,1,.24.93,1.73,1.73,0,0,1-.58,1.38,2.27,2.27,0,0,1-1.57.52,2,2,0,0,1-1.47-.54,2,2,0,0,1-.55-1.46Z"/><path class="cls-3" d="M174.15,31.55v-.09s0-.07,0-.09a2.15,2.15,0,0,1,.16-.83,2.42,2.42,0,0,1,.51-.71l.33-.33a1.71,1.71,0,0,0,.37-.49,1.33,1.33,0,0,0,.11-.54.87.87,0,0,0-.28-.68,1,1,0,0,0-.72-.26,1,1,0,0,0-.84.34,1.59,1.59,0,0,0-.31,1h-.75v-.11a1.76,1.76,0,0,1,1.93-1.93,1.85,1.85,0,0,1,1.29.44,1.54,1.54,0,0,1,.49,1.18,1.82,1.82,0,0,1-.16.74,2,2,0,0,1-.47.65l-.35.33a1.9,1.9,0,0,0-.44.55,1.48,1.48,0,0,0-.11.59v.13a.28.28,0,0,1,0,.08Zm0,1.66v-.92H175v.92Z"/><polyline class="cls-4" points="0 0 0 46.02 186.31 46.02 186.31 0"/></g></g></g></svg>