<svg xmlns="http://www.w3.org/2000/svg" viewBox="0 0 147.42 126.03"><defs><style>.cls-1{fill:#fff;}.cls-2{fill:none;stroke:#231f20;stroke-width:0.5px;}.cls-3{font-size:10px;fill:#231f20;font-family:Swiss721BT-Roman, Swis721 BT;}</style></defs><title>s139</title><g id="Layer_2" data-name="Layer 2"><g id="Layer_1-2" data-name="Layer 1"><g id="s139"><path class="cls-1" d="M30.44,110.68a15.1,15.1,0,1,1-15.09-15.1,15.09,15.09,0,0,1,15.09,15.1"/><path class="cls-2" d="M30.44,110.68a15.1,15.1,0,1,1-15.09-15.1A15.09,15.09,0,0,1,30.44,110.68Z"/><text class="cls-3" transform="translate(12.6 113.84)">4</text><path class="cls-1" d="M69.35,110.68a15.1,15.1,0,1,1-15.09-15.1,15.1,15.1,0,0,1,15.09,15.1"/><path class="cls-2" d="M69.35,110.68a15.1,15.1,0,1,1-15.09-15.1A15.1,15.1,0,0,1,69.35,110.68Z"/><text class="cls-3" transform="translate(51.51 113.84)">6</text><path class="cls-1" d="M108.26,110.68a15.1,15.1,0,1,1-15.09-15.1,15.1,15.1,0,0,1,15.09,15.1"/><path class="cls-2" d="M108.26,110.68a15.1,15.1,0,1,1-15.09-15.1A15.1,15.1,0,0,1,108.26,110.68Z"/><text class="cls-3" transform="translate(90.54 113.84)">?</text><path class="cls-1" d="M147.17,110.68a15.1,15.1,0,1,1-15.09-15.1,15.1,15.1,0,0,1,15.09,15.1"/><path class="cls-2" d="M147.17,110.68a15.1,15.1,0,1,1-15.09-15.1A15.1,15.1,0,0,1,147.17,110.68Z"/><text class="cls-3" transform="translate(129.33 113.84)">8</text><path class="cls-1" d="M50,79.35a15.1,15.1,0,1,1-15.1-15.1A15.1,15.1,0,0,1,50,79.35"/><circle class="cls-2" cx="34.92" cy="79.35" r="15.1" transform="translate(-0.15 0.07) rotate(-0.11)"/><text class="cls-3" transform="translate(32.18 82.51)">5</text><path class="cls-1" d="M88.93,79.35a15.1,15.1,0,1,1-15.1-15.1,15.1,15.1,0,0,1,15.1,15.1"/><circle class="cls-2" cx="73.83" cy="79.35" r="15.1" transform="translate(-0.15 0.14) rotate(-0.11)"/><text class="cls-3" transform="translate(71.09 82.51)">7</text><path class="cls-1" d="M127.84,79.35a15.1,15.1,0,1,1-15.1-15.1,15.1,15.1,0,0,1,15.1,15.1"/><path class="cls-2" d="M127.84,79.35a15.1,15.1,0,1,1-15.1-15.1A15.1,15.1,0,0,1,127.84,79.35Z"/><text class="cls-3" transform="translate(109.99 82.51)">6</text><path class="cls-1" d="M70,47.35a15.1,15.1,0,1,1-15.1-15.1A15.09,15.09,0,0,1,70,47.35"/><path class="cls-2" d="M70,47.35a15.1,15.1,0,1,1-15.1-15.1A15.09,15.09,0,0,1,70,47.35Z"/><text class="cls-3" transform="translate(52.18 50.51)">7</text><path class="cls-1" d="M108.93,47.35a15.1,15.1,0,1,1-15.1-15.1,15.09,15.09,0,0,1,15.1,15.1"/><circle class="cls-2" cx="93.83" cy="47.35" r="15.1"/><text class="cls-3" transform="translate(91.09 50.51)">2</text><path class="cls-1" d="M89.35,15.35A15.1,15.1,0,1,1,74.26.25a15.1,15.1,0,0,1,15.09,15.1"/><path class="cls-2" d="M89.35,15.35A15.1,15.1,0,1,1,74.26.25,15.1,15.1,0,0,1,89.35,15.35Z"/><text class="cls-3" transform="translate(71.51 18.51)">9</text></g></g></g></svg>