<svg xmlns="http://www.w3.org/2000/svg" viewBox="0 0 146.59 110.05"><defs><style>.cls-1{fill:none;stroke:#231f20;stroke-width:0.42px;}.cls-2{fill:#231f20;}.cls-3{fill:#fff;}</style></defs><title>s216</title><g id="Layer_2" data-name="Layer 2"><g id="Layer_1-2" data-name="Layer 1"><g id="s216"><path class="cls-1" d="M73.3,73.29H36.75V36.75H73.3Zm-73.09,0L36.75,36.75m-36.54,0L36.75,73.29m0,0H.21V36.75H36.75Z"/><path class="cls-2" d="M61.88,55A6.86,6.86,0,1,1,55,48.17,6.86,6.86,0,0,1,61.88,55"/><path class="cls-1" d="M109.84,73.29l36.55-36.54m-36.55,0,36.55,36.54m0,0H109.84V36.75h36.55Z"/><path class="cls-3" d="M135,55a6.86,6.86,0,1,1-6.86-6.85A6.86,6.86,0,0,1,135,55"/><path class="cls-1" d="M91.57,36.74V55M73.35,55h36.16m.33,18.27H73.3V36.75h36.54ZM22.22,109.44V73.7m-7.48,35.74V73.7m7.69,17.87H37M.4,91.57H15m21.8,18.27H.21V73.29H36.75ZM.62,22.22H36.36M.62,14.74H36.36m.39,22H.21V.21H36.75ZM135,55a6.86,6.86,0,1,1-6.86-6.85A6.86,6.86,0,0,1,135,55Z"/></g></g></g></svg>