<svg xmlns="http://www.w3.org/2000/svg" viewBox="0 0 84.56 84.55"><defs><style>.cls-1{fill:none;stroke:#231f20;stroke-width:0.44px;}.cls-2{fill:#231f20;}.cls-3{fill:#fff;}</style></defs><title>s220</title><g id="Layer_2" data-name="Layer 2"><g id="Layer_1-2" data-name="Layer 1"><g id="s220"><rect class="cls-1" x="0.22" y="0.22" width="28.04" height="28.04"/><path class="cls-2" d="M10.44,8.65A2.58,2.58,0,1,1,7.86,6.07a2.59,2.59,0,0,1,2.58,2.58"/><path class="cls-1" d="M10.44,8.65A2.58,2.58,0,1,1,7.86,6.07,2.59,2.59,0,0,1,10.44,8.65Z"/><path class="cls-3" d="M23.14,9.36a2.58,2.58,0,1,1-2.58-2.58,2.57,2.57,0,0,1,2.58,2.58"/><path class="cls-1" d="M23.14,9.36a2.58,2.58,0,1,1-2.58-2.58A2.57,2.57,0,0,1,23.14,9.36Z"/><path class="cls-2" d="M22.5,21a2.58,2.58,0,1,1-2.58-2.58A2.58,2.58,0,0,1,22.5,21"/><path class="cls-1" d="M22.5,21a2.58,2.58,0,1,1-2.58-2.58A2.58,2.58,0,0,1,22.5,21Z"/><path class="cls-3" d="M10.44,20.73a2.58,2.58,0,1,1-2.58-2.58,2.58,2.58,0,0,1,2.58,2.58"/><path class="cls-1" d="M56.3,28.26h-28V.22h28ZM10.44,20.73a2.58,2.58,0,1,1-2.58-2.58A2.58,2.58,0,0,1,10.44,20.73Z"/><path class="cls-3" d="M38.65,20.53A2.58,2.58,0,1,1,36.08,18a2.58,2.58,0,0,1,2.57,2.58"/><path class="cls-1" d="M38.65,20.53A2.58,2.58,0,1,1,36.08,18,2.58,2.58,0,0,1,38.65,20.53Z"/><path class="cls-2" d="M46.67,13.05a2.58,2.58,0,1,1-2.58-2.58,2.57,2.57,0,0,1,2.58,2.58"/><path class="cls-1" d="M84.34,28.26h-28V.22h28ZM46.67,13.05a2.58,2.58,0,1,1-2.58-2.58A2.57,2.57,0,0,1,46.67,13.05Z"/><path class="cls-3" d="M80.17,5.5a2.58,2.58,0,1,1-2.58-2.58A2.58,2.58,0,0,1,80.17,5.5"/><circle class="cls-1" cx="77.59" cy="5.5" r="2.58"/><path class="cls-2" d="M66.51,10.85a2.58,2.58,0,1,1-2.58-2.58,2.59,2.59,0,0,1,2.58,2.58"/><circle class="cls-1" cx="63.93" cy="10.85" r="2.58"/><path class="cls-2" d="M75.42,19.16a2.58,2.58,0,1,1-2.58-2.57,2.58,2.58,0,0,1,2.58,2.57"/><path class="cls-1" d="M28.26,56.3H.22v-28h28ZM75.42,19.16a2.58,2.58,0,1,1-2.58-2.57A2.58,2.58,0,0,1,75.42,19.16Z"/><path class="cls-3" d="M21.06,35.2a2.58,2.58,0,1,1-2.57-2.58,2.57,2.57,0,0,1,2.57,2.58"/><circle class="cls-1" cx="18.49" cy="35.2" r="2.58"/><path class="cls-2" d="M9.25,41.14a2.58,2.58,0,1,1-2.58-2.58,2.59,2.59,0,0,1,2.58,2.58"/><path class="cls-1" d="M9.25,41.14a2.58,2.58,0,1,1-2.58-2.58A2.59,2.59,0,0,1,9.25,41.14Z"/><path class="cls-2" d="M24.53,47.08A2.58,2.58,0,1,1,22,44.5a2.57,2.57,0,0,1,2.58,2.58"/><path class="cls-1" d="M24.53,47.08A2.58,2.58,0,1,1,22,44.5,2.57,2.57,0,0,1,24.53,47.08Z"/><path class="cls-2" d="M12.7,51.14a2.58,2.58,0,1,1-2.58-2.58,2.59,2.59,0,0,1,2.58,2.58"/><path class="cls-1" d="M56.3,56.3h-28v-28h28ZM12.7,51.14a2.58,2.58,0,1,1-2.58-2.58A2.59,2.59,0,0,1,12.7,51.14Z"/><path class="cls-2" d="M50.17,45.89a2.58,2.58,0,1,1-2.58-2.57,2.57,2.57,0,0,1,2.58,2.57"/><path class="cls-1" d="M50.17,45.89a2.58,2.58,0,1,1-2.58-2.57A2.57,2.57,0,0,1,50.17,45.89Z"/><path class="cls-2" d="M40.37,39.06a2.58,2.58,0,1,1-2.58-2.58,2.58,2.58,0,0,1,2.58,2.58"/><path class="cls-1" d="M84.34,56.3h-28v-28h28Zm-44-17.24a2.58,2.58,0,1,1-2.58-2.58A2.58,2.58,0,0,1,40.37,39.06Z"/><path class="cls-3" d="M81.36,34.56A2.58,2.58,0,1,1,78.78,32a2.58,2.58,0,0,1,2.58,2.58"/><path class="cls-1" d="M81.36,34.56A2.58,2.58,0,1,1,78.78,32,2.58,2.58,0,0,1,81.36,34.56Z"/><path class="cls-3" d="M65.32,37.58A2.58,2.58,0,1,1,62.74,35a2.59,2.59,0,0,1,2.58,2.58"/><path class="cls-1" d="M65.32,37.58A2.58,2.58,0,1,1,62.74,35,2.59,2.59,0,0,1,65.32,37.58Z"/><path class="cls-3" d="M74.52,49.16A2.58,2.58,0,1,1,72,46.58a2.57,2.57,0,0,1,2.57,2.58"/><path class="cls-1" d="M28.26,84.33H.22v-28h28ZM74.52,49.16A2.58,2.58,0,1,1,72,46.58,2.57,2.57,0,0,1,74.52,49.16Z"/><path class="cls-3" d="M15.72,70.55A2.58,2.58,0,1,1,13.14,68a2.58,2.58,0,0,1,2.58,2.58"/><path class="cls-1" d="M56.3,84.33h-28v-28h28ZM15.72,70.55A2.58,2.58,0,1,1,13.14,68,2.58,2.58,0,0,1,15.72,70.55Z"/><path class="cls-3" d="M44.23,60.15a2.58,2.58,0,1,1-2.58-2.58,2.58,2.58,0,0,1,2.58,2.58"/><circle class="cls-1" cx="41.65" cy="60.15" r="2.58"/><path class="cls-2" d="M53.44,65.79a2.58,2.58,0,1,1-2.58-2.58,2.58,2.58,0,0,1,2.58,2.58"/><circle class="cls-1" cx="50.86" cy="65.79" r="2.58"/><path class="cls-3" d="M36.46,65a2.58,2.58,0,1,1-2.58-2.58A2.59,2.59,0,0,1,36.46,65"/><circle class="cls-1" cx="33.88" cy="64.97" r="2.58"/><path class="cls-2" d="M41.33,79.52a2.58,2.58,0,1,1-2.58-2.58,2.59,2.59,0,0,1,2.58,2.58"/><path class="cls-1" d="M41.33,79.52a2.58,2.58,0,1,1-2.58-2.58A2.59,2.59,0,0,1,41.33,79.52Z"/><path class="cls-3" d="M49.76,79.77a2.58,2.58,0,1,1-2.58-2.58,2.58,2.58,0,0,1,2.58,2.58"/><path class="cls-1" d="M49.76,79.77a2.58,2.58,0,1,1-2.58-2.58A2.58,2.58,0,0,1,49.76,79.77Z"/></g></g></g></svg>