<svg xmlns="http://www.w3.org/2000/svg" viewBox="0 0 110.45 23.44"><defs><style>.cls-1{fill:#fff;}.cls-2{fill:none;stroke:#231f20;stroke-width:0.44px;}.cls-3{fill:#231f20;}</style></defs><title>s221</title><g id="Layer_2" data-name="Layer 2"><g id="Layer_1-2" data-name="Layer 1"><g id="s221"><path class="cls-1" d="M8.67,23.22a3.85,3.85,0,0,1,.06-5.75,3.81,3.81,0,0,1-1.26-2.85,3.86,3.86,0,0,1,1.31-2.9A3.86,3.86,0,0,1,8.83,6,3.85,3.85,0,0,1,8.89.22H.59A3.84,3.84,0,0,1,1.9,3.12,3.81,3.81,0,0,1,.64,6,3.84,3.84,0,0,1,2,8.87,3.85,3.85,0,0,1,.7,11.72,3.86,3.86,0,0,1,2,14.62,3.81,3.81,0,0,1,.75,17.47a3.83,3.83,0,0,1,1.31,2.9A3.86,3.86,0,0,1,.81,23.22H8.67"/><path class="cls-2" d="M8.67,23.22a3.85,3.85,0,0,1,.06-5.75,3.81,3.81,0,0,1-1.26-2.85,3.86,3.86,0,0,1,1.31-2.9A3.86,3.86,0,0,1,8.83,6,3.85,3.85,0,0,1,8.89.22H.59A3.84,3.84,0,0,1,1.9,3.12,3.81,3.81,0,0,1,.64,6,3.84,3.84,0,0,1,2,8.87,3.85,3.85,0,0,1,.7,11.72,3.86,3.86,0,0,1,2,14.62,3.81,3.81,0,0,1,.75,17.47a3.83,3.83,0,0,1,1.31,2.9A3.86,3.86,0,0,1,.81,23.22Z"/><path class="cls-3" d="M30.8,22.63a3.86,3.86,0,0,1,4.1-4A3.88,3.88,0,0,1,36,15.7a3.84,3.84,0,0,1,3-1.12,3.83,3.83,0,0,1,1.12-2.91,3.88,3.88,0,0,1,3-1.12,3.86,3.86,0,0,1,4.1-4L41.35.66a3.88,3.88,0,0,1-1.12,3,3.87,3.87,0,0,1-2.91,1.12,3.85,3.85,0,0,1-4,4.1,3.86,3.86,0,0,1-4,4.11,3.86,3.86,0,0,1-4,4.1l5.56,5.56"/><path class="cls-2" d="M30.8,22.63a3.86,3.86,0,0,1,4.1-4A3.88,3.88,0,0,1,36,15.7a3.84,3.84,0,0,1,3-1.12,3.83,3.83,0,0,1,1.12-2.91,3.88,3.88,0,0,1,3-1.12,3.86,3.86,0,0,1,4.1-4L41.35.66a3.88,3.88,0,0,1-1.12,3,3.87,3.87,0,0,1-2.91,1.12,3.85,3.85,0,0,1-4,4.1,3.86,3.86,0,0,1-4,4.11,3.86,3.86,0,0,1-4,4.1Z"/><path class="cls-1" d="M109.89,17.07a3.85,3.85,0,0,1-4-4.1,3.86,3.86,0,0,1-4-4.11,3.83,3.83,0,0,1-2.91-1.12,3.88,3.88,0,0,1-1.12-3,3.86,3.86,0,0,1-2.9-1.12,3.84,3.84,0,0,1-1.12-3L87.91,6.52a3.85,3.85,0,0,1,4.1,4,3.86,3.86,0,0,1,4.11,4,3.86,3.86,0,0,1,4.1,4,3.85,3.85,0,0,1,4.1,4l5.57-5.56"/><path class="cls-2" d="M109.89,17.07a3.85,3.85,0,0,1-4-4.1,3.86,3.86,0,0,1-4-4.11,3.83,3.83,0,0,1-2.91-1.12,3.88,3.88,0,0,1-1.12-3,3.86,3.86,0,0,1-2.9-1.12,3.84,3.84,0,0,1-1.12-3L87.91,6.52a3.85,3.85,0,0,1,4.1,4,3.86,3.86,0,0,1,4.11,4,3.86,3.86,0,0,1,4.1,4,3.85,3.85,0,0,1,4.1,4Z"/><path class="cls-1" d="M56.06,15.66a3.86,3.86,0,0,1,5.75.05,3.86,3.86,0,0,1,5.75,0,3.85,3.85,0,0,1,5.75.06,3.86,3.86,0,0,1,5.75,0V7.57a3.85,3.85,0,0,1-5.75.06,3.86,3.86,0,0,1-5.75,0,3.86,3.86,0,0,1-5.75.05,3.82,3.82,0,0,1-2.9,1.32,3.87,3.87,0,0,1-2.85-1.26v7.87"/><path class="cls-2" d="M61.81,7.63v8.19m5.75-8.19v8.19m5.75-8.19v8.19m-17.25-.16a3.86,3.86,0,0,1,5.75.05,3.86,3.86,0,0,1,5.75,0,3.85,3.85,0,0,1,5.75.06,3.86,3.86,0,0,1,5.75,0V7.57a3.85,3.85,0,0,1-5.75.06,3.86,3.86,0,0,1-5.75,0,3.86,3.86,0,0,1-5.75.05,3.82,3.82,0,0,1-2.9,1.32,3.87,3.87,0,0,1-2.85-1.26Z"/></g></g></g></svg>