<svg xmlns="http://www.w3.org/2000/svg" viewBox="0 0 73.03 84.33"><defs><style>.cls-1{fill:none;stroke:#231f20;stroke-width:0.41px;}.cls-2{fill:#231f20;}</style></defs><title>s232</title><g id="Layer_2" data-name="Layer 2"><g id="Layer_1-2" data-name="Layer 1"><g id="s232"><path class="cls-1" d="M67,40.65A16.53,16.53,0,1,1,50.43,24.11,16.53,16.53,0,0,1,67,40.65Zm-14.7,7.6A10.25,10.25,0,1,1,42,38,10.25,10.25,0,0,1,52.26,48.25ZM29,31.6A7.61,7.61,0,1,1,21.4,24,7.61,7.61,0,0,1,29,31.6ZM72.83,63.13l-36.31,21L.2,63.13V21.2L36.52.23l36.31,21Z"/><path class="cls-2" d="M43.67,43.78a2.38,2.38,0,1,1-2.38-2.38,2.37,2.37,0,0,1,2.38,2.38"/><rect class="cls-1" x="9.82" y="17.59" width="36.95" height="36.95" transform="translate(-17.21 30.57) rotate(-45)"/></g></g></g></svg>