<svg xmlns="http://www.w3.org/2000/svg" viewBox="0 0 147.37 147.37"><defs><style>.cls-1{fill:#fff;}.cls-2,.cls-4{fill:none;}.cls-2{stroke:#231f20;stroke-width:0.38px;}.cls-3{fill:#231f20;}</style></defs><title>s237</title><g id="Layer_2" data-name="Layer 2"><g id="Layer_1-2" data-name="Layer 1"><g id="s237"><rect class="cls-1" x="0.19" y="0.19" width="36.75" height="36.75"/><rect class="cls-2" x="0.19" y="0.19" width="36.75" height="36.75"/><path class="cls-1" d="M25.36,18.56a6.8,6.8,0,1,1-6.8-6.79,6.79,6.79,0,0,1,6.8,6.79"/><circle class="cls-2" cx="18.56" cy="18.56" r="6.8"/><rect class="cls-1" x="36.94" y="0.19" width="36.75" height="36.75"/><rect class="cls-2" x="36.94" y="0.19" width="36.75" height="36.75"/><line class="cls-1" x1="36.94" y1="18.56" x2="73.69" y2="18.56"/><line class="cls-2" x1="36.94" y1="18.56" x2="73.69" y2="18.56"/><path class="cls-1" d="M62.11,18.56a6.8,6.8,0,1,1-6.8-6.79,6.79,6.79,0,0,1,6.8,6.79"/><circle class="cls-2" cx="55.31" cy="18.56" r="6.8" transform="translate(-1.5 31.85) rotate(-31.72)"/><rect class="cls-1" x="73.69" y="0.19" width="36.75" height="36.75"/><rect class="cls-2" x="73.69" y="0.19" width="36.75" height="36.75"/><line class="cls-1" x1="92.06" y1="36.94" x2="92.06" y2="0.19"/><line class="cls-2" x1="92.06" y1="36.94" x2="92.06" y2="0.19"/><path class="cls-3" d="M98.86,18.56a6.8,6.8,0,1,1-6.8-6.79,6.8,6.8,0,0,1,6.8,6.79"/><path class="cls-2" d="M98.86,18.56a6.8,6.8,0,1,1-6.8-6.79A6.8,6.8,0,0,1,98.86,18.56Z"/><rect class="cls-1" x="110.43" y="0.19" width="36.75" height="36.75"/><rect class="cls-2" x="110.43" y="0.19" width="36.75" height="36.75"/><line class="cls-1" x1="110.43" y1="18.56" x2="147.18" y2="18.56"/><line class="cls-2" x1="110.43" y1="18.56" x2="147.18" y2="18.56"/><path class="cls-1" d="M135.6,9.67a6.8,6.8,0,1,1-6.79-6.8,6.8,6.8,0,0,1,6.79,6.8"/><circle class="cls-2" cx="128.81" cy="9.67" r="6.8"/><rect class="cls-1" x="0.19" y="36.94" width="36.75" height="36.75"/><rect class="cls-2" x="0.19" y="36.94" width="36.75" height="36.75"/><path class="cls-3" d="M25.36,55.31a6.8,6.8,0,1,1-6.8-6.79,6.79,6.79,0,0,1,6.8,6.79"/><circle class="cls-2" cx="18.56" cy="55.31" r="6.8" transform="translate(-39.53 60.67) rotate(-76.72)"/><rect class="cls-1" x="36.94" y="36.94" width="36.75" height="36.75"/><rect class="cls-2" x="36.94" y="36.94" width="36.75" height="36.75"/><line class="cls-1" x1="55.31" y1="73.69" x2="55.31" y2="36.94"/><line class="cls-2" x1="55.31" y1="73.69" x2="55.31" y2="36.94"/><path class="cls-1" d="M62.11,55.31a6.8,6.8,0,1,1-6.8-6.79,6.79,6.79,0,0,1,6.8,6.79"/><circle class="cls-2" cx="55.31" cy="55.31" r="6.8" transform="translate(-9.46 99.16) rotate(-79.1)"/><rect class="cls-1" x="73.69" y="36.94" width="36.75" height="36.75"/><rect class="cls-2" x="73.69" y="36.94" width="36.75" height="36.75"/><line class="cls-1" x1="73.69" y1="55.31" x2="110.43" y2="55.31"/><line class="cls-2" x1="73.69" y1="55.31" x2="110.43" y2="55.31"/><path class="cls-1" d="M98.86,64.37a6.8,6.8,0,1,1-6.8-6.79,6.8,6.8,0,0,1,6.8,6.79"/><path class="cls-2" d="M98.86,64.37a6.8,6.8,0,1,1-6.8-6.79A6.8,6.8,0,0,1,98.86,64.37Z"/><rect class="cls-1" x="110.43" y="36.94" width="36.75" height="36.75"/><rect class="cls-2" x="110.43" y="36.94" width="36.75" height="36.75"/><line class="cls-1" x1="110.43" y1="55.31" x2="147.18" y2="55.31"/><line class="cls-2" x1="110.43" y1="55.31" x2="147.18" y2="55.31"/><path class="cls-3" d="M135.6,55.31a6.8,6.8,0,1,1-6.79-6.79,6.79,6.79,0,0,1,6.79,6.79"/><circle class="cls-2" cx="128.81" cy="55.31" r="6.8" transform="translate(50.14 171.33) rotate(-79.1)"/><rect class="cls-1" x="0.19" y="73.69" width="36.75" height="36.75"/><rect class="cls-2" x="0.19" y="73.69" width="36.75" height="36.75"/><line class="cls-1" x1="0.19" y1="92.06" x2="36.94" y2="92.06"/><line class="cls-2" x1="0.19" y1="92.06" x2="36.94" y2="92.06"/><path class="cls-1" d="M25.36,83a6.8,6.8,0,1,1-6.8-6.8,6.79,6.79,0,0,1,6.8,6.8"/><circle class="cls-2" cx="18.56" cy="82.97" r="6.8" transform="translate(-66.45 81.97) rotate(-76.72)"/><rect class="cls-1" x="110.43" y="73.69" width="36.75" height="36.75"/><rect class="cls-2" x="110.43" y="73.69" width="36.75" height="36.75"/><path class="cls-1" d="M135.6,92.06a6.8,6.8,0,1,1-6.79-6.8,6.8,6.8,0,0,1,6.79,6.8"/><circle class="cls-2" cx="128.81" cy="92.06" r="6.8" transform="translate(-29.16 81.47) rotate(-31.72)"/><rect class="cls-1" x="0.19" y="110.43" width="36.75" height="36.75"/><rect class="cls-2" x="0.19" y="110.43" width="36.75" height="36.75"/><line class="cls-1" x1="0.19" y1="128.81" x2="36.94" y2="128.81"/><line class="cls-2" x1="0.19" y1="128.81" x2="36.94" y2="128.81"/><path class="cls-3" d="M25.36,128.81a6.8,6.8,0,1,1-6.8-6.8,6.79,6.79,0,0,1,6.8,6.8"/><circle class="cls-2" cx="18.56" cy="128.81" r="6.8"/><rect class="cls-1" x="73.69" y="110.43" width="36.75" height="36.75"/><rect class="cls-2" x="73.69" y="110.43" width="36.75" height="36.75"/><line class="cls-1" x1="92.06" y1="147.18" x2="92.06" y2="110.43"/><line class="cls-2" x1="92.06" y1="147.18" x2="92.06" y2="110.43"/><path class="cls-1" d="M98.86,128.81a6.8,6.8,0,1,1-6.8-6.8,6.8,6.8,0,0,1,6.8,6.8"/><path class="cls-2" d="M98.86,128.81a6.8,6.8,0,1,1-6.8-6.8A6.8,6.8,0,0,1,98.86,128.81Z"/><rect class="cls-1" x="110.43" y="110.43" width="36.75" height="36.75"/><rect class="cls-2" x="110.43" y="110.43" width="36.75" height="36.75"/><path class="cls-3" d="M135.6,128.81a6.8,6.8,0,1,1-6.79-6.8,6.79,6.79,0,0,1,6.79,6.8"/><circle class="cls-2" cx="128.81" cy="128.81" r="6.8"/><polyline class="cls-4" points="0 0 0 147.37 147.37 147.37 147.37 0"/></g></g></g></svg>