<svg xmlns="http://www.w3.org/2000/svg" viewBox="0 0 154.99 45.14"><defs><style>.cls-1{fill:#231f20;}.cls-2,.cls-3{fill:none;}.cls-2{stroke:#231f20;stroke-width:0.4px;}</style></defs><title>s239</title><g id="Layer_2" data-name="Layer 2"><g id="Layer_1-2" data-name="Layer 1"><g id="s239"><path class="cls-1" d="M36.11,36.73h0l-.9.49-.14-.54,1.14-.61h.6v5.22h-.68Z"/><path class="cls-1" d="M38.86,40.48a2.36,2.36,0,0,0,1.16.33,1,1,0,0,0,1.18-1c0-.73-.67-1-1.35-1h-.4v-.53h.4c.51,0,1.16-.27,1.16-.89,0-.41-.26-.78-.91-.78a2,2,0,0,0-1.05.34l-.18-.51a2.47,2.47,0,0,1,1.36-.4c1,0,1.5.61,1.5,1.24a1.29,1.29,0,0,1-1,1.23h0a1.36,1.36,0,0,1,1.17,1.35c0,.83-.65,1.56-1.91,1.56A2.71,2.71,0,0,1,38.67,41Z"/><path class="cls-1" d="M54.24,18.87V17.45H51.81V17l2.33-3.33h.76V16.9h.73v.55H54.9v1.42Zm0-2V15.15c0-.27,0-.54,0-.81h0c-.16.3-.29.53-.44.77l-1.27,1.77v0Z"/><path class="cls-1" d="M82.58,14.72v.47l-2.27,4.75h-.73l2.26-4.62H79.29v-.59Z"/><path class="cls-1" d="M71.84,27.29v-.43l.55-.54c1.34-1.27,1.94-1.94,2-2.73a.93.93,0,0,0-1-1,1.8,1.8,0,0,0-1.11.45l-.22-.5A2.25,2.25,0,0,1,73.45,22,1.46,1.46,0,0,1,75,23.51c0,1-.7,1.74-1.8,2.8l-.41.38v0h2.34v.58Z"/><path class="cls-1" d="M106.27,18.41l0-.21a1.85,1.85,0,0,1,.5-1.39,1.78,1.78,0,0,0,.56-1.1c0-.41-.26-.68-.76-.69a1.44,1.44,0,0,0-.81.25l-.2-.51a2.16,2.16,0,0,1,1.15-.32A1.18,1.18,0,0,1,108,15.62a2.15,2.15,0,0,1-.69,1.4,1.62,1.62,0,0,0-.46,1.18v.21Zm-.18,1.12a.48.48,0,0,1,.48-.51.51.51,0,1,1-.48.51Z"/><path class="cls-1" d="M98.21,26.48a2.36,2.36,0,0,0,1.16.33c.91,0,1.19-.58,1.18-1,0-.73-.67-1-1.35-1h-.39v-.53h.39c.51,0,1.17-.27,1.17-.89,0-.41-.27-.78-.92-.78a1.89,1.89,0,0,0-1,.34l-.19-.51a2.5,2.5,0,0,1,1.37-.4c1,0,1.49.61,1.49,1.24a1.29,1.29,0,0,1-1,1.23v0a1.36,1.36,0,0,1,1.16,1.34c0,.83-.65,1.56-1.9,1.56A2.65,2.65,0,0,1,98,27Z"/><path class="cls-1" d="M61.78,36.73h0l-.9.49-.14-.54,1.14-.61h.6v5.22h-.68Z"/><path class="cls-1" d="M66.54,41.29V39.87H64.12v-.46l2.33-3.34h.76v3.25h.73v.55h-.73v1.42Zm0-2V37.58c0-.28,0-.55,0-.82h0c-.16.3-.28.53-.43.77L64.84,39.3v0Z"/><path class="cls-1" d="M85.33,41.29v-.43l.56-.54c1.33-1.27,1.93-1.94,1.94-2.73a.93.93,0,0,0-1-1,1.82,1.82,0,0,0-1.11.44l-.22-.49A2.25,2.25,0,0,1,86.94,36a1.46,1.46,0,0,1,1.59,1.51c0,1-.69,1.74-1.79,2.8l-.42.39v0h2.34v.58Z"/><path class="cls-1" d="M92.91,38.63c0,1.77-.65,2.75-1.81,2.75s-1.71-1-1.73-2.68S90.13,36,91.19,36,92.91,37,92.91,38.63Zm-2.83.08c0,1.35.42,2.12,1.06,2.12s1.07-.84,1.07-2.17-.33-2.13-1.06-2.13S90.08,37.29,90.08,38.71Z"/><path class="cls-1" d="M112,36.73h0l-.9.49-.14-.54,1.14-.61h.6v5.22H112Z"/><path class="cls-1" d="M114.47,40a1.49,1.49,0,0,1,1-1.4v0a1.31,1.31,0,0,1-.82-1.18A1.46,1.46,0,0,1,116.28,36a1.35,1.35,0,0,1,1.52,1.28,1.33,1.33,0,0,1-.86,1.22v0a1.45,1.45,0,0,1,1,1.35,1.61,1.61,0,0,1-1.77,1.52C115.12,41.38,114.47,40.73,114.47,40Zm2.81,0c0-.64-.45-.94-1.15-1.14a1.12,1.12,0,0,0-.94,1.07,1,1,0,0,0,1,1A1,1,0,0,0,117.28,39.94Zm-2-2.61c0,.52.4.8,1,1a1,1,0,0,0,.79-.95.81.81,0,0,0-.88-.85A.83.83,0,0,0,115.33,37.33Z"/><path class="cls-1" d="M127.74,24.71V23.29h-2.43v-.46l2.33-3.33h.76v3.24h.73v.55h-.73v1.42Zm0-2V21c0-.28,0-.55,0-.82h0c-.16.3-.29.53-.44.77L126,22.72v0Z"/><path class="cls-1" d="M133.74,33.26a2.39,2.39,0,0,0,1.16.33c.91,0,1.19-.58,1.18-1,0-.73-.67-1-1.35-1h-.39V31h.39c.52,0,1.17-.27,1.17-.89,0-.41-.27-.78-.92-.78a1.89,1.89,0,0,0-1,.34l-.19-.51a2.53,2.53,0,0,1,1.37-.4c1,0,1.49.61,1.49,1.24a1.29,1.29,0,0,1-1,1.23v0a1.35,1.35,0,0,1,1.16,1.34c0,.83-.65,1.56-1.9,1.56a2.65,2.65,0,0,1-1.36-.35Z"/><path class="cls-1" d="M26,23.9a2.36,2.36,0,0,0,1.16.33c.91,0,1.19-.58,1.18-1,0-.73-.67-1-1.35-1h-.39v-.53H27c.51,0,1.16-.27,1.16-.89,0-.41-.26-.78-.91-.78a1.89,1.89,0,0,0-1,.34L26,19.81a2.48,2.48,0,0,1,1.37-.4c1,0,1.49.61,1.49,1.24a1.29,1.29,0,0,1-1,1.23v0a1.35,1.35,0,0,1,1.16,1.34c0,.83-.65,1.56-1.9,1.56a2.65,2.65,0,0,1-1.36-.35Z"/><path class="cls-1" d="M19.84,29.45h-2l-.2,1.34a2.34,2.34,0,0,1,.42,0,2.22,2.22,0,0,1,1.12.28,1.48,1.48,0,0,1,.75,1.34A1.81,1.81,0,0,1,18,34.16a2.56,2.56,0,0,1-1.3-.32l.17-.54a2.36,2.36,0,0,0,1.12.29,1.15,1.15,0,0,0,1.24-1.13c0-.67-.46-1.16-1.5-1.16a6.3,6.3,0,0,0-.73.06l.34-2.5h2.5Z"/><path class="cls-2" d="M103.21,44.94,128.93.4l25.72,44.54Zm-25.71,0L103.21.4l25.72,44.54Zm-25.72,0L77.5.4l25.71,44.54Zm-25.72,0L51.78.4,77.5,44.94Zm-25.71,0L26.06.4,51.78,44.94Z"/><path class="cls-1" d="M47,24.34h0l-.93.46L46,24.26l1.16-.57.6,0-.18,5.21-.68,0Z"/><polyline class="cls-3" points="0 0 0 45.15 154.99 45.15 154.99 0"/></g></g></g></svg>