<svg xmlns="http://www.w3.org/2000/svg" viewBox="0 0 73.24 73.23"><defs><style>.cls-1{fill:none;stroke:#231f20;stroke-width:0.44px;}</style></defs><title>s320</title><g id="Layer_2" data-name="Layer 2"><g id="Layer_1-2" data-name="Layer 1"><g id="s320"><polygon class="cls-1" points="66.46 18.42 54.82 11.69 43.17 18.42 54.82 25.14 54.82 25.14 66.46 18.42"/><path class="cls-1" d="M68.18,18.42A13.37,13.37,0,1,1,54.82,5.06,13.36,13.36,0,0,1,68.18,18.42Z"/><rect class="cls-1" x="36.62" y="0.22" width="36.4" height="36.39"/><polygon class="cls-1" points="2.83 54.81 18.42 63.81 34.01 54.81 18.42 45.81 18.42 45.81 2.83 54.81"/><path class="cls-1" d="M22.12,54.81a3.7,3.7,0,1,1-3.7-3.69A3.7,3.7,0,0,1,22.12,54.81Z"/><rect class="cls-1" x="0.22" y="36.62" width="36.4" height="36.39"/><polygon class="cls-1" points="18.42 6.77 11.7 18.42 18.42 30.07 25.14 18.42 18.42 6.77"/><path class="cls-1" d="M31.78,18.42A13.36,13.36,0,1,1,18.42,5.06,13.36,13.36,0,0,1,31.78,18.42Z"/><rect class="cls-1" x="0.22" y="0.22" width="36.4" height="36.39"/></g></g></g></svg>