<svg xmlns="http://www.w3.org/2000/svg" viewBox="0 0 176.43 172"><defs><style>.cls-1,.cls-2{fill:none;stroke:#231f20;stroke-width:0.44px;}.cls-2{stroke-dasharray:3.51 1.76;}</style></defs><title>s327</title><g id="Layer_2" data-name="Layer 2"><g id="Layer_1-2" data-name="Layer 1"><g id="s327"><line class="cls-1" x1="0.22" y1="0.22" x2="0.22" y2="46.71"/><rect class="cls-1" x="0.22" y="0.22" width="46.49" height="46.49"/><line class="cls-2" x1="31.21" y1="0.22" x2="31.21" y2="46.71"/><line class="cls-2" x1="15.72" y1="0.22" x2="15.72" y2="46.71"/><line class="cls-1" x1="64.97" y1="0.22" x2="64.97" y2="46.71"/><rect class="cls-1" x="64.97" y="0.22" width="46.49" height="46.49"/><line class="cls-1" x1="0.22" y1="0.22" x2="46.71" y2="0.22"/><line class="cls-1" x1="0.22" y1="15.72" x2="46.71" y2="15.72"/><line class="cls-1" x1="0.22" y1="31.21" x2="46.71" y2="31.21"/><line class="cls-1" x1="0.22" y1="46.71" x2="46.71" y2="46.71"/><line class="cls-1" x1="46.71" y1="0.22" x2="46.71" y2="46.71"/><line class="cls-2" x1="99.84" y1="0.22" x2="99.84" y2="46.71"/><line class="cls-2" x1="88.22" y1="0.22" x2="88.22" y2="46.71"/><line class="cls-2" x1="76.59" y1="0.22" x2="76.59" y2="46.71"/><line class="cls-1" x1="129.72" y1="0.22" x2="129.72" y2="46.71"/><rect class="cls-1" x="129.72" y="0.22" width="46.49" height="46.49"/><line class="cls-1" x1="64.97" y1="0.22" x2="111.46" y2="0.22"/><line class="cls-1" x1="64.97" y1="22.74" x2="111.46" y2="22.74"/><line class="cls-1" x1="64.97" y1="46.71" x2="111.46" y2="46.71"/><line class="cls-1" x1="111.46" y1="0.22" x2="111.46" y2="46.71"/><line class="cls-2" x1="151.38" y1="0.22" x2="151.38" y2="46.71"/><line class="cls-1" x1="0.22" y1="62.76" x2="0.22" y2="109.25"/><rect class="cls-1" x="0.22" y="62.76" width="46.49" height="46.49"/><line class="cls-1" x1="129.72" y1="0.22" x2="176.21" y2="0.22"/><line class="cls-1" x1="129.72" y1="10.24" x2="176.21" y2="10.24"/><line class="cls-1" x1="129.72" y1="19.9" x2="176.21" y2="19.9"/><line class="cls-1" x1="129.72" y1="36.48" x2="176.21" y2="36.48"/><line class="cls-1" x1="129.72" y1="46.71" x2="176.21" y2="46.71"/><line class="cls-1" x1="176.21" y1="0.22" x2="176.21" y2="46.71"/><line class="cls-2" x1="33.47" y1="62.76" x2="33.47" y2="109.25"/><line class="cls-2" x1="7.35" y1="62.76" x2="7.35" y2="109.25"/><line class="cls-2" x1="20.87" y1="62.76" x2="20.87" y2="109.25"/><line class="cls-1" x1="64.97" y1="62.76" x2="64.97" y2="109.25"/><rect class="cls-1" x="64.97" y="62.76" width="46.49" height="46.49"/><line class="cls-1" x1="0.22" y1="62.76" x2="46.71" y2="62.76"/><line class="cls-1" x1="0.22" y1="84.05" x2="46.71" y2="84.05"/><line class="cls-1" x1="0.22" y1="109.25" x2="46.71" y2="109.25"/><line class="cls-1" x1="46.71" y1="62.76" x2="46.71" y2="109.25"/><line class="cls-2" x1="84.01" y1="62.76" x2="84.01" y2="109.25"/><line class="cls-1" x1="129.72" y1="62.76" x2="129.72" y2="109.25"/><rect class="cls-1" x="129.72" y="62.76" width="46.49" height="46.49"/><line class="cls-1" x1="64.97" y1="62.76" x2="111.46" y2="62.76"/><line class="cls-1" x1="64.97" y1="72.78" x2="111.46" y2="72.78"/><line class="cls-1" x1="64.97" y1="93.75" x2="111.46" y2="93.75"/><line class="cls-1" x1="64.97" y1="109.25" x2="111.46" y2="109.25"/><line class="cls-1" x1="111.46" y1="62.76" x2="111.46" y2="109.25"/><line class="cls-2" x1="168.12" y1="62.76" x2="168.12" y2="109.25"/><line class="cls-2" x1="154.55" y1="62.76" x2="154.55" y2="109.25"/><line class="cls-1" x1="64.97" y1="125.29" x2="64.97" y2="171.78"/><rect class="cls-1" x="64.97" y="125.29" width="46.49" height="46.49"/><line class="cls-1" x1="129.72" y1="62.76" x2="176.21" y2="62.76"/><line class="cls-1" x1="129.72" y1="72.46" x2="176.21" y2="72.46"/><line class="cls-1" x1="129.72" y1="78.25" x2="176.21" y2="78.25"/><line class="cls-1" x1="129.72" y1="99.54" x2="176.21" y2="99.54"/><line class="cls-1" x1="129.72" y1="109.25" x2="176.21" y2="109.25"/><line class="cls-1" x1="176.21" y1="62.76" x2="176.21" y2="109.25"/><line class="cls-2" x1="102.08" y1="125.29" x2="102.08" y2="171.78"/><line class="cls-2" x1="77.25" y1="125.29" x2="77.25" y2="171.78"/><line class="cls-1" x1="129.72" y1="125.29" x2="129.72" y2="171.78"/><rect class="cls-1" x="129.72" y="125.29" width="46.49" height="46.49"/><line class="cls-1" x1="64.97" y1="125.29" x2="111.46" y2="125.29"/><line class="cls-1" x1="64.97" y1="145.48" x2="111.46" y2="145.48"/><line class="cls-1" x1="64.97" y1="134.67" x2="111.46" y2="134.67"/><line class="cls-1" x1="64.97" y1="156.29" x2="111.46" y2="156.29"/><line class="cls-1" x1="64.97" y1="171.78" x2="111.46" y2="171.78"/><line class="cls-1" x1="111.46" y1="125.29" x2="111.46" y2="171.78"/><line class="cls-2" x1="166.83" y1="125.29" x2="166.83" y2="171.78"/><line class="cls-2" x1="152.64" y1="125.29" x2="152.64" y2="171.78"/><line class="cls-2" x1="138.46" y1="125.29" x2="138.46" y2="171.78"/><line class="cls-1" x1="129.72" y1="125.29" x2="176.21" y2="125.29"/><line class="cls-1" x1="129.72" y1="171.78" x2="176.21" y2="171.78"/><line class="cls-1" x1="176.21" y1="125.29" x2="176.21" y2="171.78"/></g></g></g></svg>