<svg xmlns="http://www.w3.org/2000/svg" viewBox="0 0 176.22 120.04"><defs><style>.cls-1{fill:none;stroke:#231f20;stroke-width:0.44px;}.cls-2{fill:#231f20;}</style></defs><title>s331</title><g id="Layer_2" data-name="Layer 2"><g id="Layer_1-2" data-name="Layer 1"><g id="s331"><line class="cls-1" x1="31.39" y1="88.65" x2="31.39" y2="31.39"/><line class="cls-1" x1="31.39" y1="88.65" x2="62.79" y2="88.65"/><line class="cls-1" y1="31.39" x2="31.39" y2="31.39"/><path class="cls-2" d="M34.45,31.39a3.06,3.06,0,1,1-3.06-3.05,3.06,3.06,0,0,1,3.06,3.05"/><path class="cls-2" d="M34.45,88.65a3.06,3.06,0,1,1-3.06-3.06,3.06,3.06,0,0,1,3.06,3.06"/><line class="cls-1" x1="101.43" y1="88.65" x2="101.43" y2="31.39"/><line class="cls-1" x1="101.43" y1="88.65" x2="101.43" y2="120.04"/><line class="cls-1" x1="79.23" y1="9.2" x2="101.43" y2="31.39"/><path class="cls-2" d="M104.49,31.39a3.06,3.06,0,1,1-3.06-3.05,3.06,3.06,0,0,1,3.06,3.05"/><path class="cls-2" d="M104.49,88.65a3.06,3.06,0,1,1-3.06-3.06,3.06,3.06,0,0,1,3.06,3.06"/><line class="cls-1" x1="173.16" y1="88.65" x2="173.16" y2="31.39"/><line class="cls-1" x1="173.16" y1="88.65" x2="141.77" y2="88.65"/><line class="cls-1" x1="173.16" x2="173.16" y2="31.39"/><path class="cls-2" d="M176.22,31.39a3.06,3.06,0,1,1-3.06-3.05,3.06,3.06,0,0,1,3.06,3.05"/><path class="cls-2" d="M176.22,88.65a3.06,3.06,0,1,1-3.06-3.06,3.06,3.06,0,0,1,3.06,3.06"/></g></g></g></svg>