<svg xmlns="http://www.w3.org/2000/svg" viewBox="0 0 127.14 125.49"><defs><style>.cls-1{fill:none;stroke:#231f20;stroke-width:0.44px;}.cls-2{fill:#231f20;}</style></defs><title>s414</title><g id="Layer_2" data-name="Layer 2"><g id="Layer_1-2" data-name="Layer 1"><g id="s414"><rect class="cls-1" x="90.78" y="36.36" width="18.07" height="18.07"/><rect class="cls-1" x="108.85" y="18.29" width="18.07" height="18.07"/><rect class="cls-1" x="90.78" y="18.29" width="18.07" height="18.07"/><rect class="cls-1" x="72.71" y="89.13" width="18.07" height="18.07"/><rect class="cls-1" x="90.78" y="0.22" width="18.07" height="18.07"/><rect class="cls-1" x="54.53" y="107.2" width="18.07" height="18.07"/><rect class="cls-1" x="72.6" y="18.29" width="18.07" height="18.07"/><rect class="cls-1" x="54.53" y="89.13" width="18.07" height="18.07"/><rect class="cls-1" x="36.47" y="89.13" width="18.07" height="18.07"/><rect class="cls-1" x="54.53" y="71.07" width="18.07" height="18.07"/><rect class="cls-1" x="18.29" y="36.36" width="18.07" height="18.07"/><rect class="cls-1" x="36.36" y="18.29" width="18.07" height="18.07"/><rect class="cls-1" x="18.29" y="18.29" width="18.07" height="18.07"/><rect class="cls-1" x="0.22" y="18.29" width="18.07" height="18.07"/><rect class="cls-1" x="18.29" y="0.22" width="18.07" height="18.07"/><path class="cls-2" d="M28.72,8H26.53l-.22,1.47a2.91,2.91,0,0,1,.47,0,2.41,2.41,0,0,1,1.23.3,1.64,1.64,0,0,1,.82,1.48,2,2,0,0,1-2.13,2,2.75,2.75,0,0,1-1.43-.36l.2-.59a2.52,2.52,0,0,0,1.22.32,1.27,1.27,0,0,0,1.36-1.24c0-.74-.5-1.27-1.65-1.27a5.31,5.31,0,0,0-.79.06L26,7.35h2.74Z"/><path class="cls-2" d="M7.23,31.15v-.48l.61-.59C9.3,28.69,10,28,10,27.08A1,1,0,0,0,8.84,26a2,2,0,0,0-1.22.49l-.25-.55A2.49,2.49,0,0,1,9,25.32,1.61,1.61,0,0,1,10.75,27c0,1.06-.77,1.92-2,3.08l-.45.43h2.57v.65Z"/><path class="cls-2" d="M25.16,30.26a2.6,2.6,0,0,0,1.27.36c1,0,1.31-.64,1.3-1.11,0-.81-.74-1.15-1.49-1.15h-.43v-.58h.43c.57,0,1.28-.29,1.28-1,0-.46-.29-.87-1-.87a2.18,2.18,0,0,0-1.15.38l-.2-.56a2.73,2.73,0,0,1,1.5-.44c1.13,0,1.64.67,1.64,1.36A1.42,1.42,0,0,1,27.25,28v0a1.49,1.49,0,0,1,1.28,1.47c0,.92-.72,1.72-2.09,1.72A3,3,0,0,1,25,30.86Z"/><path class="cls-2" d="M42.65,29.69a1.64,1.64,0,0,1,1.13-1.53v0a1.41,1.41,0,0,1-.91-1.29,1.6,1.6,0,0,1,1.77-1.52,1.48,1.48,0,0,1,1.67,1.41,1.47,1.47,0,0,1-1,1.34v0a1.6,1.6,0,0,1,1.16,1.49,1.77,1.77,0,0,1-2,1.66C43.37,31.24,42.65,30.53,42.65,29.69Zm3.08,0c0-.7-.48-1-1.26-1.26a1.25,1.25,0,0,0-1,1.18,1.06,1.06,0,0,0,1.15,1.1A1,1,0,0,0,45.73,29.66ZM43.6,26.79c0,.57.43.88,1.09,1.06a1.13,1.13,0,0,0,.88-1,.9.9,0,0,0-1-.94A.92.92,0,0,0,43.6,26.79Z"/><path class="cls-2" d="M24.56,44.2h0l-1,.54-.15-.59,1.25-.67h.66v5.73h-.75Z"/><path class="cls-2" d="M29.09,44.2h0l-1,.54-.15-.59,1.26-.67h.66v5.73h-.75Z"/><path class="cls-2" d="M60.81,78.91h0l-1,.54-.15-.59,1.26-.67h.66v5.73h-.75Z"/><path class="cls-2" d="M63.83,83a2.62,2.62,0,0,0,1.27.37c1,0,1.31-.64,1.3-1.12,0-.8-.73-1.14-1.48-1.14h-.43v-.58h.43c.56,0,1.28-.3,1.28-1,0-.46-.29-.87-1-.87a2,2,0,0,0-1.14.38l-.21-.56a2.72,2.72,0,0,1,1.5-.45c1.13,0,1.64.68,1.64,1.37a1.42,1.42,0,0,1-1.06,1.35v0A1.49,1.49,0,0,1,67.2,82.3c0,.92-.71,1.72-2.09,1.72a2.87,2.87,0,0,1-1.49-.39Z"/><path class="cls-2" d="M46.75,96.81a3,3,0,0,0-.58,0,2.35,2.35,0,0,0-2,2h0a1.75,1.75,0,0,1,3.11,1.19,1.91,1.91,0,0,1-1.9,2c-1.23,0-2-1-2-2.44a3.6,3.6,0,0,1,1-2.59,3.12,3.12,0,0,1,1.83-.84,3.37,3.37,0,0,1,.57,0Zm-.22,3.3a1.16,1.16,0,0,0-1.18-1.31,1.26,1.26,0,0,0-1.11.71.57.57,0,0,0-.09.34c0,.94.45,1.64,1.26,1.64S46.53,100.93,46.53,100.11Z"/><path class="cls-2" d="M62.17,100.31l0-.23a2,2,0,0,1,.55-1.53,1.91,1.91,0,0,0,.62-1.2c0-.45-.28-.75-.84-.76a1.54,1.54,0,0,0-.89.27l-.21-.56A2.31,2.31,0,0,1,62.64,96a1.31,1.31,0,0,1,1.47,1.3,2.37,2.37,0,0,1-.75,1.53,1.78,1.78,0,0,0-.51,1.3v.23ZM62,101.54a.52.52,0,0,1,.53-.55.55.55,0,0,1,0,1.1A.52.52,0,0,1,62,101.54Z"/><path class="cls-2" d="M82,31.15V29.58H79.35v-.51l2.56-3.66h.83V29h.81v.6h-.81v1.57ZM82,29V27.06q0-.45,0-.9h0c-.18.34-.32.58-.48.85L80.13,29v0Z"/><path class="cls-2" d="M59.12,120.06v-.48l.61-.59c1.47-1.39,2.13-2.13,2.14-3a1,1,0,0,0-1.14-1.12,2,2,0,0,0-1.22.49l-.24-.55a2.52,2.52,0,0,1,1.62-.58,1.61,1.61,0,0,1,1.75,1.67c0,1.06-.76,1.91-2,3.08l-.46.42v0h2.57v.64Z"/><path class="cls-2" d="M67.37,114.33v.51l-2.5,5.22h-.8L66.56,115v0H63.75v-.64Z"/><path class="cls-2" d="M98.24,12.53a3.55,3.55,0,0,0,.63,0,2.16,2.16,0,0,0,1.2-.56,2.53,2.53,0,0,0,.75-1.52h0a1.71,1.71,0,0,1-1.35.61,1.66,1.66,0,0,1-1.7-1.75,2,2,0,0,1,2-2c1.18,0,1.9.95,1.9,2.42a3.61,3.61,0,0,1-1,2.69,2.87,2.87,0,0,1-1.67.76,3.13,3.13,0,0,1-.71.05Zm.28-3.3a1.1,1.1,0,0,0,1.1,1.22,1.26,1.26,0,0,0,1.13-.6.47.47,0,0,0,.07-.28c0-1-.36-1.73-1.17-1.73S98.52,8.42,98.52,9.23Z"/><path class="cls-2" d="M77.3,102v-.47l.61-.59c1.46-1.4,2.13-2.14,2.13-3a1,1,0,0,0-1.13-1.12,2,2,0,0,0-1.22.48l-.25-.55a2.55,2.55,0,0,1,1.63-.58,1.61,1.61,0,0,1,1.75,1.67c0,1.06-.77,1.91-2,3.08l-.46.42v0H81V102Z"/><path class="cls-2" d="M85.64,99.07c0,1.94-.73,3-2,3s-1.88-1-1.89-3,.83-3,2-3S85.64,97.24,85.64,99.07Zm-3.12.08c0,1.49.46,2.34,1.17,2.34s1.17-.93,1.17-2.39-.36-2.34-1.16-2.34S82.52,97.59,82.52,99.15Z"/><path class="cls-2" d="M101.21,26.07H99l-.23,1.47a2.84,2.84,0,0,1,.47,0,2.48,2.48,0,0,1,1.24.31,1.64,1.64,0,0,1,.82,1.47,2,2,0,0,1-2.14,2,2.82,2.82,0,0,1-1.43-.35l.2-.59a2.56,2.56,0,0,0,1.22.32,1.27,1.27,0,0,0,1.36-1.25c0-.74-.5-1.27-1.65-1.27a7.33,7.33,0,0,0-.79.06l.37-2.75h2.74Z"/><path class="cls-2" d="M114.8,26.14h0l-1,.53-.15-.59,1.25-.67h.66v5.74h-.75Z"/><path class="cls-2" d="M120,31.15V29.58h-2.66v-.51l2.56-3.66h.83V29h.8v.6h-.8v1.57ZM120,29V27.06q0-.45,0-.9h0c-.18.34-.32.58-.48.85L118.16,29v0Z"/><path class="cls-2" d="M97.05,44.2h0l-1,.54-.15-.59,1.25-.67h.66v5.73h-.75Z"/><path class="cls-2" d="M100.34,48.67a3.72,3.72,0,0,0,.63,0,2.16,2.16,0,0,0,1.2-.56,2.5,2.5,0,0,0,.76-1.52h0a1.69,1.69,0,0,1-1.35.62,1.66,1.66,0,0,1-1.69-1.76,2,2,0,0,1,2-2c1.17,0,1.89,1,1.89,2.42a3.61,3.61,0,0,1-1,2.69,2.85,2.85,0,0,1-1.66.77,3.83,3.83,0,0,1-.72,0Zm.29-3.3a1.11,1.11,0,0,0,1.1,1.22,1.3,1.3,0,0,0,1.13-.6.59.59,0,0,0,.07-.29c0-1-.36-1.73-1.18-1.73C101.09,44,100.63,44.56,100.63,45.37Z"/></g></g></g></svg>