<svg xmlns="http://www.w3.org/2000/svg" viewBox="0 0 71.78 71.78"><defs><style>.cls-1{fill:none;stroke:#231f20;stroke-width:0.44px;}.cls-2{fill:#231f20;}</style></defs><title>s416</title><g id="Layer_2" data-name="Layer 2"><g id="Layer_1-2" data-name="Layer 1"><g id="s416"><path class="cls-1" d="M24.48,18.05a6.43,6.43,0,1,1-6.43-6.42A6.43,6.43,0,0,1,24.48,18.05Z"/><path class="cls-1" d="M28,18.05a9.91,9.91,0,1,1-9.91-9.9A9.9,9.9,0,0,1,28,18.05Z"/><rect class="cls-1" x="0.22" y="0.22" width="35.67" height="35.67"/><path class="cls-2" d="M21.58,18.05a3.53,3.53,0,1,1-3.53-3.52,3.53,3.53,0,0,1,3.53,3.52"/><path class="cls-1" d="M24.48,53.73a6.43,6.43,0,1,1-6.43-6.43A6.43,6.43,0,0,1,24.48,53.73Z"/><path class="cls-1" d="M28,53.73a9.91,9.91,0,1,1-9.91-9.91A9.9,9.9,0,0,1,28,53.73Z"/><circle class="cls-1" cx="18.05" cy="53.73" r="13.1"/><rect class="cls-1" x="0.22" y="35.89" width="35.67" height="35.67"/><path class="cls-2" d="M21.58,53.73a3.53,3.53,0,1,1-3.53-3.53,3.53,3.53,0,0,1,3.53,3.53"/><path class="cls-1" d="M60.15,18.05a6.43,6.43,0,1,1-6.42-6.42A6.42,6.42,0,0,1,60.15,18.05Z"/><rect class="cls-1" x="35.89" y="0.22" width="35.67" height="35.67"/><path class="cls-2" d="M57.25,18.05a3.52,3.52,0,1,1-3.52-3.52,3.53,3.53,0,0,1,3.52,3.52"/></g></g></g></svg>