<svg xmlns="http://www.w3.org/2000/svg" viewBox="0 0 139.28 114.39"><defs><style>.cls-1{fill:none;stroke:#231f20;stroke-width:0.41px;}.cls-2{fill:#231f20;}</style></defs><title>s530</title><g id="Layer_2" data-name="Layer 2"><g id="Layer_1-2" data-name="Layer 1"><g id="s530"><polygon class="cls-1" points="118.05 63.65 128.49 45.56 138.93 63.65 118.05 63.65"/><polygon class="cls-1" points="50.08 69.59 60.52 51.51 70.96 69.59 50.08 69.59"/><polygon class="cls-1" points="0.35 114.19 10.79 96.1 21.23 114.19 0.35 114.19"/><path class="cls-1" d="M59.49,92.84a9.19,9.19,0,1,1-9.18-9.19A9.18,9.18,0,0,1,59.49,92.84Z"/><path class="cls-1" d="M105.85,49.33a9.19,9.19,0,1,1-9.19-9.19A9.2,9.2,0,0,1,105.85,49.33Z"/><path class="cls-1" d="M53.55,19.33a9.19,9.19,0,1,1-9.19-9.19A9.19,9.19,0,0,1,53.55,19.33Z"/><rect class="cls-1" x="97.84" y="91.28" width="16.61" height="16.61"/><rect class="cls-1" x="80.85" y="0.2" width="16.61" height="16.61"/><rect class="cls-1" x="19.6" y="38.04" width="16.61" height="16.61"/><path class="cls-2" d="M87.23,10.42a1.49,1.49,0,0,1,1-1.41V9a1.3,1.3,0,0,1-.83-1.18,1.47,1.47,0,0,1,1.63-1.4,1.31,1.31,0,0,1,.66,2.53V9a1.45,1.45,0,0,1,1.06,1.36A1.61,1.61,0,0,1,89,11.84C87.89,11.84,87.23,11.19,87.23,10.42Zm2.83,0c0-.64-.44-.94-1.16-1.15A1.15,1.15,0,0,0,88,10.32a1,1,0,0,0,1.05,1A1,1,0,0,0,90.06,10.38Zm-2-2.63c0,.53.4.81,1,1a1,1,0,0,0,.8-1A.82.82,0,0,0,89,6.91.84.84,0,0,0,88.1,7.75Z"/><path class="cls-2" d="M26.92,47.5l0-.21a1.88,1.88,0,0,1,.51-1.4A1.8,1.8,0,0,0,28,44.78c0-.41-.26-.69-.77-.7a1.44,1.44,0,0,0-.81.25l-.2-.51a2.17,2.17,0,0,1,1.16-.32,1.19,1.19,0,0,1,1.35,1.19A2.18,2.18,0,0,1,28,46.1a1.56,1.56,0,0,0-.46,1.19v.21Zm-.18,1.14a.48.48,0,0,1,.49-.51.51.51,0,1,1-.49.51Z"/><path class="cls-2" d="M103.61,97.69h0l-.91.49-.14-.54,1.15-.61h.61v5.26h-.69Z"/><path class="cls-2" d="M106.63,101.79a3,3,0,0,0,.58,0,2,2,0,0,0,1.1-.52,2.28,2.28,0,0,0,.7-1.4h0a1.58,1.58,0,0,1-2.79-1,1.8,1.8,0,0,1,1.8-1.87c1.08,0,1.74.87,1.74,2.22a3.33,3.33,0,0,1-.91,2.47,2.61,2.61,0,0,1-1.53.7,3.25,3.25,0,0,1-.66,0Zm.26-3a1,1,0,0,0,1,1.12,1.18,1.18,0,0,0,1-.55.5.5,0,0,0,.07-.26c0-.9-.33-1.59-1.08-1.59S106.89,98,106.89,98.76Z"/><path class="cls-2" d="M11.13,110.67v-1.43H8.69v-.47L11,105.4h.77v3.28h.73v.56h-.73v1.43Zm0-2v-1.76c0-.28,0-.55,0-.83h0c-.16.31-.29.54-.43.78l-1.29,1.79v0Z"/><path class="cls-2" d="M47.77,91.2h0l-.91.5-.14-.55,1.15-.61h.61V95.8h-.69Z"/><path class="cls-2" d="M53.38,91a2.56,2.56,0,0,0-.53,0A2.14,2.14,0,0,0,51,92.94h0A1.61,1.61,0,0,1,53.9,94a1.76,1.76,0,0,1-1.75,1.85c-1.12,0-1.86-.87-1.86-2.24a3.27,3.27,0,0,1,.89-2.37,2.86,2.86,0,0,1,1.69-.78,3.64,3.64,0,0,1,.51,0Zm-.2,3a1.07,1.07,0,0,0-1.08-1.21,1.17,1.17,0,0,0-1,.65.61.61,0,0,0-.09.32c0,.86.42,1.5,1.16,1.5S53.18,94.83,53.18,94.08Z"/><path class="cls-2" d="M58,61.2h0l-.91.5-.14-.55,1.15-.61h.61v5.27H58Z"/><path class="cls-2" d="M60.53,64.47a1.49,1.49,0,0,1,1-1.41v0a1.29,1.29,0,0,1-.83-1.18,1.47,1.47,0,0,1,1.63-1.4,1.36,1.36,0,0,1,1.53,1.3A1.34,1.34,0,0,1,63,63v0a1.45,1.45,0,0,1,1.06,1.36,1.61,1.61,0,0,1-1.79,1.53C61.19,65.89,60.53,65.24,60.53,64.47Zm2.83,0c0-.64-.44-.95-1.16-1.15a1.13,1.13,0,0,0-.94,1.08,1,1,0,0,0,1.05,1A1,1,0,0,0,63.36,64.44Zm-2-2.64c0,.53.4.81,1,1a1,1,0,0,0,.8-1,.82.82,0,0,0-.89-.86A.84.84,0,0,0,61.4,61.8Z"/><path class="cls-2" d="M126,55.53h0L125,56l-.14-.54,1.15-.62h.61v5.27H126Z"/><path class="cls-2" d="M130.11,55.53h0l-.91.49-.14-.54,1.15-.62h.61v5.27h-.69Z"/><path class="cls-2" d="M97.94,47.9h-2l-.2,1.35a2.39,2.39,0,0,1,.43,0,2.26,2.26,0,0,1,1.13.28A1.5,1.5,0,0,1,98,50.85a1.82,1.82,0,0,1-2,1.8,2.6,2.6,0,0,1-1.31-.32l.18-.55a2.36,2.36,0,0,0,1.13.3,1.16,1.16,0,0,0,1.24-1.15c0-.68-.46-1.16-1.51-1.16a6.42,6.42,0,0,0-.73,0l.34-2.52h2.52Z"/><path class="cls-2" d="M41.82,17.42h0l-.91.49-.14-.54,1.15-.61h.61V22h-.69Z"/><path class="cls-2" d="M44.43,22v-.44L45,21c1.35-1.28,1.95-2,2-2.75a.94.94,0,0,0-1-1,1.8,1.8,0,0,0-1.12.44l-.23-.5a2.32,2.32,0,0,1,1.49-.53,1.48,1.48,0,0,1,1.62,1.53c0,1-.71,1.76-1.82,2.83l-.42.38v0H47.8V22Z"/></g></g></g></svg>