<svg xmlns="http://www.w3.org/2000/svg" viewBox="0 0 139.65 139.65"><defs><style>.cls-1{fill:none;stroke:#231f20;stroke-width:0.44px;}.cls-2{fill:#fff;}</style></defs><title>s612</title><g id="Layer_2" data-name="Layer 2"><g id="Layer_1-2" data-name="Layer 1"><g id="s612"><line class="cls-1" x1="23.42" y1="23.42" x2="3.86" y2="23.42"/><line class="cls-1" x1="23.42" y1="23.42" x2="23.42" y2="3.86"/><rect class="cls-1" x="0.22" y="0.22" width="46.4" height="46.4"/><path class="cls-2" d="M32,23.42a8.62,8.62,0,1,1-8.62-8.62A8.62,8.62,0,0,1,32,23.42"/><line class="cls-1" x1="89.39" y1="23.42" x2="69.82" y2="23.42"/><line class="cls-1" x1="69.82" y1="23.42" x2="50.26" y2="23.42"/><line class="cls-1" x1="69.82" y1="42.98" x2="69.82" y2="23.42"/><rect class="cls-1" x="46.62" y="0.22" width="46.4" height="46.4"/><path class="cls-1" d="M32,23.42a8.62,8.62,0,1,1-8.62-8.62A8.62,8.62,0,0,1,32,23.42Z"/><path class="cls-2" d="M78.44,23.42a8.62,8.62,0,1,1-8.62-8.62,8.62,8.62,0,0,1,8.62,8.62"/><line class="cls-1" x1="116.23" y1="23.42" x2="96.66" y2="23.42"/><rect class="cls-1" x="93.02" y="0.22" width="46.4" height="46.4"/><path class="cls-1" d="M78.44,23.42a8.62,8.62,0,1,1-8.62-8.62A8.62,8.62,0,0,1,78.44,23.42Z"/><path class="cls-2" d="M124.85,23.42a8.62,8.62,0,1,1-8.62-8.62,8.62,8.62,0,0,1,8.62,8.62"/><line class="cls-1" x1="23.42" y1="69.82" x2="42.98" y2="69.82"/><line class="cls-1" x1="23.42" y1="89.39" x2="23.42" y2="69.82"/><line class="cls-1" x1="23.42" y1="69.82" x2="23.42" y2="50.26"/><rect class="cls-1" x="0.22" y="46.62" width="46.4" height="46.4"/><path class="cls-1" d="M124.85,23.42a8.62,8.62,0,1,1-8.62-8.62A8.62,8.62,0,0,1,124.85,23.42Z"/><path class="cls-2" d="M32,69.82a8.62,8.62,0,1,1-8.62-8.62A8.61,8.61,0,0,1,32,69.82"/><line class="cls-1" x1="69.82" y1="69.82" x2="89.39" y2="69.82"/><line class="cls-1" x1="69.82" y1="69.82" x2="69.82" y2="89.39"/><rect class="cls-1" x="46.62" y="46.62" width="46.4" height="46.4"/><path class="cls-1" d="M32,69.82a8.62,8.62,0,1,1-8.62-8.62A8.61,8.61,0,0,1,32,69.82Z"/><path class="cls-2" d="M78.44,69.82a8.62,8.62,0,1,1-8.62-8.62,8.61,8.61,0,0,1,8.62,8.62"/><line class="cls-1" x1="116.23" y1="69.82" x2="135.79" y2="69.82"/><line class="cls-1" x1="116.23" y1="69.82" x2="116.23" y2="89.39"/><rect class="cls-1" x="93.02" y="46.62" width="46.4" height="46.4"/><circle class="cls-1" cx="69.82" cy="69.82" r="8.62" transform="translate(-19.18 112.6) rotate(-70.67)"/><path class="cls-2" d="M124.85,69.82a8.62,8.62,0,1,1-8.62-8.62,8.61,8.61,0,0,1,8.62,8.62"/><line class="cls-1" x1="23.42" y1="116.23" x2="23.42" y2="96.66"/><rect class="cls-1" x="0.22" y="93.03" width="46.4" height="46.4"/><circle class="cls-1" cx="116.23" cy="69.82" r="8.62" transform="translate(11.87 156.39) rotate(-70.67)"/><path class="cls-2" d="M32,116.23a8.62,8.62,0,1,1-8.62-8.62A8.62,8.62,0,0,1,32,116.23"/><line class="cls-1" x1="69.82" y1="116.23" x2="89.39" y2="116.23"/><line class="cls-1" x1="69.82" y1="116.23" x2="69.82" y2="135.79"/><rect class="cls-1" x="46.62" y="93.03" width="46.4" height="46.4"/><path class="cls-1" d="M32,116.23a8.62,8.62,0,1,1-8.62-8.62A8.62,8.62,0,0,1,32,116.23Z"/><path class="cls-2" d="M78.44,116.23a8.62,8.62,0,1,1-8.62-8.62,8.62,8.62,0,0,1,8.62,8.62"/><circle class="cls-1" cx="69.82" cy="116.23" r="8.62" transform="translate(-50.68 54.07) rotate(-31.72)"/></g></g></g></svg>